<ttFont>
    <TTGlyph name="A" xMin="0" yMin="-51" xMax="1556" yMax="1454">
      <contour>
        <pt x="12" y="293" on="1"/>
        <pt x="17" y="251" on="0"/>
        <pt x="43" y="161" on="0"/>
        <pt x="94" y="88" on="0"/>
        <pt x="173" y="41" on="0"/>
        <pt x="231" y="41" on="1"/>
        <pt x="289" y="41" on="0"/>
        <pt x="399" y="84" on="0"/>
        <pt x="504" y="162" on="0"/>
        <pt x="604" y="269" on="0"/>
        <pt x="651" y="334" on="1"/>
        <pt x="596" y="332" on="0"/>
        <pt x="485" y="327" on="0"/>
        <pt x="428" y="324" on="1"/>
        <pt x="416" y="324" on="0"/>
        <pt x="386" y="317" on="0"/>
        <pt x="383" y="317" on="1"/>
        <pt x="373" y="317" on="0"/>
        <pt x="373" y="330" on="1"/>
        <pt x="373" y="336" on="0"/>
        <pt x="380" y="352" on="0"/>
        <pt x="394" y="367" on="0"/>
        <pt x="415" y="377" on="0"/>
        <pt x="428" y="377" on="1"/>
        <pt x="456" y="377" on="0"/>
        <pt x="593" y="382" on="0"/>
        <pt x="686" y="387" on="1"/>
        <pt x="757" y="491" on="0"/>
        <pt x="885" y="731" on="0"/>
        <pt x="999" y="968" on="0"/>
        <pt x="1101" y="1187" on="0"/>
        <pt x="1189" y="1354" on="0"/>
        <pt x="1263" y="1454" on="0"/>
        <pt x="1294" y="1454" on="1"/>
        <pt x="1313" y="1454" on="0"/>
        <pt x="1336" y="1429" on="0"/>
        <pt x="1347" y="1388" on="0"/>
        <pt x="1350" y="1335" on="0"/>
        <pt x="1350" y="1307" on="1"/>
        <pt x="1350" y="1189" on="0"/>
        <pt x="1331" y="964" on="0"/>
        <pt x="1306" y="743" on="0"/>
        <pt x="1281" y="522" on="0"/>
        <pt x="1274" y="408" on="1"/>
        <pt x="1302" y="410" on="0"/>
        <pt x="1354" y="410" on="0"/>
        <pt x="1378" y="410" on="1"/>
        <pt x="1421" y="410" on="1"/>
        <pt x="1444" y="410" on="0"/>
        <pt x="1479" y="407" on="0"/>
        <pt x="1479" y="397" on="1"/>
        <pt x="1479" y="385" on="0"/>
        <pt x="1456" y="358" on="0"/>
        <pt x="1430" y="358" on="1"/>
        <pt x="1388" y="356" on="0"/>
        <pt x="1310" y="356" on="0"/>
        <pt x="1270" y="356" on="1"/>
        <pt x="1268" y="318" on="0"/>
        <pt x="1268" y="243" on="0"/>
        <pt x="1268" y="205" on="1"/>
        <pt x="1268" y="173" on="0"/>
        <pt x="1276" y="109" on="0"/>
        <pt x="1300" y="58" on="0"/>
        <pt x="1343" y="25" on="0"/>
        <pt x="1378" y="25" on="1"/>
        <pt x="1403" y="25" on="0"/>
        <pt x="1452" y="50" on="0"/>
        <pt x="1496" y="91" on="0"/>
        <pt x="1532" y="141" on="0"/>
        <pt x="1544" y="166" on="1"/>
        <pt x="1556" y="160" on="1"/>
        <pt x="1544" y="134" on="0"/>
        <pt x="1509" y="62" on="0"/>
        <pt x="1461" y="-4" on="0"/>
        <pt x="1396" y="-51" on="0"/>
        <pt x="1354" y="-51" on="1"/>
        <pt x="1279" y="-51" on="0"/>
        <pt x="1214" y="66" on="0"/>
        <pt x="1214" y="184" on="1"/>
        <pt x="1214" y="226" on="0"/>
        <pt x="1215" y="311" on="0"/>
        <pt x="1219" y="354" on="1"/>
        <pt x="1084" y="351" on="0"/>
        <pt x="827" y="342" on="0"/>
        <pt x="694" y="336" on="1"/>
        <pt x="640" y="256" on="0"/>
        <pt x="525" y="119" on="0"/>
        <pt x="406" y="18" on="0"/>
        <pt x="283" y="-39" on="0"/>
        <pt x="221" y="-39" on="1"/>
        <pt x="175" y="-39" on="0"/>
        <pt x="109" y="-6" on="0"/>
        <pt x="63" y="49" on="0"/>
        <pt x="32" y="119" on="0"/>
        <pt x="14" y="192" on="0"/>
        <pt x="4" y="263" on="0"/>
        <pt x="0" y="291" on="1"/>
      </contour>
      <contour>
        <pt x="731" y="389" on="1"/>
        <pt x="789" y="391" on="0"/>
        <pt x="913" y="396" on="0"/>
        <pt x="1039" y="401" on="0"/>
        <pt x="1163" y="406" on="0"/>
        <pt x="1221" y="408" on="1"/>
        <pt x="1227" y="518" on="0"/>
        <pt x="1246" y="749" on="0"/>
        <pt x="1263" y="979" on="0"/>
        <pt x="1276" y="1203" on="0"/>
        <pt x="1276" y="1307" on="1"/>
        <pt x="1276" y="1314" on="0"/>
        <pt x="1275" y="1340" on="0"/>
        <pt x="1273" y="1364" on="0"/>
        <pt x="1269" y="1382" on="0"/>
        <pt x="1266" y="1382" on="1"/>
        <pt x="1252" y="1382" on="0"/>
        <pt x="1199" y="1293" on="0"/>
        <pt x="1125" y="1142" on="0"/>
        <pt x="1032" y="943" on="0"/>
        <pt x="922" y="722" on="0"/>
        <pt x="798" y="493" on="0"/>
      </contour>
    </TTGlyph>
    <TTGlyph name="AE" xMin="0" yMin="-72" xMax="2519" yMax="1509">
      <contour>
        <pt x="1481" y="31" on="1"/>
        <pt x="1450" y="-13" on="0"/>
        <pt x="1385" y="-51" on="0"/>
        <pt x="1354" y="-51" on="1"/>
        <pt x="1317" y="-51" on="0"/>
        <pt x="1264" y="-31" on="0"/>
        <pt x="1230" y="17" on="0"/>
        <pt x="1214" y="97" on="0"/>
        <pt x="1214" y="156" on="1"/>
        <pt x="1214" y="202" on="0"/>
        <pt x="1217" y="300" on="0"/>
        <pt x="1219" y="352" on="1"/>
        <pt x="1214" y="352" on="1"/>
        <pt x="1124" y="350" on="0"/>
        <pt x="985" y="348" on="0"/>
        <pt x="866" y="345" on="0"/>
        <pt x="756" y="341" on="0"/>
        <pt x="696" y="338" on="1"/>
        <pt x="641" y="257" on="0"/>
        <pt x="525" y="119" on="0"/>
        <pt x="406" y="18" on="0"/>
        <pt x="283" y="-39" on="0"/>
        <pt x="221" y="-39" on="1"/>
        <pt x="175" y="-39" on="0"/>
        <pt x="109" y="-6" on="0"/>
        <pt x="63" y="49" on="0"/>
        <pt x="32" y="119" on="0"/>
        <pt x="14" y="192" on="0"/>
        <pt x="4" y="263" on="0"/>
        <pt x="0" y="291" on="1"/>
        <pt x="12" y="293" on="1"/>
        <pt x="17" y="251" on="0"/>
        <pt x="43" y="161" on="0"/>
        <pt x="94" y="88" on="0"/>
        <pt x="173" y="41" on="0"/>
        <pt x="231" y="41" on="1"/>
        <pt x="289" y="41" on="0"/>
        <pt x="399" y="84" on="0"/>
        <pt x="504" y="162" on="0"/>
        <pt x="604" y="269" on="0"/>
        <pt x="651" y="334" on="1"/>
        <pt x="603" y="332" on="0"/>
        <pt x="496" y="327" on="0"/>
        <pt x="428" y="324" on="1"/>
        <pt x="416" y="324" on="0"/>
        <pt x="386" y="317" on="0"/>
        <pt x="383" y="317" on="1"/>
        <pt x="373" y="317" on="0"/>
        <pt x="373" y="330" on="1"/>
        <pt x="373" y="336" on="0"/>
        <pt x="380" y="352" on="0"/>
        <pt x="394" y="367" on="0"/>
        <pt x="415" y="377" on="0"/>
        <pt x="428" y="377" on="1"/>
        <pt x="462" y="377" on="0"/>
        <pt x="598" y="382" on="0"/>
        <pt x="688" y="387" on="1"/>
        <pt x="758" y="492" on="0"/>
        <pt x="886" y="732" on="0"/>
        <pt x="1000" y="969" on="0"/>
        <pt x="1101" y="1187" on="0"/>
        <pt x="1189" y="1354" on="0"/>
        <pt x="1263" y="1454" on="0"/>
        <pt x="1294" y="1454" on="1"/>
        <pt x="1313" y="1454" on="0"/>
        <pt x="1336" y="1429" on="0"/>
        <pt x="1347" y="1388" on="0"/>
        <pt x="1350" y="1335" on="0"/>
        <pt x="1350" y="1307" on="1"/>
        <pt x="1350" y="1208" on="0"/>
        <pt x="1339" y="1023" on="0"/>
        <pt x="1331" y="930" on="1"/>
        <pt x="1365" y="1010" on="0"/>
        <pt x="1470" y="1158" on="0"/>
        <pt x="1601" y="1287" on="0"/>
        <pt x="1756" y="1393" on="0"/>
        <pt x="1924" y="1468" on="0"/>
        <pt x="2103" y="1509" on="0"/>
        <pt x="2193" y="1509" on="1"/>
        <pt x="2241" y="1509" on="0"/>
        <pt x="2354" y="1486" on="0"/>
        <pt x="2453" y="1431" on="0"/>
        <pt x="2519" y="1339" on="0"/>
        <pt x="2519" y="1270" on="1"/>
        <pt x="2519" y="1217" on="0"/>
        <pt x="2453" y="1087" on="0"/>
        <pt x="2384" y="1028" on="1"/>
        <pt x="2376" y="1036" on="1"/>
        <pt x="2424" y="1086" on="0"/>
        <pt x="2462" y="1188" on="0"/>
        <pt x="2462" y="1247" on="1"/>
        <pt x="2462" y="1302" on="0"/>
        <pt x="2405" y="1377" on="0"/>
        <pt x="2321" y="1423" on="0"/>
        <pt x="2224" y="1442" on="0"/>
        <pt x="2183" y="1442" on="1"/>
        <pt x="2072" y="1442" on="0"/>
        <pt x="1856" y="1387" on="0"/>
        <pt x="1663" y="1287" on="0"/>
        <pt x="1498" y="1147" on="0"/>
        <pt x="1379" y="977" on="0"/>
        <pt x="1311" y="781" on="0"/>
        <pt x="1311" y="676" on="1"/>
        <pt x="1311" y="593" on="0"/>
        <pt x="1368" y="442" on="0"/>
        <pt x="1470" y="320" on="0"/>
        <pt x="1609" y="235" on="0"/>
        <pt x="1690" y="219" on="1"/>
        <pt x="1700" y="263" on="0"/>
        <pt x="1745" y="341" on="0"/>
        <pt x="1806" y="400" on="0"/>
        <pt x="1881" y="434" on="0"/>
        <pt x="1921" y="434" on="1"/>
        <pt x="1964" y="434" on="0"/>
        <pt x="2023" y="387" on="0"/>
        <pt x="2023" y="336" on="1"/>
        <pt x="2023" y="287" on="0"/>
        <pt x="1975" y="217" on="0"/>
        <pt x="1901" y="173" on="0"/>
        <pt x="1810" y="152" on="0"/>
        <pt x="1767" y="152" on="1"/>
        <pt x="1755" y="152" on="0"/>
        <pt x="1731" y="152" on="0"/>
        <pt x="1720" y="154" on="1"/>
        <pt x="1722" y="118" on="0"/>
        <pt x="1756" y="59" on="0"/>
        <pt x="1810" y="18" on="0"/>
        <pt x="1878" y="-4" on="0"/>
        <pt x="1915" y="-4" on="1"/>
        <pt x="2048" y="-4" on="0"/>
        <pt x="2296" y="154" on="0"/>
        <pt x="2398" y="307" on="1"/>
        <pt x="2410" y="299" on="1"/>
        <pt x="2399" y="282" on="0"/>
        <pt x="2352" y="215" on="0"/>
        <pt x="2284" y="132" on="0"/>
        <pt x="2195" y="45" on="0"/>
        <pt x="2090" y="-26" on="0"/>
        <pt x="1971" y="-72" on="0"/>
        <pt x="1905" y="-72" on="1"/>
        <pt x="1803" y="-72" on="0"/>
        <pt x="1685" y="44" on="0"/>
        <pt x="1683" y="158" on="1"/>
        <pt x="1606" y="168" on="0"/>
        <pt x="1478" y="227" on="0"/>
        <pt x="1379" y="317" on="0"/>
        <pt x="1310" y="436" on="0"/>
        <pt x="1292" y="506" on="1"/>
        <pt x="1287" y="432" on="0"/>
        <pt x="1280" y="282" on="0"/>
        <pt x="1280" y="205" on="1"/>
        <pt x="1280" y="173" on="0"/>
        <pt x="1284" y="103" on="0"/>
        <pt x="1303" y="45" on="0"/>
        <pt x="1343" y="6" on="0"/>
        <pt x="1378" y="6" on="1"/>
        <pt x="1415" y="6" on="0"/>
        <pt x="1454" y="27" on="0"/>
        <pt x="1466" y="39" on="1"/>
      </contour>
      <contour>
        <pt x="1221" y="403" on="1"/>
        <pt x="1227" y="514" on="0"/>
        <pt x="1246" y="748" on="0"/>
        <pt x="1263" y="981" on="0"/>
        <pt x="1276" y="1205" on="0"/>
        <pt x="1276" y="1307" on="1"/>
        <pt x="1276" y="1314" on="0"/>
        <pt x="1275" y="1340" on="0"/>
        <pt x="1273" y="1364" on="0"/>
        <pt x="1269" y="1382" on="0"/>
        <pt x="1266" y="1382" on="1"/>
        <pt x="1252" y="1382" on="0"/>
        <pt x="1199" y="1293" on="0"/>
        <pt x="1125" y="1143" on="0"/>
        <pt x="1032" y="943" on="0"/>
        <pt x="922" y="723" on="0"/>
        <pt x="798" y="494" on="0"/>
        <pt x="731" y="389" on="1"/>
        <pt x="833" y="394" on="0"/>
        <pt x="1057" y="403" on="0"/>
        <pt x="1163" y="403" on="1"/>
        <pt x="1206" y="403" on="1"/>
      </contour>
      <contour>
        <pt x="1917" y="381" on="1"/>
        <pt x="1875" y="381" on="0"/>
        <pt x="1809" y="355" on="0"/>
        <pt x="1761" y="310" on="0"/>
        <pt x="1730" y="249" on="0"/>
        <pt x="1724" y="213" on="1"/>
        <pt x="1738" y="211" on="0"/>
        <pt x="1766" y="211" on="0"/>
        <pt x="1780" y="211" on="1"/>
        <pt x="1814" y="211" on="0"/>
        <pt x="1890" y="224" on="0"/>
        <pt x="1952" y="253" on="0"/>
        <pt x="1993" y="296" on="0"/>
        <pt x="1993" y="326" on="1"/>
        <pt x="1993" y="341" on="0"/>
        <pt x="1979" y="361" on="0"/>
        <pt x="1957" y="375" on="0"/>
        <pt x="1930" y="381" on="0"/>
      </contour>
    </TTGlyph>
    <TTGlyph name="AEacute" xMin="0" yMin="-72" xMax="2519" yMax="1718">
      <component glyphName="AE" x="0" y="0" flags="0x204"/>
      <component glyphName="acute" x="1374" y="991" flags="0x4"/>
    </TTGlyph>
    <TTGlyph name="Aacute" xMin="0" yMin="-51" xMax="1556" yMax="1728">
      <component glyphName="A" x="0" y="0" flags="0x204"/>
      <component glyphName="acute" x="1063" y="1001" flags="0x4"/>
    </TTGlyph>
    <TTGlyph name="Abreve" xMin="0" yMin="-51" xMax="1556" yMax="1715">
      <component glyphName="A" x="0" y="0" flags="0x204"/>
      <component glyphName="breve" x="997" y="1001" flags="0x4"/>
    </TTGlyph>
    <TTGlyph name="Acircumflex" xMin="0" yMin="-51" xMax="1556" yMax="1718">
      <component glyphName="A" x="0" y="0" flags="0x204"/>
      <component glyphName="circumflex" x="997" y="1001" flags="0x4"/>
    </TTGlyph>
    <TTGlyph name="Adieresis" xMin="0" yMin="-51" xMax="1556" yMax="1642">
      <component glyphName="A" x="0" y="0" flags="0x204"/>
      <component glyphName="dieresis" x="987" y="1001" flags="0x4"/>
    </TTGlyph>
    <TTGlyph name="Agrave" xMin="0" yMin="-51" xMax="1556" yMax="1740">
      <component glyphName="A" x="0" y="0" flags="0x204"/>
      <component glyphName="grave" x="950" y="1001" flags="0x4"/>
    </TTGlyph>
    <TTGlyph name="Amacron" xMin="0" yMin="-51" xMax="1556" yMax="1626">
      <component glyphName="A" x="0" y="0" flags="0x204"/>
      <component glyphName="macron" x="987" y="1001" flags="0x4"/>
    </TTGlyph>
    <TTGlyph name="Aogonek" xMin="0" yMin="-244" xMax="1576" yMax="1454">
      <contour>
        <pt x="12" y="293" on="1"/>
        <pt x="17" y="251" on="0"/>
        <pt x="43" y="161" on="0"/>
        <pt x="94" y="88" on="0"/>
        <pt x="173" y="41" on="0"/>
        <pt x="231" y="41" on="1"/>
        <pt x="289" y="41" on="0"/>
        <pt x="399" y="84" on="0"/>
        <pt x="504" y="162" on="0"/>
        <pt x="604" y="269" on="0"/>
        <pt x="651" y="334" on="1"/>
        <pt x="596" y="332" on="0"/>
        <pt x="485" y="327" on="0"/>
        <pt x="428" y="324" on="1"/>
        <pt x="416" y="324" on="0"/>
        <pt x="386" y="317" on="0"/>
        <pt x="383" y="317" on="1"/>
        <pt x="373" y="317" on="0"/>
        <pt x="373" y="330" on="1"/>
        <pt x="373" y="336" on="0"/>
        <pt x="380" y="352" on="0"/>
        <pt x="394" y="367" on="0"/>
        <pt x="415" y="377" on="0"/>
        <pt x="428" y="377" on="1"/>
        <pt x="456" y="377" on="0"/>
        <pt x="593" y="382" on="0"/>
        <pt x="686" y="387" on="1"/>
        <pt x="757" y="491" on="0"/>
        <pt x="885" y="731" on="0"/>
        <pt x="999" y="968" on="0"/>
        <pt x="1101" y="1187" on="0"/>
        <pt x="1189" y="1354" on="0"/>
        <pt x="1263" y="1454" on="0"/>
        <pt x="1294" y="1454" on="1"/>
        <pt x="1313" y="1454" on="0"/>
        <pt x="1336" y="1429" on="0"/>
        <pt x="1347" y="1388" on="0"/>
        <pt x="1350" y="1335" on="0"/>
        <pt x="1350" y="1307" on="1"/>
        <pt x="1350" y="1189" on="0"/>
        <pt x="1331" y="964" on="0"/>
        <pt x="1306" y="743" on="0"/>
        <pt x="1281" y="522" on="0"/>
        <pt x="1274" y="408" on="1"/>
        <pt x="1302" y="410" on="0"/>
        <pt x="1354" y="410" on="0"/>
        <pt x="1378" y="410" on="1"/>
        <pt x="1421" y="410" on="1"/>
        <pt x="1444" y="410" on="0"/>
        <pt x="1479" y="407" on="0"/>
        <pt x="1479" y="397" on="1"/>
        <pt x="1479" y="385" on="0"/>
        <pt x="1456" y="358" on="0"/>
        <pt x="1430" y="358" on="1"/>
        <pt x="1388" y="356" on="0"/>
        <pt x="1310" y="356" on="0"/>
        <pt x="1270" y="356" on="1"/>
        <pt x="1268" y="318" on="0"/>
        <pt x="1268" y="243" on="0"/>
        <pt x="1268" y="205" on="1"/>
        <pt x="1268" y="173" on="0"/>
        <pt x="1276" y="109" on="0"/>
        <pt x="1300" y="58" on="0"/>
        <pt x="1343" y="25" on="0"/>
        <pt x="1378" y="25" on="1"/>
        <pt x="1403" y="25" on="0"/>
        <pt x="1452" y="50" on="0"/>
        <pt x="1496" y="91" on="0"/>
        <pt x="1532" y="141" on="0"/>
        <pt x="1544" y="166" on="1"/>
        <pt x="1556" y="160" on="1"/>
        <pt x="1552" y="150" on="0"/>
        <pt x="1538" y="115" on="0"/>
        <pt x="1514" y="70" on="0"/>
        <pt x="1477" y="19" on="0"/>
        <pt x="1452" y="-8" on="1"/>
        <pt x="1439" y="-23" on="0"/>
        <pt x="1411" y="-59" on="0"/>
        <pt x="1389" y="-97" on="0"/>
        <pt x="1374" y="-135" on="0"/>
        <pt x="1374" y="-150" on="1"/>
        <pt x="1374" y="-167" on="0"/>
        <pt x="1401" y="-197" on="0"/>
        <pt x="1427" y="-197" on="1"/>
        <pt x="1459" y="-197" on="0"/>
        <pt x="1527" y="-175" on="0"/>
        <pt x="1554" y="-158" on="1"/>
        <pt x="1556" y="-152" on="0"/>
        <pt x="1567" y="-155" on="0"/>
        <pt x="1575" y="-164" on="0"/>
        <pt x="1576" y="-178" on="0"/>
        <pt x="1569" y="-184" on="1"/>
        <pt x="1531" y="-215" on="0"/>
        <pt x="1453" y="-244" on="0"/>
        <pt x="1419" y="-244" on="1"/>
        <pt x="1404" y="-244" on="0"/>
        <pt x="1372" y="-237" on="0"/>
        <pt x="1346" y="-220" on="0"/>
        <pt x="1329" y="-190" on="0"/>
        <pt x="1329" y="-166" on="1"/>
        <pt x="1329" y="-137" on="0"/>
        <pt x="1368" y="-74" on="0"/>
        <pt x="1393" y="-45" on="1"/>
        <pt x="1385" y="-48" on="0"/>
        <pt x="1362" y="-51" on="0"/>
        <pt x="1354" y="-51" on="1"/>
        <pt x="1279" y="-51" on="0"/>
        <pt x="1214" y="66" on="0"/>
        <pt x="1214" y="184" on="1"/>
        <pt x="1214" y="226" on="0"/>
        <pt x="1215" y="311" on="0"/>
        <pt x="1219" y="354" on="1"/>
        <pt x="1084" y="351" on="0"/>
        <pt x="827" y="342" on="0"/>
        <pt x="694" y="336" on="1"/>
        <pt x="640" y="256" on="0"/>
        <pt x="525" y="119" on="0"/>
        <pt x="406" y="18" on="0"/>
        <pt x="283" y="-39" on="0"/>
        <pt x="221" y="-39" on="1"/>
        <pt x="175" y="-39" on="0"/>
        <pt x="109" y="-6" on="0"/>
        <pt x="63" y="49" on="0"/>
        <pt x="32" y="119" on="0"/>
        <pt x="14" y="192" on="0"/>
        <pt x="4" y="263" on="0"/>
        <pt x="0" y="291" on="1"/>
      </contour>
      <contour>
        <pt x="731" y="389" on="1"/>
        <pt x="789" y="391" on="0"/>
        <pt x="913" y="396" on="0"/>
        <pt x="1039" y="401" on="0"/>
        <pt x="1163" y="406" on="0"/>
        <pt x="1221" y="408" on="1"/>
        <pt x="1227" y="518" on="0"/>
        <pt x="1246" y="749" on="0"/>
        <pt x="1263" y="979" on="0"/>
        <pt x="1276" y="1203" on="0"/>
        <pt x="1276" y="1307" on="1"/>
        <pt x="1276" y="1314" on="0"/>
        <pt x="1275" y="1340" on="0"/>
        <pt x="1273" y="1364" on="0"/>
        <pt x="1269" y="1382" on="0"/>
        <pt x="1266" y="1382" on="1"/>
        <pt x="1252" y="1382" on="0"/>
        <pt x="1199" y="1293" on="0"/>
        <pt x="1125" y="1142" on="0"/>
        <pt x="1032" y="943" on="0"/>
        <pt x="922" y="722" on="0"/>
        <pt x="798" y="493" on="0"/>
      </contour>
    </TTGlyph>
    <TTGlyph name="Aring" xMin="0" yMin="-51" xMax="1556" yMax="1820">
      <component glyphName="A" x="0" y="0" flags="0x204"/>
      <component glyphName="ring" x="1001" y="1001" flags="0x4"/>
    </TTGlyph>
    <TTGlyph name="Atilde" xMin="0" yMin="-51" xMax="1556" yMax="1683">
      <component glyphName="A" x="0" y="0" flags="0x204"/>
      <component glyphName="tilde" x="987" y="1001" flags="0x4"/>
    </TTGlyph>
    <TTGlyph name="B" xMin="0" yMin="-109" xMax="1470" yMax="1544">
      <contour>
        <pt x="442" y="106" on="1"/>
        <pt x="458" y="95" on="0"/>
        <pt x="486" y="77" on="0"/>
        <pt x="502" y="68" on="1"/>
        <pt x="499" y="116" on="0"/>
        <pt x="496" y="208" on="0"/>
        <pt x="494" y="254" on="1"/>
        <pt x="453" y="257" on="0"/>
        <pt x="401" y="277" on="0"/>
        <pt x="401" y="297" on="1"/>
        <pt x="401" y="319" on="0"/>
        <pt x="450" y="341" on="0"/>
        <pt x="492" y="344" on="1"/>
        <pt x="492" y="463" on="1"/>
        <pt x="492" y="583" on="0"/>
        <pt x="496" y="807" on="0"/>
        <pt x="506" y="1027" on="0"/>
        <pt x="524" y="1249" on="0"/>
        <pt x="539" y="1366" on="1"/>
        <pt x="436" y="1328" on="0"/>
        <pt x="249" y="1220" on="0"/>
        <pt x="107" y="1081" on="0"/>
        <pt x="23" y="912" on="0"/>
        <pt x="23" y="815" on="1"/>
        <pt x="23" y="794" on="0"/>
        <pt x="37" y="739" on="0"/>
        <pt x="65" y="682" on="0"/>
        <pt x="107" y="629" on="0"/>
        <pt x="135" y="610" on="1"/>
        <pt x="123" y="596" on="1"/>
        <pt x="92" y="617" on="0"/>
        <pt x="46" y="674" on="0"/>
        <pt x="15" y="735" on="0"/>
        <pt x="0" y="796" on="0"/>
        <pt x="0" y="823" on="1"/>
        <pt x="0" y="925" on="0"/>
        <pt x="92" y="1105" on="0"/>
        <pt x="245" y="1257" on="0"/>
        <pt x="441" y="1379" on="0"/>
        <pt x="545" y="1423" on="1"/>
        <pt x="547" y="1434" on="0"/>
        <pt x="551" y="1458" on="0"/>
        <pt x="553" y="1470" on="1"/>
        <pt x="555" y="1483" on="0"/>
        <pt x="559" y="1511" on="0"/>
        <pt x="559" y="1513" on="1"/>
        <pt x="559" y="1523" on="0"/>
        <pt x="558" y="1544" on="0"/>
        <pt x="567" y="1544" on="1"/>
        <pt x="573" y="1544" on="0"/>
        <pt x="587" y="1536" on="0"/>
        <pt x="599" y="1524" on="0"/>
        <pt x="608" y="1509" on="0"/>
        <pt x="608" y="1503" on="1"/>
        <pt x="606" y="1488" on="0"/>
        <pt x="602" y="1460" on="0"/>
        <pt x="600" y="1446" on="1"/>
        <pt x="699" y="1481" on="0"/>
        <pt x="885" y="1520" on="0"/>
        <pt x="961" y="1520" on="1"/>
        <pt x="1064" y="1520" on="0"/>
        <pt x="1249" y="1470" on="0"/>
        <pt x="1389" y="1363" on="0"/>
        <pt x="1470" y="1194" on="0"/>
        <pt x="1470" y="1075" on="1"/>
        <pt x="1470" y="969" on="0"/>
        <pt x="1416" y="781" on="0"/>
        <pt x="1320" y="618" on="0"/>
        <pt x="1188" y="481" on="0"/>
        <pt x="1033" y="374" on="0"/>
        <pt x="860" y="298" on="0"/>
        <pt x="772" y="276" on="1"/>
        <pt x="797" y="253" on="0"/>
        <pt x="821" y="194" on="0"/>
        <pt x="821" y="160" on="1"/>
        <pt x="821" y="131" on="0"/>
        <pt x="801" y="74" on="0"/>
        <pt x="760" y="27" on="0"/>
        <pt x="697" y="-2" on="0"/>
        <pt x="655" y="-2" on="1"/>
        <pt x="631" y="-2" on="0"/>
        <pt x="585" y="6" on="0"/>
        <pt x="565" y="12" on="1"/>
        <pt x="567" y="-6" on="0"/>
        <pt x="569" y="-42" on="0"/>
        <pt x="571" y="-59" on="1"/>
        <pt x="571" y="-64" on="0"/>
        <pt x="573" y="-83" on="0"/>
        <pt x="573" y="-86" on="1"/>
        <pt x="573" y="-95" on="0"/>
        <pt x="558" y="-109" on="0"/>
        <pt x="553" y="-109" on="1"/>
        <pt x="520" y="-109" on="0"/>
        <pt x="514" y="-59" on="1"/>
        <pt x="511" y="-33" on="0"/>
        <pt x="506" y="16" on="0"/>
        <pt x="504" y="41" on="1"/>
        <pt x="481" y="55" on="0"/>
        <pt x="445" y="83" on="0"/>
        <pt x="432" y="94" on="1"/>
      </contour>
      <contour>
        <pt x="551" y="629" on="1"/>
        <pt x="551" y="572" on="0"/>
        <pt x="549" y="427" on="0"/>
        <pt x="551" y="348" on="1"/>
        <pt x="569" y="348" on="1"/>
        <pt x="623" y="348" on="0"/>
        <pt x="713" y="323" on="0"/>
        <pt x="745" y="301" on="1"/>
        <pt x="831" y="317" on="0"/>
        <pt x="995" y="382" on="0"/>
        <pt x="1140" y="477" on="0"/>
        <pt x="1261" y="603" on="0"/>
        <pt x="1348" y="759" on="0"/>
        <pt x="1397" y="945" on="0"/>
        <pt x="1397" y="1053" on="1"/>
        <pt x="1397" y="1142" on="0"/>
        <pt x="1335" y="1288" on="0"/>
        <pt x="1222" y="1391" on="0"/>
        <pt x="1064" y="1448" on="0"/>
        <pt x="967" y="1448" on="1"/>
        <pt x="880" y="1448" on="0"/>
        <pt x="690" y="1417" on="0"/>
        <pt x="594" y="1386" on="1"/>
        <pt x="578" y="1237" on="0"/>
        <pt x="560" y="1012" on="0"/>
        <pt x="552" y="835" on="0"/>
        <pt x="551" y="694" on="0"/>
      </contour>
      <contour>
        <pt x="553" y="252" on="1"/>
        <pt x="555" y="198" on="0"/>
        <pt x="560" y="93" on="0"/>
        <pt x="563" y="43" on="1"/>
        <pt x="577" y="38" on="0"/>
        <pt x="606" y="35" on="0"/>
        <pt x="623" y="35" on="1"/>
        <pt x="696" y="35" on="0"/>
        <pt x="764" y="113" on="0"/>
        <pt x="764" y="170" on="1"/>
        <pt x="764" y="231" on="0"/>
        <pt x="729" y="268" on="1"/>
        <pt x="687" y="259" on="0"/>
        <pt x="603" y="252" on="0"/>
        <pt x="563" y="252" on="1"/>
      </contour>
      <contour>
        <pt x="553" y="283" on="1"/>
        <pt x="557" y="283" on="1"/>
        <pt x="592" y="283" on="0"/>
        <pt x="662" y="287" on="0"/>
        <pt x="696" y="293" on="1"/>
        <pt x="673" y="305" on="0"/>
        <pt x="612" y="319" on="0"/>
        <pt x="573" y="319" on="1"/>
        <pt x="553" y="319" on="1"/>
      </contour>
      <contour>
        <pt x="494" y="285" on="1"/>
        <pt x="494" y="293" on="0"/>
        <pt x="492" y="307" on="0"/>
        <pt x="492" y="315" on="1"/>
        <pt x="457" y="309" on="0"/>
        <pt x="457" y="297" on="1"/>
        <pt x="457" y="291" on="0"/>
        <pt x="478" y="287" on="0"/>
      </contour>
    </TTGlyph>
    <TTGlyph name="C" xMin="84" yMin="-90" xMax="1081" yMax="1505">
      <contour>
        <pt x="1081" y="371" on="1"/>
        <pt x="1076" y="343" on="0"/>
        <pt x="1050" y="252" on="0"/>
        <pt x="1002" y="150" on="0"/>
        <pt x="929" y="46" on="0"/>
        <pt x="826" y="-37" on="0"/>
        <pt x="688" y="-90" on="0"/>
        <pt x="600" y="-90" on="1"/>
        <pt x="500" y="-90" on="0"/>
        <pt x="314" y="6" on="0"/>
        <pt x="170" y="186" on="0"/>
        <pt x="84" y="447" on="0"/>
        <pt x="84" y="612" on="1"/>
        <pt x="84" y="729" on="0"/>
        <pt x="126" y="953" on="0"/>
        <pt x="205" y="1151" on="0"/>
        <pt x="318" y="1318" on="0"/>
        <pt x="462" y="1438" on="0"/>
        <pt x="634" y="1505" on="0"/>
        <pt x="731" y="1505" on="1"/>
        <pt x="804" y="1505" on="0"/>
        <pt x="920" y="1461" on="0"/>
        <pt x="1001" y="1385" on="0"/>
        <pt x="1044" y="1282" on="0"/>
        <pt x="1044" y="1223" on="1"/>
        <pt x="1044" y="1184" on="0"/>
        <pt x="1021" y="1109" on="0"/>
        <pt x="989" y="1044" on="0"/>
        <pt x="954" y="991" on="0"/>
        <pt x="942" y="975" on="1"/>
        <pt x="930" y="985" on="1"/>
        <pt x="942" y="1001" on="0"/>
        <pt x="963" y="1044" on="0"/>
        <pt x="979" y="1094" on="0"/>
        <pt x="989" y="1149" on="0"/>
        <pt x="989" y="1178" on="1"/>
        <pt x="989" y="1231" on="0"/>
        <pt x="952" y="1325" on="0"/>
        <pt x="882" y="1396" on="0"/>
        <pt x="781" y="1438" on="0"/>
        <pt x="717" y="1438" on="1"/>
        <pt x="621" y="1438" on="0"/>
        <pt x="460" y="1381" on="0"/>
        <pt x="332" y="1278" on="0"/>
        <pt x="235" y="1135" on="0"/>
        <pt x="171" y="963" on="0"/>
        <pt x="139" y="769" on="0"/>
        <pt x="139" y="666" on="1"/>
        <pt x="139" y="585" on="0"/>
        <pt x="166" y="420" on="0"/>
        <pt x="220" y="266" on="0"/>
        <pt x="301" y="131" on="0"/>
        <pt x="408" y="31" on="0"/>
        <pt x="543" y="-27" on="0"/>
        <pt x="623" y="-27" on="1"/>
        <pt x="729" y="-27" on="0"/>
        <pt x="881" y="48" on="0"/>
        <pt x="985" y="165" on="0"/>
        <pt x="1046" y="307" on="0"/>
        <pt x="1061" y="375" on="1"/>
      </contour>
    </TTGlyph>
    <TTGlyph name="Cacute" xMin="84" yMin="-90" xMax="1081" yMax="1782">
      <component glyphName="C" x="0" y="0" flags="0x204"/>
      <component glyphName="acute" x="487" y="1055" flags="0x4"/>
    </TTGlyph>
    <TTGlyph name="Ccaron" xMin="84" yMin="-90" xMax="1081" yMax="1770">
      <component glyphName="C" x="0" y="0" flags="0x204"/>
      <component glyphName="caron" x="426" y="1055" flags="0x4"/>
    </TTGlyph>
    <TTGlyph name="Ccedilla" xMin="84" yMin="-348" xMax="1081" yMax="1505">
      <contour>
        <pt x="1081" y="371" on="1"/>
        <pt x="1076" y="343" on="0"/>
        <pt x="1050" y="255" on="0"/>
        <pt x="1004" y="154" on="0"/>
        <pt x="933" y="52" on="0"/>
        <pt x="832" y="-32" on="0"/>
        <pt x="699" y="-86" on="0"/>
        <pt x="614" y="-88" on="1"/>
        <pt x="606" y="-113" on="0"/>
        <pt x="598" y="-153" on="0"/>
        <pt x="598" y="-172" on="1"/>
        <pt x="604" y="-169" on="0"/>
        <pt x="626" y="-162" on="0"/>
        <pt x="643" y="-162" on="1"/>
        <pt x="677" y="-162" on="0"/>
        <pt x="715" y="-204" on="0"/>
        <pt x="715" y="-238" on="1"/>
        <pt x="715" y="-253" on="0"/>
        <pt x="704" y="-292" on="0"/>
        <pt x="677" y="-325" on="0"/>
        <pt x="630" y="-348" on="0"/>
        <pt x="594" y="-348" on="1"/>
        <pt x="585" y="-348" on="0"/>
        <pt x="561" y="-346" on="0"/>
        <pt x="535" y="-340" on="0"/>
        <pt x="510" y="-330" on="0"/>
        <pt x="500" y="-322" on="1"/>
        <pt x="494" y="-318" on="0"/>
        <pt x="497" y="-296" on="0"/>
        <pt x="505" y="-277" on="0"/>
        <pt x="516" y="-269" on="0"/>
        <pt x="518" y="-279" on="1"/>
        <pt x="535" y="-290" on="0"/>
        <pt x="575" y="-297" on="0"/>
        <pt x="606" y="-297" on="1"/>
        <pt x="618" y="-297" on="0"/>
        <pt x="645" y="-294" on="0"/>
        <pt x="666" y="-283" on="0"/>
        <pt x="680" y="-264" on="0"/>
        <pt x="680" y="-248" on="1"/>
        <pt x="680" y="-203" on="0"/>
        <pt x="627" y="-203" on="1"/>
        <pt x="604" y="-203" on="0"/>
        <pt x="579" y="-213" on="0"/>
        <pt x="571" y="-213" on="1"/>
        <pt x="563" y="-213" on="0"/>
        <pt x="563" y="-205" on="1"/>
        <pt x="563" y="-198" on="0"/>
        <pt x="569" y="-171" on="0"/>
        <pt x="579" y="-139" on="0"/>
        <pt x="589" y="-105" on="0"/>
        <pt x="594" y="-90" on="1"/>
        <pt x="495" y="-89" on="0"/>
        <pt x="311" y="8" on="0"/>
        <pt x="169" y="188" on="0"/>
        <pt x="84" y="448" on="0"/>
        <pt x="84" y="612" on="1"/>
        <pt x="84" y="729" on="0"/>
        <pt x="126" y="953" on="0"/>
        <pt x="205" y="1151" on="0"/>
        <pt x="318" y="1318" on="0"/>
        <pt x="462" y="1438" on="0"/>
        <pt x="634" y="1505" on="0"/>
        <pt x="731" y="1505" on="1"/>
        <pt x="804" y="1505" on="0"/>
        <pt x="920" y="1461" on="0"/>
        <pt x="1001" y="1385" on="0"/>
        <pt x="1044" y="1282" on="0"/>
        <pt x="1044" y="1223" on="1"/>
        <pt x="1044" y="1184" on="0"/>
        <pt x="1021" y="1109" on="0"/>
        <pt x="989" y="1044" on="0"/>
        <pt x="954" y="991" on="0"/>
        <pt x="942" y="975" on="1"/>
        <pt x="930" y="985" on="1"/>
        <pt x="942" y="1001" on="0"/>
        <pt x="963" y="1044" on="0"/>
        <pt x="979" y="1094" on="0"/>
        <pt x="989" y="1149" on="0"/>
        <pt x="989" y="1178" on="1"/>
        <pt x="989" y="1231" on="0"/>
        <pt x="952" y="1325" on="0"/>
        <pt x="882" y="1396" on="0"/>
        <pt x="781" y="1438" on="0"/>
        <pt x="717" y="1438" on="1"/>
        <pt x="621" y="1438" on="0"/>
        <pt x="460" y="1381" on="0"/>
        <pt x="332" y="1278" on="0"/>
        <pt x="235" y="1135" on="0"/>
        <pt x="171" y="963" on="0"/>
        <pt x="139" y="769" on="0"/>
        <pt x="139" y="666" on="1"/>
        <pt x="139" y="585" on="0"/>
        <pt x="166" y="420" on="0"/>
        <pt x="220" y="266" on="0"/>
        <pt x="301" y="131" on="0"/>
        <pt x="408" y="31" on="0"/>
        <pt x="543" y="-27" on="0"/>
        <pt x="623" y="-27" on="1"/>
        <pt x="729" y="-27" on="0"/>
        <pt x="881" y="48" on="0"/>
        <pt x="985" y="165" on="0"/>
        <pt x="1046" y="307" on="0"/>
        <pt x="1061" y="375" on="1"/>
      </contour>
    </TTGlyph>
    <TTGlyph name="Ccircumflex" xMin="84" yMin="-90" xMax="1081" yMax="1772">
      <component glyphName="C" x="0" y="0" flags="0x204"/>
      <component glyphName="circumflex" x="422" y="1055" flags="0x4"/>
    </TTGlyph>
    <TTGlyph name="Cdotaccent" xMin="84" yMin="-90" xMax="1081" yMax="1696">
      <component glyphName="C" x="0" y="0" flags="0x204"/>
      <component glyphName="dotaccent" x="412" y="1055" flags="0x4"/>
    </TTGlyph>
    <TTGlyph name="D" xMin="0" yMin="-80" xMax="1409" yMax="1550">
      <contour>
        <pt x="627" y="350" on="1"/>
        <pt x="627" y="376" on="0"/>
        <pt x="627" y="435" on="0"/>
        <pt x="629" y="467" on="1"/>
        <pt x="595" y="456" on="0"/>
        <pt x="516" y="444" on="0"/>
        <pt x="473" y="444" on="1"/>
        <pt x="354" y="444" on="0"/>
        <pt x="177" y="522" on="0"/>
        <pt x="59" y="653" on="0"/>
        <pt x="0" y="825" on="0"/>
        <pt x="0" y="920" on="1"/>
        <pt x="0" y="1018" on="0"/>
        <pt x="58" y="1187" on="0"/>
        <pt x="159" y="1327" on="0"/>
        <pt x="298" y="1436" on="0"/>
        <pt x="458" y="1511" on="0"/>
        <pt x="633" y="1550" on="0"/>
        <pt x="721" y="1550" on="1"/>
        <pt x="877" y="1550" on="0"/>
        <pt x="1131" y="1454" on="0"/>
        <pt x="1311" y="1269" on="0"/>
        <pt x="1409" y="998" on="0"/>
        <pt x="1409" y="823" on="1"/>
        <pt x="1409" y="745" on="0"/>
        <pt x="1386" y="555" on="0"/>
        <pt x="1336" y="361" on="0"/>
        <pt x="1256" y="178" on="0"/>
        <pt x="1141" y="35" on="0"/>
        <pt x="991" y="-51" on="0"/>
        <pt x="895" y="-51" on="1"/>
        <pt x="832" y="-51" on="0"/>
        <pt x="726" y="-9" on="0"/>
        <pt x="680" y="12" on="1"/>
        <pt x="660" y="-31" on="0"/>
        <pt x="586" y="-80" on="0"/>
        <pt x="537" y="-80" on="1"/>
        <pt x="522" y="-80" on="0"/>
        <pt x="485" y="-70" on="0"/>
        <pt x="453" y="-50" on="0"/>
        <pt x="432" y="-19" on="0"/>
        <pt x="432" y="2" on="1"/>
        <pt x="432" y="23" on="0"/>
        <pt x="452" y="54" on="0"/>
        <pt x="485" y="75" on="0"/>
        <pt x="528" y="86" on="0"/>
        <pt x="551" y="86" on="1"/>
        <pt x="573" y="86" on="0"/>
        <pt x="615" y="79" on="0"/>
        <pt x="637" y="74" on="1"/>
        <pt x="637" y="92" on="1"/>
        <pt x="637" y="142" on="0"/>
        <pt x="627" y="269" on="0"/>
      </contour>
      <contour>
        <pt x="729" y="852" on="1"/>
        <pt x="712" y="780" on="0"/>
        <pt x="695" y="607" on="0"/>
        <pt x="690" y="522" on="1"/>
        <pt x="732" y="535" on="0"/>
        <pt x="788" y="564" on="0"/>
        <pt x="811" y="580" on="1"/>
        <pt x="817" y="569" on="1"/>
        <pt x="799" y="552" on="0"/>
        <pt x="735" y="509" on="0"/>
        <pt x="690" y="489" on="1"/>
        <pt x="688" y="452" on="0"/>
        <pt x="688" y="385" on="0"/>
        <pt x="688" y="354" on="1"/>
        <pt x="688" y="311" on="0"/>
        <pt x="691" y="245" on="0"/>
        <pt x="695" y="189" on="0"/>
        <pt x="698" y="137" on="0"/>
        <pt x="698" y="109" on="1"/>
        <pt x="698" y="95" on="0"/>
        <pt x="696" y="70" on="0"/>
        <pt x="694" y="59" on="1"/>
        <pt x="744" y="42" on="0"/>
        <pt x="841" y="10" on="0"/>
        <pt x="895" y="10" on="1"/>
        <pt x="984" y="10" on="0"/>
        <pt x="1120" y="75" on="0"/>
        <pt x="1220" y="186" on="0"/>
        <pt x="1286" y="333" on="0"/>
        <pt x="1326" y="496" on="0"/>
        <pt x="1343" y="666" on="0"/>
        <pt x="1343" y="745" on="1"/>
        <pt x="1343" y="905" on="0"/>
        <pt x="1259" y="1180" on="0"/>
        <pt x="1095" y="1382" on="0"/>
        <pt x="855" y="1497" on="0"/>
        <pt x="698" y="1497" on="1"/>
        <pt x="550" y="1497" on="0"/>
        <pt x="311" y="1419" on="0"/>
        <pt x="142" y="1270" on="0"/>
        <pt x="51" y="1052" on="0"/>
        <pt x="51" y="911" on="1"/>
        <pt x="51" y="824" on="0"/>
        <pt x="122" y="672" on="0"/>
        <pt x="240" y="560" on="0"/>
        <pt x="392" y="496" on="0"/>
        <pt x="473" y="496" on="1"/>
        <pt x="567" y="496" on="0"/>
        <pt x="629" y="508" on="1"/>
        <pt x="634" y="579" on="0"/>
        <pt x="651" y="740" on="0"/>
        <pt x="670" y="831" on="1"/>
        <pt x="672" y="844" on="0"/>
        <pt x="676" y="872" on="0"/>
        <pt x="676" y="874" on="1"/>
        <pt x="676" y="884" on="0"/>
        <pt x="675" y="905" on="0"/>
        <pt x="684" y="905" on="1"/>
        <pt x="689" y="905" on="0"/>
        <pt x="705" y="893" on="0"/>
        <pt x="719" y="876" on="0"/>
        <pt x="729" y="858" on="0"/>
      </contour>
      <contour>
        <pt x="549" y="-33" on="1"/>
        <pt x="590" y="-33" on="0"/>
        <pt x="627" y="7" on="0"/>
        <pt x="633" y="35" on="1"/>
        <pt x="611" y="43" on="0"/>
        <pt x="572" y="53" on="0"/>
        <pt x="553" y="53" on="1"/>
        <pt x="524" y="53" on="0"/>
        <pt x="477" y="33" on="0"/>
        <pt x="477" y="10" on="1"/>
        <pt x="477" y="-10" on="0"/>
        <pt x="520" y="-33" on="0"/>
      </contour>
    </TTGlyph>
    <TTGlyph name="Dcaron" xMin="0" yMin="-80" xMax="1409" yMax="1813">
      <component glyphName="D" x="0" y="0" flags="0x204"/>
      <component glyphName="caron" x="428" y="1098" flags="0x4"/>
    </TTGlyph>
    <TTGlyph name="Dcroat" xMin="0" yMin="-80" xMax="1409" yMax="1550">
      <contour>
        <pt x="627" y="350" on="1"/>
        <pt x="627" y="376" on="0"/>
        <pt x="627" y="435" on="0"/>
        <pt x="629" y="467" on="1"/>
        <pt x="595" y="456" on="0"/>
        <pt x="516" y="444" on="0"/>
        <pt x="473" y="444" on="1"/>
        <pt x="354" y="444" on="0"/>
        <pt x="177" y="522" on="0"/>
        <pt x="59" y="653" on="0"/>
        <pt x="0" y="825" on="0"/>
        <pt x="0" y="920" on="1"/>
        <pt x="0" y="1018" on="0"/>
        <pt x="58" y="1187" on="0"/>
        <pt x="159" y="1327" on="0"/>
        <pt x="298" y="1436" on="0"/>
        <pt x="458" y="1511" on="0"/>
        <pt x="633" y="1550" on="0"/>
        <pt x="721" y="1550" on="1"/>
        <pt x="877" y="1550" on="0"/>
        <pt x="1131" y="1454" on="0"/>
        <pt x="1311" y="1269" on="0"/>
        <pt x="1409" y="998" on="0"/>
        <pt x="1409" y="823" on="1"/>
        <pt x="1409" y="745" on="0"/>
        <pt x="1386" y="555" on="0"/>
        <pt x="1336" y="361" on="0"/>
        <pt x="1256" y="178" on="0"/>
        <pt x="1141" y="35" on="0"/>
        <pt x="991" y="-51" on="0"/>
        <pt x="895" y="-51" on="1"/>
        <pt x="832" y="-51" on="0"/>
        <pt x="726" y="-9" on="0"/>
        <pt x="680" y="12" on="1"/>
        <pt x="660" y="-31" on="0"/>
        <pt x="586" y="-80" on="0"/>
        <pt x="537" y="-80" on="1"/>
        <pt x="522" y="-80" on="0"/>
        <pt x="485" y="-70" on="0"/>
        <pt x="453" y="-50" on="0"/>
        <pt x="432" y="-19" on="0"/>
        <pt x="432" y="2" on="1"/>
        <pt x="432" y="23" on="0"/>
        <pt x="452" y="54" on="0"/>
        <pt x="485" y="75" on="0"/>
        <pt x="528" y="86" on="0"/>
        <pt x="551" y="86" on="1"/>
        <pt x="573" y="86" on="0"/>
        <pt x="615" y="79" on="0"/>
        <pt x="637" y="74" on="1"/>
        <pt x="637" y="92" on="1"/>
        <pt x="637" y="126" on="0"/>
        <pt x="631" y="211" on="0"/>
        <pt x="629" y="260" on="1"/>
        <pt x="575" y="257" on="0"/>
        <pt x="475" y="252" on="0"/>
        <pt x="430" y="252" on="1"/>
        <pt x="428" y="253" on="0"/>
        <pt x="427" y="254" on="1"/>
        <pt x="424" y="255" on="0"/>
        <pt x="424" y="260" on="1"/>
        <pt x="424" y="272" on="0"/>
        <pt x="437" y="295" on="0"/>
        <pt x="442" y="295" on="1"/>
        <pt x="476" y="295" on="0"/>
        <pt x="576" y="297" on="0"/>
        <pt x="627" y="297" on="1"/>
      </contour>
      <contour>
        <pt x="897" y="272" on="1"/>
        <pt x="847" y="272" on="0"/>
        <pt x="743" y="269" on="0"/>
        <pt x="690" y="266" on="1"/>
        <pt x="692" y="220" on="0"/>
        <pt x="698" y="149" on="0"/>
        <pt x="698" y="109" on="1"/>
        <pt x="698" y="95" on="0"/>
        <pt x="696" y="70" on="0"/>
        <pt x="694" y="59" on="1"/>
        <pt x="744" y="42" on="0"/>
        <pt x="841" y="10" on="0"/>
        <pt x="895" y="10" on="1"/>
        <pt x="984" y="10" on="0"/>
        <pt x="1120" y="75" on="0"/>
        <pt x="1220" y="186" on="0"/>
        <pt x="1286" y="333" on="0"/>
        <pt x="1326" y="496" on="0"/>
        <pt x="1343" y="666" on="0"/>
        <pt x="1343" y="745" on="1"/>
        <pt x="1343" y="905" on="0"/>
        <pt x="1259" y="1180" on="0"/>
        <pt x="1095" y="1382" on="0"/>
        <pt x="855" y="1497" on="0"/>
        <pt x="698" y="1497" on="1"/>
        <pt x="550" y="1497" on="0"/>
        <pt x="311" y="1419" on="0"/>
        <pt x="142" y="1270" on="0"/>
        <pt x="51" y="1052" on="0"/>
        <pt x="51" y="911" on="1"/>
        <pt x="51" y="824" on="0"/>
        <pt x="122" y="672" on="0"/>
        <pt x="240" y="560" on="0"/>
        <pt x="392" y="496" on="0"/>
        <pt x="473" y="496" on="1"/>
        <pt x="567" y="496" on="0"/>
        <pt x="629" y="508" on="1"/>
        <pt x="634" y="579" on="0"/>
        <pt x="651" y="740" on="0"/>
        <pt x="670" y="831" on="1"/>
        <pt x="672" y="844" on="0"/>
        <pt x="676" y="872" on="0"/>
        <pt x="676" y="874" on="1"/>
        <pt x="676" y="884" on="0"/>
        <pt x="675" y="905" on="0"/>
        <pt x="684" y="905" on="1"/>
        <pt x="689" y="905" on="0"/>
        <pt x="705" y="893" on="0"/>
        <pt x="719" y="876" on="0"/>
        <pt x="729" y="858" on="0"/>
        <pt x="729" y="852" on="1"/>
        <pt x="712" y="780" on="0"/>
        <pt x="695" y="607" on="0"/>
        <pt x="690" y="522" on="1"/>
        <pt x="732" y="535" on="0"/>
        <pt x="788" y="564" on="0"/>
        <pt x="811" y="580" on="1"/>
        <pt x="817" y="569" on="1"/>
        <pt x="799" y="552" on="0"/>
        <pt x="735" y="509" on="0"/>
        <pt x="690" y="489" on="1"/>
        <pt x="688" y="452" on="0"/>
        <pt x="688" y="385" on="0"/>
        <pt x="688" y="354" on="1"/>
        <pt x="688" y="299" on="1"/>
        <pt x="741" y="299" on="1"/>
        <pt x="745" y="299" on="0"/>
        <pt x="775" y="299" on="0"/>
        <pt x="814" y="299" on="0"/>
        <pt x="858" y="298" on="0"/>
        <pt x="894" y="297" on="0"/>
        <pt x="918" y="293" on="0"/>
        <pt x="918" y="291" on="1"/>
        <pt x="918" y="282" on="0"/>
        <pt x="903" y="272" on="0"/>
      </contour>
      <contour>
        <pt x="549" y="-33" on="1"/>
        <pt x="590" y="-33" on="0"/>
        <pt x="627" y="7" on="0"/>
        <pt x="633" y="35" on="1"/>
        <pt x="611" y="43" on="0"/>
        <pt x="572" y="53" on="0"/>
        <pt x="553" y="53" on="1"/>
        <pt x="524" y="53" on="0"/>
        <pt x="477" y="33" on="0"/>
        <pt x="477" y="10" on="1"/>
        <pt x="477" y="-10" on="0"/>
        <pt x="520" y="-33" on="0"/>
      </contour>
    </TTGlyph>
    <TTGlyph name="E" xMin="0" yMin="-72" xMax="1245" yMax="1509">
      <contour>
        <pt x="1137" y="299" on="1"/>
        <pt x="1126" y="282" on="0"/>
        <pt x="1079" y="215" on="0"/>
        <pt x="1011" y="132" on="0"/>
        <pt x="922" y="45" on="0"/>
        <pt x="816" y="-26" on="0"/>
        <pt x="696" y="-72" on="0"/>
        <pt x="631" y="-72" on="1"/>
        <pt x="529" y="-72" on="0"/>
        <pt x="412" y="43" on="0"/>
        <pt x="410" y="158" on="1"/>
        <pt x="312" y="171" on="0"/>
        <pt x="160" y="257" on="0"/>
        <pt x="55" y="390" on="0"/>
        <pt x="0" y="563" on="0"/>
        <pt x="0" y="664" on="1"/>
        <pt x="0" y="773" on="0"/>
        <pt x="73" y="983" on="0"/>
        <pt x="202" y="1171" on="0"/>
        <pt x="377" y="1329" on="0"/>
        <pt x="581" y="1444" on="0"/>
        <pt x="806" y="1509" on="0"/>
        <pt x="920" y="1509" on="1"/>
        <pt x="968" y="1509" on="0"/>
        <pt x="1081" y="1486" on="0"/>
        <pt x="1179" y="1431" on="0"/>
        <pt x="1245" y="1339" on="0"/>
        <pt x="1245" y="1270" on="1"/>
        <pt x="1245" y="1217" on="0"/>
        <pt x="1179" y="1087" on="0"/>
        <pt x="1110" y="1028" on="1"/>
        <pt x="1102" y="1036" on="1"/>
        <pt x="1150" y="1086" on="0"/>
        <pt x="1188" y="1188" on="0"/>
        <pt x="1188" y="1247" on="1"/>
        <pt x="1188" y="1302" on="0"/>
        <pt x="1131" y="1377" on="0"/>
        <pt x="1047" y="1423" on="0"/>
        <pt x="950" y="1442" on="0"/>
        <pt x="909" y="1442" on="1"/>
        <pt x="798" y="1442" on="0"/>
        <pt x="582" y="1387" on="0"/>
        <pt x="389" y="1287" on="0"/>
        <pt x="224" y="1147" on="0"/>
        <pt x="105" y="977" on="0"/>
        <pt x="37" y="781" on="0"/>
        <pt x="37" y="676" on="1"/>
        <pt x="37" y="593" on="0"/>
        <pt x="94" y="442" on="0"/>
        <pt x="196" y="320" on="0"/>
        <pt x="335" y="235" on="0"/>
        <pt x="416" y="219" on="1"/>
        <pt x="426" y="263" on="0"/>
        <pt x="471" y="341" on="0"/>
        <pt x="532" y="400" on="0"/>
        <pt x="607" y="434" on="0"/>
        <pt x="647" y="434" on="1"/>
        <pt x="691" y="434" on="0"/>
        <pt x="750" y="387" on="0"/>
        <pt x="750" y="336" on="1"/>
        <pt x="750" y="287" on="0"/>
        <pt x="702" y="217" on="0"/>
        <pt x="627" y="173" on="0"/>
        <pt x="537" y="152" on="0"/>
        <pt x="494" y="152" on="1"/>
        <pt x="481" y="152" on="0"/>
        <pt x="457" y="152" on="0"/>
        <pt x="446" y="154" on="1"/>
        <pt x="449" y="118" on="0"/>
        <pt x="483" y="59" on="0"/>
        <pt x="536" y="18" on="0"/>
        <pt x="604" y="-4" on="0"/>
        <pt x="641" y="-4" on="1"/>
        <pt x="774" y="-4" on="0"/>
        <pt x="1022" y="154" on="0"/>
        <pt x="1124" y="307" on="1"/>
      </contour>
      <contour>
        <pt x="643" y="381" on="1"/>
        <pt x="601" y="381" on="0"/>
        <pt x="535" y="355" on="0"/>
        <pt x="487" y="310" on="0"/>
        <pt x="457" y="249" on="0"/>
        <pt x="451" y="213" on="1"/>
        <pt x="465" y="211" on="0"/>
        <pt x="492" y="211" on="0"/>
        <pt x="506" y="211" on="1"/>
        <pt x="540" y="211" on="0"/>
        <pt x="616" y="224" on="0"/>
        <pt x="678" y="253" on="0"/>
        <pt x="719" y="296" on="0"/>
        <pt x="719" y="326" on="1"/>
        <pt x="719" y="341" on="0"/>
        <pt x="705" y="361" on="0"/>
        <pt x="683" y="375" on="0"/>
        <pt x="656" y="381" on="0"/>
      </contour>
    </TTGlyph>
    <TTGlyph name="Eacute" xMin="0" yMin="-72" xMax="1245" yMax="1786">
      <component glyphName="E" x="0" y="0" flags="0x204"/>
      <component glyphName="acute" x="637" y="1059" flags="0x4"/>
    </TTGlyph>
    <TTGlyph name="Ebreve" xMin="0" yMin="-72" xMax="1245" yMax="1773">
      <component glyphName="E" x="0" y="0" flags="0x204"/>
      <component glyphName="breve" x="571" y="1059" flags="0x4"/>
    </TTGlyph>
    <TTGlyph name="Ecaron" xMin="0" yMin="-72" xMax="1245" yMax="1774">
      <component glyphName="E" x="0" y="0" flags="0x204"/>
      <component glyphName="caron" x="575" y="1059" flags="0x4"/>
    </TTGlyph>
    <TTGlyph name="Ecircumflex" xMin="0" yMin="-72" xMax="1245" yMax="1776">
      <component glyphName="E" x="0" y="0" flags="0x204"/>
      <component glyphName="circumflex" x="571" y="1059" flags="0x4"/>
    </TTGlyph>
    <TTGlyph name="Edieresis" xMin="0" yMin="-72" xMax="1245" yMax="1700">
      <component glyphName="E" x="0" y="0" flags="0x204"/>
      <component glyphName="dieresis" x="561" y="1059" flags="0x4"/>
    </TTGlyph>
    <TTGlyph name="Edotaccent" xMin="0" yMin="-72" xMax="1245" yMax="1700">
      <component glyphName="E" x="0" y="0" flags="0x204"/>
      <component glyphName="dotaccent" x="561" y="1059" flags="0x4"/>
    </TTGlyph>
    <TTGlyph name="Egrave" xMin="0" yMin="-72" xMax="1245" yMax="1798">
      <component glyphName="E" x="0" y="0" flags="0x204"/>
      <component glyphName="grave" x="524" y="1059" flags="0x4"/>
    </TTGlyph>
    <TTGlyph name="Emacron" xMin="0" yMin="-72" xMax="1245" yMax="1684">
      <component glyphName="E" x="0" y="0" flags="0x204"/>
      <component glyphName="macron" x="561" y="1059" flags="0x4"/>
    </TTGlyph>
    <TTGlyph name="Eng" xMin="-133" yMin="-422" xMax="1950" yMax="1651">
      <contour>
        <pt x="954" y="-57" on="1"/>
        <pt x="954" y="-1" on="0"/>
        <pt x="941" y="154" on="0"/>
        <pt x="913" y="333" on="0"/>
        <pt x="871" y="524" on="0"/>
        <pt x="813" y="707" on="0"/>
        <pt x="741" y="872" on="0"/>
        <pt x="696" y="934" on="1"/>
        <pt x="676" y="863" on="0"/>
        <pt x="622" y="688" on="0"/>
        <pt x="557" y="498" on="0"/>
        <pt x="480" y="303" on="0"/>
        <pt x="395" y="121" on="0"/>
        <pt x="303" y="-38" on="0"/>
        <pt x="206" y="-156" on="0"/>
        <pt x="105" y="-225" on="0"/>
        <pt x="53" y="-225" on="1"/>
        <pt x="5" y="-225" on="0"/>
        <pt x="-62" y="-189" on="0"/>
        <pt x="-106" y="-142" on="0"/>
        <pt x="-129" y="-98" on="0"/>
        <pt x="-133" y="-90" on="1"/>
        <pt x="-125" y="-84" on="1"/>
        <pt x="-116" y="-94" on="0"/>
        <pt x="-89" y="-119" on="0"/>
        <pt x="-47" y="-141" on="0"/>
        <pt x="13" y="-156" on="0"/>
        <pt x="55" y="-156" on="1"/>
        <pt x="110" y="-156" on="0"/>
        <pt x="214" y="-86" on="0"/>
        <pt x="311" y="35" on="0"/>
        <pt x="399" y="196" on="0"/>
        <pt x="477" y="377" on="0"/>
        <pt x="546" y="568" on="0"/>
        <pt x="604" y="750" on="0"/>
        <pt x="649" y="911" on="0"/>
        <pt x="666" y="971" on="1"/>
        <pt x="624" y="1019" on="0"/>
        <pt x="529" y="1073" on="0"/>
        <pt x="475" y="1073" on="1"/>
        <pt x="425" y="1073" on="0"/>
        <pt x="347" y="1041" on="0"/>
        <pt x="294" y="988" on="0"/>
        <pt x="266" y="918" on="0"/>
        <pt x="266" y="881" on="1"/>
        <pt x="266" y="841" on="0"/>
        <pt x="290" y="778" on="0"/>
        <pt x="324" y="731" on="0"/>
        <pt x="362" y="699" on="0"/>
        <pt x="377" y="690" on="1"/>
        <pt x="369" y="680" on="1"/>
        <pt x="359" y="685" on="0"/>
        <pt x="313" y="719" on="0"/>
        <pt x="265" y="774" on="0"/>
        <pt x="229" y="848" on="0"/>
        <pt x="229" y="893" on="1"/>
        <pt x="229" y="954" on="0"/>
        <pt x="272" y="1043" on="0"/>
        <pt x="341" y="1101" on="0"/>
        <pt x="428" y="1130" on="0"/>
        <pt x="473" y="1130" on="1"/>
        <pt x="536" y="1130" on="0"/>
        <pt x="641" y="1082" on="0"/>
        <pt x="686" y="1040" on="1"/>
        <pt x="688" y="1050" on="0"/>
        <pt x="694" y="1069" on="0"/>
        <pt x="696" y="1075" on="1"/>
        <pt x="701" y="1090" on="0"/>
        <pt x="715" y="1105" on="0"/>
        <pt x="729" y="1111" on="0"/>
        <pt x="739" y="1112" on="0"/>
        <pt x="741" y="1112" on="1"/>
        <pt x="738" y="1095" on="0"/>
        <pt x="726" y="1044" on="0"/>
        <pt x="717" y="1010" on="1"/>
        <pt x="764" y="956" on="0"/>
        <pt x="838" y="811" on="0"/>
        <pt x="894" y="648" on="0"/>
        <pt x="934" y="475" on="0"/>
        <pt x="961" y="311" on="0"/>
        <pt x="977" y="166" on="0"/>
        <pt x="981" y="111" on="1"/>
        <pt x="989" y="195" on="0"/>
        <pt x="1015" y="417" on="0"/>
        <pt x="1053" y="666" on="0"/>
        <pt x="1108" y="926" on="0"/>
        <pt x="1184" y="1173" on="0"/>
        <pt x="1284" y="1392" on="0"/>
        <pt x="1412" y="1556" on="0"/>
        <pt x="1571" y="1651" on="0"/>
        <pt x="1669" y="1651" on="1"/>
        <pt x="1716" y="1651" on="0"/>
        <pt x="1792" y="1625" on="0"/>
        <pt x="1851" y="1583" on="0"/>
        <pt x="1894" y="1531" on="0"/>
        <pt x="1925" y="1478" on="0"/>
        <pt x="1945" y="1431" on="0"/>
        <pt x="1950" y="1415" on="1"/>
        <pt x="1942" y="1411" on="1"/>
        <pt x="1922" y="1441" on="0"/>
        <pt x="1878" y="1500" on="0"/>
        <pt x="1816" y="1548" on="0"/>
        <pt x="1732" y="1577" on="0"/>
        <pt x="1673" y="1577" on="1"/>
        <pt x="1568" y="1577" on="0"/>
        <pt x="1402" y="1475" on="0"/>
        <pt x="1274" y="1300" on="0"/>
        <pt x="1180" y="1069" on="0"/>
        <pt x="1111" y="810" on="0"/>
        <pt x="1066" y="540" on="0"/>
        <pt x="1035" y="287" on="0"/>
        <pt x="1016" y="68" on="0"/>
        <pt x="1008" y="-10" on="1"/>
        <pt x="999" y="-97" on="0"/>
        <pt x="958" y="-248" on="0"/>
        <pt x="885" y="-359" on="0"/>
        <pt x="777" y="-422" on="0"/>
        <pt x="702" y="-422" on="1"/>
        <pt x="665" y="-422" on="0"/>
        <pt x="584" y="-398" on="0"/>
        <pt x="516" y="-350" on="0"/>
        <pt x="471" y="-281" on="0"/>
        <pt x="471" y="-236" on="1"/>
        <pt x="471" y="-216" on="0"/>
        <pt x="507" y="-187" on="0"/>
        <pt x="528" y="-182" on="1"/>
        <pt x="533" y="-182" on="0"/>
        <pt x="537" y="-189" on="0"/>
        <pt x="537" y="-193" on="1"/>
        <pt x="537" y="-198" on="0"/>
        <pt x="532" y="-208" on="0"/>
        <pt x="532" y="-213" on="1"/>
        <pt x="532" y="-217" on="1"/>
        <pt x="541" y="-245" on="0"/>
        <pt x="573" y="-300" on="0"/>
        <pt x="618" y="-345" on="0"/>
        <pt x="680" y="-373" on="0"/>
        <pt x="719" y="-373" on="1"/>
        <pt x="773" y="-373" on="0"/>
        <pt x="860" y="-320" on="0"/>
        <pt x="921" y="-232" on="0"/>
        <pt x="954" y="-118" on="0"/>
      </contour>
    </TTGlyph>
    <TTGlyph name="Eogonek" xMin="0" yMin="-250" xMax="1245" yMax="1509">
      <contour>
        <pt x="1137" y="299" on="1"/>
        <pt x="1125" y="281" on="0"/>
        <pt x="1073" y="207" on="0"/>
        <pt x="996" y="119" on="0"/>
        <pt x="897" y="27" on="0"/>
        <pt x="840" y="-8" on="1"/>
        <pt x="823" y="-18" on="0"/>
        <pt x="791" y="-52" on="0"/>
        <pt x="767" y="-92" on="0"/>
        <pt x="752" y="-136" on="0"/>
        <pt x="752" y="-156" on="1"/>
        <pt x="752" y="-173" on="0"/>
        <pt x="781" y="-205" on="0"/>
        <pt x="807" y="-205" on="1"/>
        <pt x="839" y="-205" on="0"/>
        <pt x="904" y="-181" on="0"/>
        <pt x="932" y="-164" on="1"/>
        <pt x="933" y="-159" on="0"/>
        <pt x="944" y="-161" on="0"/>
        <pt x="953" y="-170" on="0"/>
        <pt x="954" y="-184" on="0"/>
        <pt x="946" y="-190" on="1"/>
        <pt x="908" y="-221" on="0"/>
        <pt x="831" y="-250" on="0"/>
        <pt x="797" y="-250" on="1"/>
        <pt x="782" y="-250" on="0"/>
        <pt x="750" y="-244" on="0"/>
        <pt x="724" y="-226" on="0"/>
        <pt x="707" y="-196" on="0"/>
        <pt x="707" y="-172" on="1"/>
        <pt x="707" y="-140" on="0"/>
        <pt x="743" y="-75" on="0"/>
        <pt x="774" y="-41" on="1"/>
        <pt x="740" y="-55" on="0"/>
        <pt x="668" y="-72" on="0"/>
        <pt x="631" y="-72" on="1"/>
        <pt x="529" y="-72" on="0"/>
        <pt x="412" y="43" on="0"/>
        <pt x="410" y="158" on="1"/>
        <pt x="312" y="171" on="0"/>
        <pt x="160" y="257" on="0"/>
        <pt x="55" y="390" on="0"/>
        <pt x="0" y="563" on="0"/>
        <pt x="0" y="664" on="1"/>
        <pt x="0" y="773" on="0"/>
        <pt x="73" y="983" on="0"/>
        <pt x="202" y="1171" on="0"/>
        <pt x="377" y="1329" on="0"/>
        <pt x="581" y="1444" on="0"/>
        <pt x="806" y="1509" on="0"/>
        <pt x="920" y="1509" on="1"/>
        <pt x="968" y="1509" on="0"/>
        <pt x="1081" y="1486" on="0"/>
        <pt x="1179" y="1431" on="0"/>
        <pt x="1245" y="1339" on="0"/>
        <pt x="1245" y="1270" on="1"/>
        <pt x="1245" y="1217" on="0"/>
        <pt x="1179" y="1087" on="0"/>
        <pt x="1110" y="1028" on="1"/>
        <pt x="1102" y="1036" on="1"/>
        <pt x="1150" y="1086" on="0"/>
        <pt x="1188" y="1188" on="0"/>
        <pt x="1188" y="1247" on="1"/>
        <pt x="1188" y="1302" on="0"/>
        <pt x="1131" y="1377" on="0"/>
        <pt x="1047" y="1423" on="0"/>
        <pt x="950" y="1442" on="0"/>
        <pt x="909" y="1442" on="1"/>
        <pt x="798" y="1442" on="0"/>
        <pt x="582" y="1387" on="0"/>
        <pt x="389" y="1287" on="0"/>
        <pt x="224" y="1147" on="0"/>
        <pt x="105" y="977" on="0"/>
        <pt x="37" y="781" on="0"/>
        <pt x="37" y="676" on="1"/>
        <pt x="37" y="593" on="0"/>
        <pt x="94" y="442" on="0"/>
        <pt x="196" y="320" on="0"/>
        <pt x="335" y="235" on="0"/>
        <pt x="416" y="219" on="1"/>
        <pt x="426" y="263" on="0"/>
        <pt x="471" y="341" on="0"/>
        <pt x="532" y="400" on="0"/>
        <pt x="607" y="434" on="0"/>
        <pt x="647" y="434" on="1"/>
        <pt x="691" y="434" on="0"/>
        <pt x="750" y="387" on="0"/>
        <pt x="750" y="336" on="1"/>
        <pt x="750" y="287" on="0"/>
        <pt x="702" y="217" on="0"/>
        <pt x="627" y="173" on="0"/>
        <pt x="537" y="152" on="0"/>
        <pt x="494" y="152" on="1"/>
        <pt x="481" y="152" on="0"/>
        <pt x="457" y="152" on="0"/>
        <pt x="446" y="154" on="1"/>
        <pt x="449" y="118" on="0"/>
        <pt x="483" y="59" on="0"/>
        <pt x="536" y="18" on="0"/>
        <pt x="604" y="-4" on="0"/>
        <pt x="641" y="-4" on="1"/>
        <pt x="774" y="-4" on="0"/>
        <pt x="1022" y="154" on="0"/>
        <pt x="1124" y="307" on="1"/>
      </contour>
      <contour>
        <pt x="643" y="381" on="1"/>
        <pt x="601" y="381" on="0"/>
        <pt x="535" y="355" on="0"/>
        <pt x="487" y="310" on="0"/>
        <pt x="457" y="249" on="0"/>
        <pt x="451" y="213" on="1"/>
        <pt x="465" y="211" on="0"/>
        <pt x="492" y="211" on="0"/>
        <pt x="506" y="211" on="1"/>
        <pt x="540" y="211" on="0"/>
        <pt x="616" y="224" on="0"/>
        <pt x="678" y="253" on="0"/>
        <pt x="719" y="296" on="0"/>
        <pt x="719" y="326" on="1"/>
        <pt x="719" y="341" on="0"/>
        <pt x="705" y="361" on="0"/>
        <pt x="683" y="375" on="0"/>
        <pt x="656" y="381" on="0"/>
      </contour>
    </TTGlyph>
    <TTGlyph name="Eth" xMin="0" yMin="-80" xMax="1409" yMax="1550">
      <contour>
        <pt x="627" y="350" on="1"/>
        <pt x="627" y="376" on="0"/>
        <pt x="627" y="435" on="0"/>
        <pt x="629" y="467" on="1"/>
        <pt x="595" y="456" on="0"/>
        <pt x="516" y="444" on="0"/>
        <pt x="473" y="444" on="1"/>
        <pt x="354" y="444" on="0"/>
        <pt x="177" y="522" on="0"/>
        <pt x="59" y="653" on="0"/>
        <pt x="0" y="825" on="0"/>
        <pt x="0" y="920" on="1"/>
        <pt x="0" y="1018" on="0"/>
        <pt x="58" y="1187" on="0"/>
        <pt x="159" y="1327" on="0"/>
        <pt x="298" y="1436" on="0"/>
        <pt x="458" y="1511" on="0"/>
        <pt x="633" y="1550" on="0"/>
        <pt x="721" y="1550" on="1"/>
        <pt x="877" y="1550" on="0"/>
        <pt x="1131" y="1454" on="0"/>
        <pt x="1311" y="1269" on="0"/>
        <pt x="1409" y="998" on="0"/>
        <pt x="1409" y="823" on="1"/>
        <pt x="1409" y="745" on="0"/>
        <pt x="1386" y="555" on="0"/>
        <pt x="1336" y="361" on="0"/>
        <pt x="1256" y="178" on="0"/>
        <pt x="1141" y="35" on="0"/>
        <pt x="991" y="-51" on="0"/>
        <pt x="895" y="-51" on="1"/>
        <pt x="832" y="-51" on="0"/>
        <pt x="726" y="-9" on="0"/>
        <pt x="680" y="12" on="1"/>
        <pt x="660" y="-31" on="0"/>
        <pt x="586" y="-80" on="0"/>
        <pt x="537" y="-80" on="1"/>
        <pt x="522" y="-80" on="0"/>
        <pt x="485" y="-70" on="0"/>
        <pt x="453" y="-50" on="0"/>
        <pt x="432" y="-19" on="0"/>
        <pt x="432" y="2" on="1"/>
        <pt x="432" y="23" on="0"/>
        <pt x="452" y="54" on="0"/>
        <pt x="485" y="75" on="0"/>
        <pt x="528" y="86" on="0"/>
        <pt x="551" y="86" on="1"/>
        <pt x="573" y="86" on="0"/>
        <pt x="615" y="79" on="0"/>
        <pt x="637" y="74" on="1"/>
        <pt x="637" y="92" on="1"/>
        <pt x="637" y="126" on="0"/>
        <pt x="631" y="211" on="0"/>
        <pt x="629" y="260" on="1"/>
        <pt x="575" y="257" on="0"/>
        <pt x="475" y="252" on="0"/>
        <pt x="430" y="252" on="1"/>
        <pt x="428" y="253" on="0"/>
        <pt x="427" y="254" on="1"/>
        <pt x="424" y="255" on="0"/>
        <pt x="424" y="260" on="1"/>
        <pt x="424" y="272" on="0"/>
        <pt x="437" y="295" on="0"/>
        <pt x="442" y="295" on="1"/>
        <pt x="476" y="295" on="0"/>
        <pt x="576" y="297" on="0"/>
        <pt x="627" y="297" on="1"/>
      </contour>
      <contour>
        <pt x="897" y="272" on="1"/>
        <pt x="847" y="272" on="0"/>
        <pt x="743" y="269" on="0"/>
        <pt x="690" y="266" on="1"/>
        <pt x="692" y="220" on="0"/>
        <pt x="698" y="149" on="0"/>
        <pt x="698" y="109" on="1"/>
        <pt x="698" y="95" on="0"/>
        <pt x="696" y="70" on="0"/>
        <pt x="694" y="59" on="1"/>
        <pt x="744" y="42" on="0"/>
        <pt x="841" y="10" on="0"/>
        <pt x="895" y="10" on="1"/>
        <pt x="984" y="10" on="0"/>
        <pt x="1120" y="75" on="0"/>
        <pt x="1220" y="186" on="0"/>
        <pt x="1286" y="333" on="0"/>
        <pt x="1326" y="496" on="0"/>
        <pt x="1343" y="666" on="0"/>
        <pt x="1343" y="745" on="1"/>
        <pt x="1343" y="905" on="0"/>
        <pt x="1259" y="1180" on="0"/>
        <pt x="1095" y="1382" on="0"/>
        <pt x="855" y="1497" on="0"/>
        <pt x="698" y="1497" on="1"/>
        <pt x="550" y="1497" on="0"/>
        <pt x="311" y="1419" on="0"/>
        <pt x="142" y="1270" on="0"/>
        <pt x="51" y="1052" on="0"/>
        <pt x="51" y="911" on="1"/>
        <pt x="51" y="824" on="0"/>
        <pt x="122" y="672" on="0"/>
        <pt x="240" y="560" on="0"/>
        <pt x="392" y="496" on="0"/>
        <pt x="473" y="496" on="1"/>
        <pt x="567" y="496" on="0"/>
        <pt x="629" y="508" on="1"/>
        <pt x="634" y="579" on="0"/>
        <pt x="651" y="740" on="0"/>
        <pt x="670" y="831" on="1"/>
        <pt x="672" y="844" on="0"/>
        <pt x="676" y="872" on="0"/>
        <pt x="676" y="874" on="1"/>
        <pt x="676" y="884" on="0"/>
        <pt x="675" y="905" on="0"/>
        <pt x="684" y="905" on="1"/>
        <pt x="689" y="905" on="0"/>
        <pt x="705" y="893" on="0"/>
        <pt x="719" y="876" on="0"/>
        <pt x="729" y="858" on="0"/>
        <pt x="729" y="852" on="1"/>
        <pt x="712" y="780" on="0"/>
        <pt x="695" y="607" on="0"/>
        <pt x="690" y="522" on="1"/>
        <pt x="732" y="535" on="0"/>
        <pt x="788" y="564" on="0"/>
        <pt x="811" y="580" on="1"/>
        <pt x="817" y="569" on="1"/>
        <pt x="799" y="552" on="0"/>
        <pt x="735" y="509" on="0"/>
        <pt x="690" y="489" on="1"/>
        <pt x="688" y="452" on="0"/>
        <pt x="688" y="385" on="0"/>
        <pt x="688" y="354" on="1"/>
        <pt x="688" y="299" on="1"/>
        <pt x="741" y="299" on="1"/>
        <pt x="745" y="299" on="0"/>
        <pt x="775" y="299" on="0"/>
        <pt x="814" y="299" on="0"/>
        <pt x="858" y="298" on="0"/>
        <pt x="894" y="297" on="0"/>
        <pt x="918" y="293" on="0"/>
        <pt x="918" y="291" on="1"/>
        <pt x="918" y="282" on="0"/>
        <pt x="903" y="272" on="0"/>
      </contour>
      <contour>
        <pt x="549" y="-33" on="1"/>
        <pt x="590" y="-33" on="0"/>
        <pt x="627" y="7" on="0"/>
        <pt x="633" y="35" on="1"/>
        <pt x="611" y="43" on="0"/>
        <pt x="572" y="53" on="0"/>
        <pt x="553" y="53" on="1"/>
        <pt x="524" y="53" on="0"/>
        <pt x="477" y="33" on="0"/>
        <pt x="477" y="10" on="1"/>
        <pt x="477" y="-10" on="0"/>
        <pt x="520" y="-33" on="0"/>
      </contour>
    </TTGlyph>
    <TTGlyph name="Euro" xMin="0" yMin="156" xMax="854" yMax="1087">
      <contour>
        <pt x="184" y="512" on="1"/>
        <pt x="195" y="454" on="0"/>
        <pt x="250" y="346" on="0"/>
        <pt x="338" y="262" on="0"/>
        <pt x="459" y="211" on="0"/>
        <pt x="537" y="211" on="1"/>
        <pt x="609" y="211" on="0"/>
        <pt x="712" y="255" on="0"/>
        <pt x="783" y="325" on="0"/>
        <pt x="825" y="410" on="0"/>
        <pt x="836" y="451" on="1"/>
        <pt x="852" y="446" on="1"/>
        <pt x="848" y="429" on="0"/>
        <pt x="830" y="372" on="0"/>
        <pt x="797" y="308" on="0"/>
        <pt x="746" y="242" on="0"/>
        <pt x="674" y="189" on="0"/>
        <pt x="578" y="156" on="0"/>
        <pt x="516" y="156" on="1"/>
        <pt x="446" y="156" on="0"/>
        <pt x="314" y="204" on="0"/>
        <pt x="207" y="295" on="0"/>
        <pt x="137" y="426" on="0"/>
        <pt x="129" y="510" on="1"/>
        <pt x="8" y="510" on="1"/>
        <pt x="4" y="512" on="1"/>
        <pt x="0" y="514" on="0"/>
        <pt x="0" y="518" on="1"/>
        <pt x="0" y="531" on="0"/>
        <pt x="18" y="561" on="0"/>
        <pt x="25" y="561" on="1"/>
        <pt x="127" y="561" on="1"/>
        <pt x="127" y="586" on="0"/>
        <pt x="132" y="632" on="0"/>
        <pt x="135" y="655" on="1"/>
        <pt x="12" y="655" on="1"/>
        <pt x="8" y="657" on="1"/>
        <pt x="4" y="659" on="0"/>
        <pt x="4" y="664" on="1"/>
        <pt x="4" y="670" on="0"/>
        <pt x="10" y="685" on="0"/>
        <pt x="19" y="698" on="0"/>
        <pt x="28" y="707" on="0"/>
        <pt x="31" y="707" on="1"/>
        <pt x="147" y="707" on="1"/>
        <pt x="168" y="785" on="0"/>
        <pt x="249" y="923" on="0"/>
        <pt x="363" y="1027" on="0"/>
        <pt x="505" y="1087" on="0"/>
        <pt x="586" y="1087" on="1"/>
        <pt x="641" y="1087" on="0"/>
        <pt x="739" y="1051" on="0"/>
        <pt x="812" y="990" on="0"/>
        <pt x="854" y="911" on="0"/>
        <pt x="854" y="868" on="1"/>
        <pt x="854" y="840" on="0"/>
        <pt x="834" y="785" on="0"/>
        <pt x="806" y="738" on="0"/>
        <pt x="775" y="700" on="0"/>
        <pt x="764" y="688" on="1"/>
        <pt x="752" y="696" on="1"/>
        <pt x="773" y="719" on="0"/>
        <pt x="805" y="789" on="0"/>
        <pt x="805" y="831" on="1"/>
        <pt x="805" y="868" on="0"/>
        <pt x="768" y="939" on="0"/>
        <pt x="704" y="994" on="0"/>
        <pt x="620" y="1028" on="0"/>
        <pt x="573" y="1028" on="1"/>
        <pt x="486" y="1028" on="0"/>
        <pt x="353" y="978" on="0"/>
        <pt x="258" y="891" on="0"/>
        <pt x="199" y="775" on="0"/>
        <pt x="186" y="709" on="1"/>
        <pt x="225" y="709" on="0"/>
        <pt x="300" y="711" on="0"/>
        <pt x="342" y="711" on="1"/>
        <pt x="351" y="711" on="0"/>
        <pt x="404" y="711" on="0"/>
        <pt x="461" y="710" on="0"/>
        <pt x="506" y="706" on="0"/>
        <pt x="506" y="702" on="1"/>
        <pt x="506" y="697" on="0"/>
        <pt x="500" y="682" on="0"/>
        <pt x="491" y="666" on="0"/>
        <pt x="481" y="655" on="0"/>
        <pt x="477" y="655" on="1"/>
        <pt x="437" y="658" on="0"/>
        <pt x="356" y="657" on="0"/>
        <pt x="315" y="657" on="1"/>
        <pt x="278" y="657" on="0"/>
        <pt x="212" y="655" on="0"/>
        <pt x="178" y="655" on="1"/>
        <pt x="176" y="638" on="0"/>
        <pt x="176" y="607" on="0"/>
        <pt x="176" y="590" on="1"/>
        <pt x="176" y="563" on="1"/>
        <pt x="207" y="565" on="0"/>
        <pt x="269" y="565" on="0"/>
        <pt x="303" y="565" on="1"/>
        <pt x="311" y="565" on="0"/>
        <pt x="359" y="565" on="0"/>
        <pt x="411" y="564" on="0"/>
        <pt x="451" y="561" on="0"/>
        <pt x="451" y="557" on="1"/>
        <pt x="451" y="552" on="0"/>
        <pt x="445" y="537" on="0"/>
        <pt x="437" y="521" on="0"/>
        <pt x="428" y="510" on="0"/>
        <pt x="424" y="510" on="1"/>
        <pt x="389" y="513" on="0"/>
        <pt x="316" y="512" on="0"/>
        <pt x="279" y="512" on="1"/>
      </contour>
    </TTGlyph>
    <TTGlyph name="F" xMin="0" yMin="-59" xMax="1354" yMax="1466">
      <contour>
        <pt x="838" y="389" on="1"/>
        <pt x="843" y="389" on="0"/>
        <pt x="892" y="389" on="0"/>
        <pt x="946" y="386" on="0"/>
        <pt x="989" y="377" on="0"/>
        <pt x="989" y="369" on="1"/>
        <pt x="989" y="342" on="0"/>
        <pt x="967" y="342" on="1"/>
        <pt x="926" y="344" on="0"/>
        <pt x="854" y="344" on="0"/>
        <pt x="819" y="344" on="1"/>
        <pt x="817" y="340" on="0"/>
        <pt x="817" y="334" on="1"/>
        <pt x="802" y="261" on="0"/>
        <pt x="764" y="120" on="0"/>
        <pt x="703" y="9" on="0"/>
        <pt x="612" y="-59" on="0"/>
        <pt x="545" y="-59" on="1"/>
        <pt x="495" y="-59" on="0"/>
        <pt x="419" y="-20" on="0"/>
        <pt x="363" y="38" on="0"/>
        <pt x="327" y="106" on="0"/>
        <pt x="317" y="135" on="1"/>
        <pt x="330" y="141" on="1"/>
        <pt x="348" y="98" on="0"/>
        <pt x="390" y="40" on="0"/>
        <pt x="436" y="5" on="0"/>
        <pt x="485" y="-10" on="0"/>
        <pt x="510" y="-10" on="1"/>
        <pt x="564" y="-10" on="0"/>
        <pt x="638" y="26" on="0"/>
        <pt x="693" y="109" on="0"/>
        <pt x="734" y="244" on="0"/>
        <pt x="754" y="344" on="1"/>
        <pt x="688" y="344" on="0"/>
        <pt x="555" y="336" on="0"/>
        <pt x="479" y="328" on="1"/>
        <pt x="467" y="328" on="0"/>
        <pt x="437" y="322" on="0"/>
        <pt x="434" y="322" on="1"/>
        <pt x="424" y="322" on="0"/>
        <pt x="424" y="334" on="1"/>
        <pt x="424" y="346" on="0"/>
        <pt x="453" y="377" on="0"/>
        <pt x="479" y="377" on="1"/>
        <pt x="495" y="377" on="0"/>
        <pt x="551" y="380" on="0"/>
        <pt x="624" y="383" on="0"/>
        <pt x="713" y="386" on="0"/>
        <pt x="762" y="387" on="1"/>
        <pt x="773" y="441" on="0"/>
        <pt x="795" y="562" on="0"/>
        <pt x="807" y="633" on="1"/>
        <pt x="833" y="786" on="0"/>
        <pt x="908" y="1072" on="0"/>
        <pt x="961" y="1188" on="1"/>
        <pt x="932" y="1188" on="0"/>
        <pt x="852" y="1193" on="0"/>
        <pt x="762" y="1199" on="0"/>
        <pt x="666" y="1204" on="0"/>
        <pt x="621" y="1204" on="1"/>
        <pt x="499" y="1204" on="0"/>
        <pt x="283" y="1139" on="0"/>
        <pt x="120" y="1007" on="0"/>
        <pt x="25" y="808" on="0"/>
        <pt x="25" y="674" on="1"/>
        <pt x="25" y="619" on="0"/>
        <pt x="38" y="535" on="0"/>
        <pt x="58" y="471" on="0"/>
        <pt x="84" y="427" on="0"/>
        <pt x="96" y="412" on="1"/>
        <pt x="84" y="399" on="1"/>
        <pt x="71" y="414" on="0"/>
        <pt x="41" y="464" on="0"/>
        <pt x="16" y="536" on="0"/>
        <pt x="0" y="629" on="0"/>
        <pt x="0" y="688" on="1"/>
        <pt x="0" y="816" on="0"/>
        <pt x="96" y="1030" on="0"/>
        <pt x="262" y="1183" on="0"/>
        <pt x="486" y="1268" on="0"/>
        <pt x="614" y="1268" on="1"/>
        <pt x="666" y="1268" on="0"/>
        <pt x="768" y="1261" on="0"/>
        <pt x="859" y="1252" on="0"/>
        <pt x="937" y="1245" on="0"/>
        <pt x="965" y="1245" on="1"/>
        <pt x="989" y="1245" on="1"/>
        <pt x="1015" y="1295" on="0"/>
        <pt x="1074" y="1376" on="0"/>
        <pt x="1139" y="1434" on="0"/>
        <pt x="1211" y="1466" on="0"/>
        <pt x="1251" y="1466" on="1"/>
        <pt x="1308" y="1466" on="0"/>
        <pt x="1354" y="1420" on="0"/>
        <pt x="1354" y="1391" on="1"/>
        <pt x="1354" y="1357" on="0"/>
        <pt x="1302" y="1288" on="0"/>
        <pt x="1209" y="1231" on="0"/>
        <pt x="1080" y="1192" on="0"/>
        <pt x="1004" y="1188" on="1"/>
        <pt x="972" y="1109" on="0"/>
        <pt x="923" y="913" on="0"/>
        <pt x="882" y="702" on="0"/>
        <pt x="846" y="487" on="0"/>
        <pt x="827" y="389" on="1"/>
      </contour>
      <contour>
        <pt x="1223" y="1411" on="1"/>
        <pt x="1160" y="1411" on="0"/>
        <pt x="1065" y="1321" on="0"/>
        <pt x="1028" y="1245" on="1"/>
        <pt x="1112" y="1249" on="0"/>
        <pt x="1217" y="1278" on="0"/>
        <pt x="1276" y="1315" on="0"/>
        <pt x="1296" y="1355" on="0"/>
        <pt x="1296" y="1370" on="1"/>
        <pt x="1296" y="1390" on="0"/>
        <pt x="1255" y="1411" on="0"/>
      </contour>
    </TTGlyph>
    <TTGlyph name="G" xMin="61" yMin="-422" xMax="1405" yMax="1522">
      <contour>
        <pt x="494" y="-354" on="1"/>
        <pt x="521" y="-353" on="0"/>
        <pt x="565" y="-327" on="0"/>
        <pt x="598" y="-273" on="0"/>
        <pt x="616" y="-188" on="0"/>
        <pt x="616" y="-129" on="1"/>
        <pt x="616" y="-92" on="0"/>
        <pt x="606" y="23" on="0"/>
        <pt x="600" y="94" on="1"/>
        <pt x="558" y="51" on="0"/>
        <pt x="447" y="0" on="0"/>
        <pt x="373" y="0" on="1"/>
        <pt x="304" y="0" on="0"/>
        <pt x="189" y="43" on="0"/>
        <pt x="106" y="133" on="0"/>
        <pt x="61" y="270" on="0"/>
        <pt x="61" y="365" on="1"/>
        <pt x="61" y="465" on="0"/>
        <pt x="119" y="672" on="0"/>
        <pt x="222" y="872" on="0"/>
        <pt x="362" y="1061" on="0"/>
        <pt x="525" y="1228" on="0"/>
        <pt x="704" y="1367" on="0"/>
        <pt x="885" y="1467" on="0"/>
        <pt x="1061" y="1522" on="0"/>
        <pt x="1139" y="1522" on="1"/>
        <pt x="1182" y="1522" on="0"/>
        <pt x="1276" y="1499" on="0"/>
        <pt x="1354" y="1441" on="0"/>
        <pt x="1405" y="1341" on="0"/>
        <pt x="1405" y="1264" on="1"/>
        <pt x="1405" y="1211" on="0"/>
        <pt x="1339" y="1081" on="0"/>
        <pt x="1270" y="1022" on="1"/>
        <pt x="1262" y="1030" on="1"/>
        <pt x="1310" y="1080" on="0"/>
        <pt x="1348" y="1182" on="0"/>
        <pt x="1348" y="1241" on="1"/>
        <pt x="1348" y="1292" on="0"/>
        <pt x="1310" y="1374" on="0"/>
        <pt x="1250" y="1431" on="0"/>
        <pt x="1176" y="1462" on="0"/>
        <pt x="1139" y="1462" on="1"/>
        <pt x="1017" y="1462" on="0"/>
        <pt x="772" y="1369" on="0"/>
        <pt x="546" y="1209" on="0"/>
        <pt x="350" y="994" on="0"/>
        <pt x="206" y="748" on="0"/>
        <pt x="123" y="485" on="0"/>
        <pt x="123" y="358" on="1"/>
        <pt x="123" y="306" on="0"/>
        <pt x="154" y="199" on="0"/>
        <pt x="221" y="113" on="0"/>
        <pt x="327" y="59" on="0"/>
        <pt x="401" y="59" on="1"/>
        <pt x="476" y="59" on="0"/>
        <pt x="567" y="95" on="0"/>
        <pt x="598" y="127" on="1"/>
        <pt x="590" y="217" on="0"/>
        <pt x="578" y="413" on="0"/>
        <pt x="578" y="510" on="1"/>
        <pt x="578" y="557" on="0"/>
        <pt x="579" y="660" on="0"/>
        <pt x="584" y="761" on="0"/>
        <pt x="597" y="851" on="0"/>
        <pt x="619" y="920" on="0"/>
        <pt x="653" y="961" on="0"/>
        <pt x="678" y="961" on="1"/>
        <pt x="716" y="961" on="0"/>
        <pt x="752" y="826" on="0"/>
        <pt x="752" y="686" on="1"/>
        <pt x="752" y="605" on="0"/>
        <pt x="731" y="401" on="0"/>
        <pt x="705" y="295" on="1"/>
        <pt x="688" y="229" on="0"/>
        <pt x="657" y="174" on="1"/>
        <pt x="664" y="93" on="0"/>
        <pt x="676" y="-45" on="0"/>
        <pt x="676" y="-88" on="1"/>
        <pt x="676" y="-140" on="0"/>
        <pt x="645" y="-258" on="0"/>
        <pt x="586" y="-357" on="0"/>
        <pt x="499" y="-422" on="0"/>
        <pt x="444" y="-422" on="1"/>
        <pt x="426" y="-422" on="0"/>
        <pt x="395" y="-411" on="0"/>
        <pt x="374" y="-395" on="0"/>
        <pt x="362" y="-377" on="0"/>
        <pt x="362" y="-369" on="1"/>
        <pt x="362" y="-361" on="0"/>
        <pt x="371" y="-341" on="0"/>
        <pt x="384" y="-323" on="0"/>
        <pt x="397" y="-311" on="0"/>
        <pt x="401" y="-311" on="1"/>
        <pt x="406" y="-311" on="0"/>
        <pt x="408" y="-318" on="0"/>
        <pt x="409" y="-327" on="0"/>
        <pt x="411" y="-337" on="0"/>
        <pt x="416" y="-340" on="1"/>
        <pt x="427" y="-346" on="0"/>
        <pt x="458" y="-356" on="0"/>
      </contour>
      <contour>
        <pt x="639" y="516" on="1"/>
        <pt x="639" y="448" on="0"/>
        <pt x="647" y="298" on="0"/>
        <pt x="653" y="223" on="1"/>
        <pt x="658" y="236" on="0"/>
        <pt x="667" y="260" on="0"/>
        <pt x="672" y="274" on="1"/>
        <pt x="697" y="347" on="0"/>
        <pt x="707" y="522" on="0"/>
        <pt x="707" y="616" on="1"/>
        <pt x="707" y="685" on="0"/>
        <pt x="701" y="795" on="0"/>
        <pt x="689" y="872" on="0"/>
        <pt x="671" y="913" on="0"/>
        <pt x="659" y="913" on="1"/>
        <pt x="648" y="913" on="0"/>
        <pt x="637" y="867" on="0"/>
        <pt x="632" y="793" on="0"/>
        <pt x="633" y="703" on="0"/>
        <pt x="636" y="615" on="0"/>
        <pt x="639" y="539" on="0"/>
      </contour>
    </TTGlyph>
    <TTGlyph name="Gbreve" xMin="61" yMin="-422" xMax="1405" yMax="1664">
      <component glyphName="G" x="0" y="0" flags="0x204"/>
      <component glyphName="breve" x="346" y="950" flags="0x4"/>
    </TTGlyph>
    <TTGlyph name="Gcircumflex" xMin="61" yMin="-422" xMax="1405" yMax="1667">
      <component glyphName="G" x="0" y="0" flags="0x204"/>
      <component glyphName="circumflex" x="346" y="950" flags="0x4"/>
    </TTGlyph>
    <TTGlyph name="Gcommaaccent" xMin="61" yMin="-422" xMax="1405" yMax="1522">
      <component glyphName="G" x="0" y="0" flags="0x204"/>
      <component glyphName="commaaccent" x="2" y="0" flags="0x4"/>
    </TTGlyph>
    <TTGlyph name="Gdotaccent" xMin="61" yMin="-422" xMax="1405" yMax="1591">
      <component glyphName="G" x="0" y="0" flags="0x204"/>
      <component glyphName="dotaccent" x="336" y="950" flags="0x4"/>
    </TTGlyph>
    <TTGlyph name="H" xMin="-25" yMin="-332" xMax="977" yMax="1501">
      <contour>
        <pt x="920" y="369" on="1"/>
        <pt x="943" y="369" on="0"/>
        <pt x="977" y="366" on="0"/>
        <pt x="977" y="356" on="1"/>
        <pt x="977" y="338" on="0"/>
        <pt x="953" y="322" on="0"/>
        <pt x="915" y="316" on="0"/>
        <pt x="868" y="317" on="0"/>
        <pt x="846" y="317" on="1"/>
        <pt x="823" y="317" on="1"/>
        <pt x="823" y="209" on="1"/>
        <pt x="823" y="145" on="0"/>
        <pt x="828" y="56" on="0"/>
        <pt x="838" y="-9" on="0"/>
        <pt x="850" y="-58" on="0"/>
        <pt x="858" y="-82" on="1"/>
        <pt x="864" y="-88" on="0"/>
        <pt x="864" y="-92" on="1"/>
        <pt x="864" y="-101" on="0"/>
        <pt x="832" y="-119" on="0"/>
        <pt x="815" y="-119" on="1"/>
        <pt x="803" y="-119" on="0"/>
        <pt x="790" y="-109" on="0"/>
        <pt x="786" y="-92" on="1"/>
        <pt x="779" y="-70" on="0"/>
        <pt x="769" y="3" on="0"/>
        <pt x="763" y="82" on="0"/>
        <pt x="760" y="155" on="0"/>
        <pt x="760" y="178" on="1"/>
        <pt x="760" y="212" on="0"/>
        <pt x="760" y="282" on="0"/>
        <pt x="762" y="317" on="1"/>
        <pt x="649" y="317" on="0"/>
        <pt x="451" y="324" on="0"/>
        <pt x="352" y="324" on="1"/>
        <pt x="313" y="324" on="1"/>
        <pt x="308" y="228" on="0"/>
        <pt x="272" y="41" on="0"/>
        <pt x="202" y="-130" on="0"/>
        <pt x="95" y="-277" on="0"/>
        <pt x="18" y="-332" on="1"/>
        <pt x="2" y="-319" on="1"/>
        <pt x="72" y="-267" on="0"/>
        <pt x="166" y="-115" on="0"/>
        <pt x="223" y="58" on="0"/>
        <pt x="247" y="239" on="0"/>
        <pt x="248" y="322" on="1"/>
        <pt x="195" y="322" on="0"/>
        <pt x="88" y="316" on="0"/>
        <pt x="31" y="311" on="1"/>
        <pt x="18" y="309" on="0"/>
        <pt x="-11" y="305" on="0"/>
        <pt x="-14" y="305" on="1"/>
        <pt x="-25" y="305" on="0"/>
        <pt x="-25" y="317" on="1"/>
        <pt x="-25" y="340" on="0"/>
        <pt x="4" y="364" on="0"/>
        <pt x="63" y="374" on="0"/>
        <pt x="152" y="375" on="0"/>
        <pt x="211" y="375" on="1"/>
        <pt x="248" y="375" on="1"/>
        <pt x="246" y="504" on="0"/>
        <pt x="229" y="743" on="0"/>
        <pt x="209" y="983" on="0"/>
        <pt x="193" y="1235" on="0"/>
        <pt x="193" y="1378" on="1"/>
        <pt x="193" y="1395" on="0"/>
        <pt x="196" y="1438" on="0"/>
        <pt x="202" y="1475" on="0"/>
        <pt x="210" y="1501" on="0"/>
        <pt x="215" y="1501" on="1"/>
        <pt x="220" y="1501" on="0"/>
        <pt x="242" y="1490" on="0"/>
        <pt x="264" y="1473" on="0"/>
        <pt x="281" y="1456" on="0"/>
        <pt x="281" y="1450" on="1"/>
        <pt x="281" y="1447" on="0"/>
        <pt x="276" y="1435" on="0"/>
        <pt x="271" y="1411" on="0"/>
        <pt x="266" y="1374" on="0"/>
        <pt x="266" y="1346" on="1"/>
        <pt x="266" y="1251" on="0"/>
        <pt x="273" y="1101" on="0"/>
        <pt x="284" y="968" on="0"/>
        <pt x="297" y="841" on="0"/>
        <pt x="308" y="696" on="0"/>
        <pt x="315" y="522" on="0"/>
        <pt x="315" y="410" on="1"/>
        <pt x="315" y="375" on="1"/>
        <pt x="421" y="373" on="0"/>
        <pt x="653" y="369" on="0"/>
        <pt x="762" y="369" on="1"/>
        <pt x="765" y="487" on="0"/>
        <pt x="777" y="729" on="0"/>
        <pt x="791" y="954" on="0"/>
        <pt x="805" y="1152" on="0"/>
        <pt x="817" y="1303" on="0"/>
        <pt x="825" y="1395" on="0"/>
        <pt x="825" y="1401" on="1"/>
        <pt x="825" y="1410" on="0"/>
        <pt x="817" y="1442" on="0"/>
        <pt x="817" y="1456" on="1"/>
        <pt x="817" y="1459" on="0"/>
        <pt x="831" y="1464" on="0"/>
        <pt x="850" y="1468" on="0"/>
        <pt x="868" y="1470" on="0"/>
        <pt x="872" y="1470" on="1"/>
        <pt x="885" y="1470" on="0"/>
        <pt x="903" y="1440" on="0"/>
        <pt x="903" y="1427" on="1"/>
        <pt x="903" y="1389" on="0"/>
        <pt x="893" y="1270" on="0"/>
        <pt x="878" y="1116" on="0"/>
        <pt x="860" y="929" on="0"/>
        <pt x="842" y="719" on="0"/>
        <pt x="828" y="490" on="0"/>
        <pt x="825" y="369" on="1"/>
      </contour>
    </TTGlyph>
    <TTGlyph name="Hbar" xMin="-25" yMin="-332" xMax="977" yMax="1501">
      <contour>
        <pt x="825" y="1401" on="1"/>
        <pt x="825" y="1410" on="0"/>
        <pt x="817" y="1442" on="0"/>
        <pt x="817" y="1456" on="1"/>
        <pt x="817" y="1459" on="0"/>
        <pt x="831" y="1464" on="0"/>
        <pt x="850" y="1468" on="0"/>
        <pt x="868" y="1470" on="0"/>
        <pt x="872" y="1470" on="1"/>
        <pt x="885" y="1470" on="0"/>
        <pt x="903" y="1440" on="0"/>
        <pt x="903" y="1427" on="1"/>
        <pt x="903" y="1386" on="0"/>
        <pt x="892" y="1257" on="0"/>
        <pt x="875" y="1088" on="0"/>
        <pt x="855" y="884" on="0"/>
        <pt x="846" y="770" on="1"/>
        <pt x="848" y="770" on="1"/>
        <pt x="860" y="770" on="0"/>
        <pt x="902" y="770" on="0"/>
        <pt x="944" y="769" on="0"/>
        <pt x="975" y="766" on="0"/>
        <pt x="975" y="762" on="1"/>
        <pt x="975" y="739" on="0"/>
        <pt x="956" y="719" on="0"/>
        <pt x="950" y="719" on="1"/>
        <pt x="842" y="719" on="1"/>
        <pt x="836" y="635" on="0"/>
        <pt x="827" y="460" on="0"/>
        <pt x="825" y="369" on="1"/>
        <pt x="920" y="369" on="1"/>
        <pt x="943" y="369" on="0"/>
        <pt x="977" y="366" on="0"/>
        <pt x="977" y="356" on="1"/>
        <pt x="977" y="338" on="0"/>
        <pt x="953" y="322" on="0"/>
        <pt x="915" y="316" on="0"/>
        <pt x="868" y="317" on="0"/>
        <pt x="846" y="317" on="1"/>
        <pt x="823" y="317" on="1"/>
        <pt x="823" y="209" on="1"/>
        <pt x="823" y="145" on="0"/>
        <pt x="828" y="56" on="0"/>
        <pt x="838" y="-9" on="0"/>
        <pt x="850" y="-58" on="0"/>
        <pt x="858" y="-82" on="1"/>
        <pt x="864" y="-88" on="0"/>
        <pt x="864" y="-92" on="1"/>
        <pt x="864" y="-101" on="0"/>
        <pt x="832" y="-119" on="0"/>
        <pt x="815" y="-119" on="1"/>
        <pt x="803" y="-119" on="0"/>
        <pt x="790" y="-109" on="0"/>
        <pt x="786" y="-92" on="1"/>
        <pt x="779" y="-70" on="0"/>
        <pt x="769" y="3" on="0"/>
        <pt x="763" y="82" on="0"/>
        <pt x="760" y="155" on="0"/>
        <pt x="760" y="178" on="1"/>
        <pt x="760" y="212" on="0"/>
        <pt x="760" y="282" on="0"/>
        <pt x="762" y="317" on="1"/>
        <pt x="649" y="317" on="0"/>
        <pt x="451" y="324" on="0"/>
        <pt x="352" y="324" on="1"/>
        <pt x="313" y="324" on="1"/>
        <pt x="308" y="228" on="0"/>
        <pt x="272" y="41" on="0"/>
        <pt x="202" y="-130" on="0"/>
        <pt x="95" y="-277" on="0"/>
        <pt x="18" y="-332" on="1"/>
        <pt x="2" y="-319" on="1"/>
        <pt x="72" y="-267" on="0"/>
        <pt x="166" y="-115" on="0"/>
        <pt x="223" y="58" on="0"/>
        <pt x="247" y="239" on="0"/>
        <pt x="248" y="322" on="1"/>
        <pt x="195" y="322" on="0"/>
        <pt x="88" y="316" on="0"/>
        <pt x="31" y="311" on="1"/>
        <pt x="18" y="309" on="0"/>
        <pt x="-11" y="305" on="0"/>
        <pt x="-14" y="305" on="1"/>
        <pt x="-25" y="305" on="0"/>
        <pt x="-25" y="317" on="1"/>
        <pt x="-25" y="340" on="0"/>
        <pt x="4" y="364" on="0"/>
        <pt x="63" y="374" on="0"/>
        <pt x="152" y="375" on="0"/>
        <pt x="211" y="375" on="1"/>
        <pt x="248" y="375" on="1"/>
        <pt x="246" y="463" on="0"/>
        <pt x="236" y="629" on="0"/>
        <pt x="229" y="713" on="1"/>
        <pt x="181" y="711" on="0"/>
        <pt x="92" y="711" on="0"/>
        <pt x="49" y="711" on="1"/>
        <pt x="47" y="712" on="0"/>
        <pt x="46" y="713" on="1"/>
        <pt x="43" y="714" on="0"/>
        <pt x="43" y="719" on="1"/>
        <pt x="43" y="725" on="0"/>
        <pt x="47" y="741" on="0"/>
        <pt x="53" y="756" on="0"/>
        <pt x="59" y="766" on="0"/>
        <pt x="61" y="766" on="1"/>
        <pt x="225" y="766" on="1"/>
        <pt x="220" y="837" on="0"/>
        <pt x="208" y="982" on="0"/>
        <pt x="199" y="1133" on="0"/>
        <pt x="193" y="1292" on="0"/>
        <pt x="193" y="1378" on="1"/>
        <pt x="193" y="1395" on="0"/>
        <pt x="196" y="1438" on="0"/>
        <pt x="202" y="1475" on="0"/>
        <pt x="210" y="1501" on="0"/>
        <pt x="215" y="1501" on="1"/>
        <pt x="220" y="1501" on="0"/>
        <pt x="242" y="1490" on="0"/>
        <pt x="264" y="1473" on="0"/>
        <pt x="281" y="1456" on="0"/>
        <pt x="281" y="1450" on="1"/>
        <pt x="281" y="1447" on="0"/>
        <pt x="276" y="1435" on="0"/>
        <pt x="271" y="1411" on="0"/>
        <pt x="266" y="1374" on="0"/>
        <pt x="266" y="1346" on="1"/>
        <pt x="266" y="1251" on="0"/>
        <pt x="274" y="1101" on="0"/>
        <pt x="285" y="967" on="0"/>
        <pt x="298" y="839" on="0"/>
        <pt x="303" y="766" on="1"/>
        <pt x="365" y="767" on="0"/>
        <pt x="496" y="768" on="0"/>
        <pt x="620" y="769" on="0"/>
        <pt x="733" y="770" on="0"/>
        <pt x="778" y="770" on="1"/>
        <pt x="786" y="894" on="0"/>
        <pt x="803" y="1118" on="0"/>
        <pt x="816" y="1289" on="0"/>
        <pt x="825" y="1395" on="0"/>
      </contour>
      <contour>
        <pt x="776" y="719" on="1"/>
        <pt x="661" y="717" on="0"/>
        <pt x="423" y="715" on="0"/>
        <pt x="307" y="713" on="1"/>
        <pt x="310" y="650" on="0"/>
        <pt x="315" y="502" on="0"/>
        <pt x="315" y="410" on="1"/>
        <pt x="315" y="375" on="1"/>
        <pt x="421" y="373" on="0"/>
        <pt x="653" y="369" on="0"/>
        <pt x="762" y="369" on="1"/>
        <pt x="765" y="455" on="0"/>
        <pt x="771" y="631" on="0"/>
      </contour>
    </TTGlyph>
    <TTGlyph name="Hcircumflex" xMin="-25" yMin="-332" xMax="977" yMax="1733">
      <component glyphName="H" x="0" y="0" flags="0x204"/>
      <component glyphName="circumflex" x="268" y="1016" flags="0x4"/>
    </TTGlyph>
    <TTGlyph name="I" xMin="0" yMin="-49" xMax="975" yMax="1464">
      <contour>
        <pt x="653" y="43" on="1"/>
        <pt x="638" y="46" on="0"/>
        <pt x="609" y="52" on="0"/>
        <pt x="594" y="55" on="1"/>
        <pt x="560" y="6" on="0"/>
        <pt x="461" y="-49" on="0"/>
        <pt x="393" y="-49" on="1"/>
        <pt x="350" y="-49" on="0"/>
        <pt x="311" y="-20" on="0"/>
        <pt x="311" y="0" on="1"/>
        <pt x="311" y="14" on="0"/>
        <pt x="336" y="42" on="0"/>
        <pt x="383" y="65" on="0"/>
        <pt x="451" y="80" on="0"/>
        <pt x="494" y="80" on="1"/>
        <pt x="509" y="80" on="0"/>
        <pt x="539" y="78" on="0"/>
        <pt x="553" y="76" on="1"/>
        <pt x="591" y="137" on="0"/>
        <pt x="629" y="321" on="0"/>
        <pt x="648" y="540" on="0"/>
        <pt x="654" y="779" on="0"/>
        <pt x="666" y="1010" on="0"/>
        <pt x="692" y="1218" on="0"/>
        <pt x="721" y="1296" on="1"/>
        <pt x="654" y="1289" on="0"/>
        <pt x="504" y="1274" on="0"/>
        <pt x="358" y="1242" on="0"/>
        <pt x="225" y="1185" on="0"/>
        <pt x="123" y="1090" on="0"/>
        <pt x="63" y="949" on="0"/>
        <pt x="63" y="848" on="1"/>
        <pt x="63" y="806" on="0"/>
        <pt x="87" y="724" on="0"/>
        <pt x="135" y="660" on="0"/>
        <pt x="208" y="621" on="0"/>
        <pt x="256" y="621" on="1"/>
        <pt x="299" y="621" on="0"/>
        <pt x="362" y="645" on="0"/>
        <pt x="407" y="679" on="0"/>
        <pt x="438" y="716" on="0"/>
        <pt x="449" y="729" on="1"/>
        <pt x="459" y="723" on="1"/>
        <pt x="450" y="708" on="0"/>
        <pt x="414" y="653" on="0"/>
        <pt x="358" y="600" on="0"/>
        <pt x="281" y="561" on="0"/>
        <pt x="231" y="561" on="1"/>
        <pt x="174" y="561" on="0"/>
        <pt x="88" y="606" on="0"/>
        <pt x="30" y="678" on="0"/>
        <pt x="0" y="767" on="0"/>
        <pt x="0" y="811" on="1"/>
        <pt x="0" y="919" on="0"/>
        <pt x="73" y="1078" on="0"/>
        <pt x="194" y="1191" on="0"/>
        <pt x="351" y="1266" on="0"/>
        <pt x="517" y="1314" on="0"/>
        <pt x="680" y="1343" on="0"/>
        <pt x="748" y="1354" on="1"/>
        <pt x="777" y="1406" on="0"/>
        <pt x="862" y="1464" on="0"/>
        <pt x="922" y="1464" on="1"/>
        <pt x="940" y="1464" on="0"/>
        <pt x="975" y="1435" on="0"/>
        <pt x="975" y="1407" on="1"/>
        <pt x="975" y="1380" on="0"/>
        <pt x="944" y="1344" on="0"/>
        <pt x="888" y="1320" on="0"/>
        <pt x="813" y="1306" on="0"/>
        <pt x="768" y="1300" on="1"/>
        <pt x="745" y="1228" on="0"/>
        <pt x="728" y="1028" on="0"/>
        <pt x="720" y="800" on="0"/>
        <pt x="715" y="558" on="0"/>
        <pt x="693" y="333" on="0"/>
        <pt x="648" y="138" on="0"/>
        <pt x="604" y="70" on="1"/>
        <pt x="617" y="67" on="0"/>
        <pt x="643" y="60" on="0"/>
        <pt x="657" y="57" on="1"/>
      </contour>
      <contour>
        <pt x="489" y="10" on="1"/>
        <pt x="503" y="20" on="0"/>
        <pt x="530" y="44" on="0"/>
        <pt x="541" y="59" on="1"/>
        <pt x="531" y="61" on="0"/>
        <pt x="513" y="61" on="0"/>
        <pt x="502" y="61" on="1"/>
        <pt x="464" y="61" on="0"/>
        <pt x="415" y="52" on="0"/>
        <pt x="386" y="39" on="0"/>
        <pt x="375" y="22" on="0"/>
        <pt x="375" y="14" on="1"/>
        <pt x="375" y="3" on="0"/>
        <pt x="394" y="-10" on="0"/>
        <pt x="416" y="-10" on="1"/>
        <pt x="433" y="-10" on="0"/>
        <pt x="469" y="-2" on="0"/>
      </contour>
      <contour>
        <pt x="915" y="1432" on="1"/>
        <pt x="875" y="1432" on="0"/>
        <pt x="814" y="1399" on="0"/>
        <pt x="793" y="1362" on="1"/>
        <pt x="856" y="1373" on="0"/>
        <pt x="934" y="1398" on="0"/>
        <pt x="934" y="1421" on="1"/>
        <pt x="934" y="1429" on="0"/>
        <pt x="919" y="1432" on="0"/>
      </contour>
    </TTGlyph>
    <TTGlyph name="IJ" xMin="0" yMin="-322" xMax="1802" yMax="1464">
      <component glyphName="I" x="0" y="0" flags="0x4"/>
      <component glyphName="J" x="872" y="0" flags="0x4"/>
    </TTGlyph>
    <TTGlyph name="Iacute" xMin="0" yMin="-49" xMax="975" yMax="1661">
      <component glyphName="I" x="0" y="0" flags="0x204"/>
      <component glyphName="acute" x="328" y="934" flags="0x4"/>
    </TTGlyph>
    <TTGlyph name="Ibreve" xMin="0" yMin="-49" xMax="975" yMax="1648">
      <component glyphName="I" x="0" y="0" flags="0x204"/>
      <component glyphName="breve" x="262" y="934" flags="0x4"/>
    </TTGlyph>
    <TTGlyph name="Icircumflex" xMin="0" yMin="-49" xMax="975" yMax="1651">
      <component glyphName="I" x="0" y="0" flags="0x204"/>
      <component glyphName="circumflex" x="262" y="934" flags="0x4"/>
    </TTGlyph>
    <TTGlyph name="Idieresis" xMin="0" yMin="-49" xMax="975" yMax="1575">
      <component glyphName="I" x="0" y="0" flags="0x204"/>
      <component glyphName="dieresis" x="252" y="934" flags="0x4"/>
    </TTGlyph>
    <TTGlyph name="Idotaccent" xMin="0" yMin="-49" xMax="975" yMax="1575">
      <component glyphName="I" x="0" y="0" flags="0x204"/>
      <component glyphName="dotaccent" x="252" y="934" flags="0x4"/>
    </TTGlyph>
    <TTGlyph name="Igrave" xMin="0" yMin="-49" xMax="975" yMax="1673">
      <component glyphName="I" x="0" y="0" flags="0x204"/>
      <component glyphName="grave" x="215" y="934" flags="0x4"/>
    </TTGlyph>
    <TTGlyph name="Imacron" xMin="0" yMin="-49" xMax="975" yMax="1559">
      <component glyphName="I" x="0" y="0" flags="0x204"/>
      <component glyphName="macron" x="252" y="934" flags="0x4"/>
    </TTGlyph>
    <TTGlyph name="Iogonek" xMin="0" yMin="-260" xMax="975" yMax="1464">
      <contour>
        <pt x="653" y="43" on="1"/>
        <pt x="638" y="46" on="0"/>
        <pt x="609" y="52" on="0"/>
        <pt x="594" y="55" on="1"/>
        <pt x="577" y="31" on="0"/>
        <pt x="535" y="-7" on="0"/>
        <pt x="512" y="-23" on="1"/>
        <pt x="496" y="-34" on="0"/>
        <pt x="465" y="-68" on="0"/>
        <pt x="441" y="-107" on="0"/>
        <pt x="426" y="-148" on="0"/>
        <pt x="426" y="-166" on="1"/>
        <pt x="426" y="-186" on="0"/>
        <pt x="455" y="-213" on="0"/>
        <pt x="481" y="-213" on="1"/>
        <pt x="513" y="-213" on="0"/>
        <pt x="578" y="-191" on="0"/>
        <pt x="606" y="-174" on="1"/>
        <pt x="607" y="-169" on="0"/>
        <pt x="618" y="-171" on="0"/>
        <pt x="627" y="-181" on="0"/>
        <pt x="628" y="-195" on="0"/>
        <pt x="621" y="-201" on="1"/>
        <pt x="582" y="-232" on="0"/>
        <pt x="505" y="-260" on="0"/>
        <pt x="471" y="-260" on="1"/>
        <pt x="456" y="-260" on="0"/>
        <pt x="424" y="-254" on="0"/>
        <pt x="398" y="-236" on="0"/>
        <pt x="381" y="-206" on="0"/>
        <pt x="381" y="-182" on="1"/>
        <pt x="381" y="-147" on="0"/>
        <pt x="425" y="-75" on="0"/>
        <pt x="457" y="-41" on="1"/>
        <pt x="441" y="-46" on="0"/>
        <pt x="410" y="-49" on="0"/>
        <pt x="393" y="-49" on="1"/>
        <pt x="350" y="-49" on="0"/>
        <pt x="311" y="-20" on="0"/>
        <pt x="311" y="0" on="1"/>
        <pt x="311" y="14" on="0"/>
        <pt x="336" y="42" on="0"/>
        <pt x="383" y="65" on="0"/>
        <pt x="451" y="80" on="0"/>
        <pt x="494" y="80" on="1"/>
        <pt x="509" y="80" on="0"/>
        <pt x="539" y="78" on="0"/>
        <pt x="553" y="76" on="1"/>
        <pt x="591" y="137" on="0"/>
        <pt x="629" y="321" on="0"/>
        <pt x="648" y="540" on="0"/>
        <pt x="654" y="779" on="0"/>
        <pt x="666" y="1010" on="0"/>
        <pt x="692" y="1218" on="0"/>
        <pt x="721" y="1296" on="1"/>
        <pt x="654" y="1289" on="0"/>
        <pt x="504" y="1274" on="0"/>
        <pt x="358" y="1242" on="0"/>
        <pt x="225" y="1185" on="0"/>
        <pt x="123" y="1090" on="0"/>
        <pt x="63" y="949" on="0"/>
        <pt x="63" y="848" on="1"/>
        <pt x="63" y="806" on="0"/>
        <pt x="87" y="724" on="0"/>
        <pt x="135" y="660" on="0"/>
        <pt x="208" y="621" on="0"/>
        <pt x="256" y="621" on="1"/>
        <pt x="299" y="621" on="0"/>
        <pt x="362" y="645" on="0"/>
        <pt x="407" y="679" on="0"/>
        <pt x="438" y="716" on="0"/>
        <pt x="449" y="729" on="1"/>
        <pt x="459" y="723" on="1"/>
        <pt x="450" y="708" on="0"/>
        <pt x="414" y="653" on="0"/>
        <pt x="358" y="600" on="0"/>
        <pt x="281" y="561" on="0"/>
        <pt x="231" y="561" on="1"/>
        <pt x="174" y="561" on="0"/>
        <pt x="88" y="606" on="0"/>
        <pt x="30" y="678" on="0"/>
        <pt x="0" y="767" on="0"/>
        <pt x="0" y="811" on="1"/>
        <pt x="0" y="919" on="0"/>
        <pt x="73" y="1078" on="0"/>
        <pt x="194" y="1191" on="0"/>
        <pt x="351" y="1266" on="0"/>
        <pt x="517" y="1314" on="0"/>
        <pt x="680" y="1343" on="0"/>
        <pt x="748" y="1354" on="1"/>
        <pt x="777" y="1406" on="0"/>
        <pt x="862" y="1464" on="0"/>
        <pt x="922" y="1464" on="1"/>
        <pt x="940" y="1464" on="0"/>
        <pt x="975" y="1435" on="0"/>
        <pt x="975" y="1407" on="1"/>
        <pt x="975" y="1380" on="0"/>
        <pt x="944" y="1344" on="0"/>
        <pt x="888" y="1320" on="0"/>
        <pt x="813" y="1306" on="0"/>
        <pt x="768" y="1300" on="1"/>
        <pt x="745" y="1228" on="0"/>
        <pt x="728" y="1028" on="0"/>
        <pt x="720" y="800" on="0"/>
        <pt x="715" y="558" on="0"/>
        <pt x="693" y="333" on="0"/>
        <pt x="648" y="138" on="0"/>
        <pt x="604" y="70" on="1"/>
        <pt x="617" y="67" on="0"/>
        <pt x="643" y="60" on="0"/>
        <pt x="657" y="57" on="1"/>
      </contour>
      <contour>
        <pt x="489" y="10" on="1"/>
        <pt x="503" y="20" on="0"/>
        <pt x="530" y="44" on="0"/>
        <pt x="541" y="59" on="1"/>
        <pt x="531" y="61" on="0"/>
        <pt x="513" y="61" on="0"/>
        <pt x="502" y="61" on="1"/>
        <pt x="464" y="61" on="0"/>
        <pt x="415" y="52" on="0"/>
        <pt x="386" y="39" on="0"/>
        <pt x="375" y="22" on="0"/>
        <pt x="375" y="14" on="1"/>
        <pt x="375" y="3" on="0"/>
        <pt x="394" y="-10" on="0"/>
        <pt x="416" y="-10" on="1"/>
        <pt x="433" y="-10" on="0"/>
        <pt x="469" y="-2" on="0"/>
      </contour>
      <contour>
        <pt x="915" y="1432" on="1"/>
        <pt x="875" y="1432" on="0"/>
        <pt x="814" y="1399" on="0"/>
        <pt x="793" y="1362" on="1"/>
        <pt x="856" y="1373" on="0"/>
        <pt x="934" y="1398" on="0"/>
        <pt x="934" y="1421" on="1"/>
        <pt x="934" y="1429" on="0"/>
        <pt x="919" y="1432" on="0"/>
      </contour>
    </TTGlyph>
    <TTGlyph name="Itilde" xMin="0" yMin="-49" xMax="975" yMax="1616">
      <component glyphName="I" x="0" y="0" flags="0x204"/>
      <component glyphName="tilde" x="252" y="934" flags="0x4"/>
    </TTGlyph>
    <TTGlyph name="J" xMin="0" yMin="-322" xMax="930" yMax="1444">
      <contour>
        <pt x="82" y="-92" on="1"/>
        <pt x="87" y="-123" on="0"/>
        <pt x="114" y="-187" on="0"/>
        <pt x="160" y="-240" on="0"/>
        <pt x="229" y="-274" on="0"/>
        <pt x="276" y="-274" on="1"/>
        <pt x="348" y="-274" on="0"/>
        <pt x="445" y="-186" on="0"/>
        <pt x="508" y="-34" on="0"/>
        <pt x="544" y="169" on="0"/>
        <pt x="555" y="285" on="1"/>
        <pt x="518" y="272" on="0"/>
        <pt x="436" y="256" on="0"/>
        <pt x="391" y="256" on="1"/>
        <pt x="307" y="256" on="0"/>
        <pt x="163" y="302" on="0"/>
        <pt x="59" y="392" on="0"/>
        <pt x="0" y="523" on="0"/>
        <pt x="0" y="608" on="1"/>
        <pt x="0" y="704" on="0"/>
        <pt x="62" y="859" on="0"/>
        <pt x="165" y="984" on="0"/>
        <pt x="300" y="1081" on="0"/>
        <pt x="446" y="1159" on="0"/>
        <pt x="593" y="1219" on="0"/>
        <pt x="657" y="1245" on="1"/>
        <pt x="688" y="1336" on="0"/>
        <pt x="786" y="1444" on="0"/>
        <pt x="864" y="1444" on="1"/>
        <pt x="872" y="1444" on="0"/>
        <pt x="894" y="1440" on="0"/>
        <pt x="915" y="1427" on="0"/>
        <pt x="930" y="1402" on="0"/>
        <pt x="930" y="1382" on="1"/>
        <pt x="930" y="1349" on="0"/>
        <pt x="892" y="1297" on="0"/>
        <pt x="826" y="1254" on="0"/>
        <pt x="736" y="1216" on="0"/>
        <pt x="684" y="1198" on="1"/>
        <pt x="672" y="1116" on="0"/>
        <pt x="660" y="914" on="0"/>
        <pt x="651" y="693" on="0"/>
        <pt x="639" y="461" on="0"/>
        <pt x="629" y="350" on="1"/>
        <pt x="692" y="378" on="0"/>
        <pt x="776" y="452" on="0"/>
        <pt x="811" y="483" on="1"/>
        <pt x="825" y="469" on="1"/>
        <pt x="813" y="457" on="0"/>
        <pt x="776" y="421" on="0"/>
        <pt x="725" y="379" on="0"/>
        <pt x="662" y="334" on="0"/>
        <pt x="625" y="315" on="1"/>
        <pt x="611" y="185" on="0"/>
        <pt x="562" y="-46" on="0"/>
        <pt x="477" y="-220" on="0"/>
        <pt x="349" y="-322" on="0"/>
        <pt x="256" y="-322" on="1"/>
        <pt x="213" y="-322" on="0"/>
        <pt x="127" y="-292" on="0"/>
        <pt x="59" y="-237" on="0"/>
        <pt x="16" y="-158" on="0"/>
        <pt x="16" y="-109" on="1"/>
        <pt x="16" y="-97" on="0"/>
        <pt x="28" y="-78" on="0"/>
        <pt x="47" y="-65" on="0"/>
        <pt x="70" y="-57" on="0"/>
        <pt x="82" y="-57" on="1"/>
        <pt x="90" y="-57" on="0"/>
        <pt x="90" y="-66" on="1"/>
        <pt x="90" y="-71" on="0"/>
        <pt x="82" y="-84" on="0"/>
      </contour>
      <contour>
        <pt x="416" y="309" on="1"/>
        <pt x="496" y="309" on="0"/>
        <pt x="559" y="326" on="1"/>
        <pt x="568" y="435" on="0"/>
        <pt x="579" y="667" on="0"/>
        <pt x="594" y="891" on="0"/>
        <pt x="618" y="1098" on="0"/>
        <pt x="639" y="1184" on="1"/>
        <pt x="576" y="1163" on="0"/>
        <pt x="442" y="1116" on="0"/>
        <pt x="314" y="1057" on="0"/>
        <pt x="199" y="981" on="0"/>
        <pt x="113" y="881" on="0"/>
        <pt x="63" y="752" on="0"/>
        <pt x="63" y="670" on="1"/>
        <pt x="63" y="592" on="0"/>
        <pt x="95" y="478" on="0"/>
        <pt x="150" y="398" on="0"/>
        <pt x="221" y="347" on="0"/>
        <pt x="300" y="319" on="0"/>
        <pt x="380" y="309" on="0"/>
      </contour>
      <contour>
        <pt x="842" y="1397" on="1"/>
        <pt x="819" y="1397" on="0"/>
        <pt x="775" y="1382" on="0"/>
        <pt x="736" y="1350" on="0"/>
        <pt x="705" y="1299" on="0"/>
        <pt x="696" y="1262" on="1"/>
        <pt x="733" y="1277" on="0"/>
        <pt x="796" y="1305" on="0"/>
        <pt x="841" y="1333" on="0"/>
        <pt x="866" y="1361" on="0"/>
        <pt x="866" y="1376" on="1"/>
        <pt x="866" y="1382" on="0"/>
        <pt x="854" y="1397" on="0"/>
      </contour>
    </TTGlyph>
    <TTGlyph name="Jcircumflex" xMin="0" yMin="-322" xMax="930" yMax="1606">
      <component glyphName="J" x="0" y="0" flags="0x204"/>
      <component glyphName="circumflex" x="246" y="889" flags="0x4"/>
    </TTGlyph>
    <TTGlyph name="K" xMin="0" yMin="-102" xMax="1544" yMax="1548">
      <contour>
        <pt x="184" y="2" on="1"/>
        <pt x="184" y="-4" on="0"/>
        <pt x="187" y="-21" on="0"/>
        <pt x="185" y="-36" on="0"/>
        <pt x="177" y="-47" on="0"/>
        <pt x="166" y="-47" on="1"/>
        <pt x="150" y="-47" on="0"/>
        <pt x="133" y="-35" on="0"/>
        <pt x="131" y="-18" on="1"/>
        <pt x="128" y="14" on="0"/>
        <pt x="120" y="87" on="0"/>
        <pt x="117" y="125" on="1"/>
        <pt x="95" y="100" on="0"/>
        <pt x="64" y="88" on="0"/>
        <pt x="51" y="88" on="1"/>
        <pt x="28" y="88" on="0"/>
        <pt x="0" y="116" on="0"/>
        <pt x="0" y="137" on="1"/>
        <pt x="0" y="154" on="0"/>
        <pt x="19" y="184" on="0"/>
        <pt x="50" y="206" on="0"/>
        <pt x="89" y="219" on="0"/>
        <pt x="109" y="219" on="1"/>
        <pt x="101" y="322" on="0"/>
        <pt x="90" y="552" on="0"/>
        <pt x="90" y="676" on="1"/>
        <pt x="90" y="755" on="0"/>
        <pt x="90" y="898" on="0"/>
        <pt x="94" y="1053" on="0"/>
        <pt x="104" y="1235" on="0"/>
        <pt x="113" y="1354" on="1"/>
        <pt x="115" y="1365" on="0"/>
        <pt x="117" y="1389" on="0"/>
        <pt x="117" y="1391" on="1"/>
        <pt x="117" y="1399" on="0"/>
        <pt x="115" y="1415" on="0"/>
        <pt x="123" y="1415" on="1"/>
        <pt x="128" y="1415" on="0"/>
        <pt x="150" y="1410" on="0"/>
        <pt x="172" y="1403" on="0"/>
        <pt x="188" y="1393" on="0"/>
        <pt x="188" y="1389" on="1"/>
        <pt x="178" y="1247" on="0"/>
        <pt x="166" y="1033" on="0"/>
        <pt x="160" y="868" on="0"/>
        <pt x="158" y="739" on="0"/>
        <pt x="158" y="682" on="1"/>
        <pt x="158" y="639" on="0"/>
        <pt x="159" y="534" on="0"/>
        <pt x="161" y="418" on="0"/>
        <pt x="165" y="296" on="0"/>
        <pt x="168" y="236" on="1"/>
        <pt x="211" y="297" on="0"/>
        <pt x="322" y="474" on="0"/>
        <pt x="455" y="682" on="0"/>
        <pt x="605" y="906" on="0"/>
        <pt x="767" y="1122" on="0"/>
        <pt x="938" y="1315" on="0"/>
        <pt x="1112" y="1462" on="0"/>
        <pt x="1286" y="1548" on="0"/>
        <pt x="1370" y="1548" on="1"/>
        <pt x="1412" y="1548" on="0"/>
        <pt x="1477" y="1522" on="0"/>
        <pt x="1521" y="1479" on="0"/>
        <pt x="1544" y="1421" on="0"/>
        <pt x="1544" y="1389" on="1"/>
        <pt x="1544" y="1344" on="0"/>
        <pt x="1510" y="1260" on="0"/>
        <pt x="1467" y="1192" on="0"/>
        <pt x="1428" y="1149" on="0"/>
        <pt x="1423" y="1145" on="1"/>
        <pt x="1411" y="1153" on="1"/>
        <pt x="1421" y="1165" on="0"/>
        <pt x="1446" y="1195" on="0"/>
        <pt x="1468" y="1240" on="0"/>
        <pt x="1483" y="1303" on="0"/>
        <pt x="1483" y="1348" on="1"/>
        <pt x="1483" y="1375" on="0"/>
        <pt x="1464" y="1423" on="0"/>
        <pt x="1430" y="1459" on="0"/>
        <pt x="1381" y="1479" on="0"/>
        <pt x="1350" y="1479" on="1"/>
        <pt x="1276" y="1479" on="0"/>
        <pt x="1117" y="1399" on="0"/>
        <pt x="955" y="1262" on="0"/>
        <pt x="792" y="1080" on="0"/>
        <pt x="635" y="875" on="0"/>
        <pt x="485" y="659" on="0"/>
        <pt x="349" y="456" on="0"/>
        <pt x="230" y="276" on="0"/>
        <pt x="182" y="209" on="1"/>
        <pt x="227" y="197" on="0"/>
        <pt x="307" y="150" on="0"/>
        <pt x="382" y="94" on="0"/>
        <pt x="453" y="35" on="0"/>
        <pt x="526" y="-12" on="0"/>
        <pt x="601" y="-43" on="0"/>
        <pt x="643" y="-43" on="1"/>
        <pt x="680" y="-43" on="0"/>
        <pt x="731" y="-16" on="0"/>
        <pt x="764" y="23" on="0"/>
        <pt x="785" y="69" on="0"/>
        <pt x="793" y="88" on="1"/>
        <pt x="807" y="82" on="1"/>
        <pt x="802" y="70" on="0"/>
        <pt x="789" y="34" on="0"/>
        <pt x="768" y="-7" on="0"/>
        <pt x="740" y="-48" on="0"/>
        <pt x="700" y="-81" on="0"/>
        <pt x="649" y="-102" on="0"/>
        <pt x="616" y="-102" on="1"/>
        <pt x="567" y="-102" on="0"/>
        <pt x="481" y="-71" on="0"/>
        <pt x="404" y="-22" on="0"/>
        <pt x="334" y="40" on="0"/>
        <pt x="268" y="100" on="0"/>
        <pt x="204" y="152" on="0"/>
        <pt x="172" y="168" on="1"/>
        <pt x="174" y="123" on="0"/>
        <pt x="179" y="39" on="0"/>
      </contour>
      <contour>
        <pt x="63" y="137" on="1"/>
        <pt x="76" y="137" on="0"/>
        <pt x="101" y="150" on="0"/>
        <pt x="115" y="166" on="1"/>
        <pt x="113" y="171" on="0"/>
        <pt x="113" y="179" on="0"/>
        <pt x="113" y="184" on="1"/>
        <pt x="110" y="184" on="0"/>
        <pt x="103" y="186" on="0"/>
        <pt x="100" y="186" on="1"/>
        <pt x="66" y="186" on="0"/>
        <pt x="43" y="163" on="0"/>
        <pt x="43" y="154" on="1"/>
        <pt x="43" y="137" on="0"/>
      </contour>
    </TTGlyph>
    <TTGlyph name="Kcommaaccent" xMin="0" yMin="-305" xMax="1544" yMax="1548">
      <component glyphName="K" x="0" y="0" flags="0x204"/>
      <component glyphName="commaaccent" x="-19" y="-30" flags="0x4"/>
    </TTGlyph>
    <TTGlyph name="L" xMin="0" yMin="-84" xMax="1159" yMax="1563">
      <contour>
        <pt x="954" y="954" on="1"/>
        <pt x="984" y="974" on="0"/>
        <pt x="1038" y="1030" on="0"/>
        <pt x="1080" y="1099" on="0"/>
        <pt x="1104" y="1178" on="0"/>
        <pt x="1104" y="1221" on="1"/>
        <pt x="1104" y="1286" on="0"/>
        <pt x="1047" y="1391" on="0"/>
        <pt x="949" y="1464" on="0"/>
        <pt x="820" y="1503" on="0"/>
        <pt x="748" y="1503" on="1"/>
        <pt x="658" y="1503" on="0"/>
        <pt x="488" y="1454" on="0"/>
        <pt x="338" y="1366" on="0"/>
        <pt x="213" y="1242" on="0"/>
        <pt x="122" y="1092" on="0"/>
        <pt x="72" y="920" on="0"/>
        <pt x="72" y="827" on="1"/>
        <pt x="72" y="763" on="0"/>
        <pt x="94" y="645" on="0"/>
        <pt x="126" y="531" on="0"/>
        <pt x="165" y="420" on="0"/>
        <pt x="197" y="308" on="0"/>
        <pt x="219" y="192" on="0"/>
        <pt x="219" y="131" on="1"/>
        <pt x="219" y="116" on="0"/>
        <pt x="216" y="86" on="0"/>
        <pt x="211" y="72" on="1"/>
        <pt x="245" y="59" on="0"/>
        <pt x="312" y="24" on="0"/>
        <pt x="377" y="-7" on="0"/>
        <pt x="439" y="-29" on="0"/>
        <pt x="469" y="-29" on="1"/>
        <pt x="500" y="-29" on="0"/>
        <pt x="545" y="-12" on="0"/>
        <pt x="577" y="20" on="0"/>
        <pt x="600" y="62" on="0"/>
        <pt x="608" y="88" on="1"/>
        <pt x="629" y="84" on="1"/>
        <pt x="598" y="-8" on="0"/>
        <pt x="506" y="-84" on="0"/>
        <pt x="440" y="-84" on="1"/>
        <pt x="403" y="-84" on="0"/>
        <pt x="336" y="-63" on="0"/>
        <pt x="275" y="-32" on="0"/>
        <pt x="219" y="4" on="0"/>
        <pt x="193" y="18" on="1"/>
        <pt x="174" y="-17" on="0"/>
        <pt x="114" y="-68" on="0"/>
        <pt x="74" y="-68" on="1"/>
        <pt x="39" y="-68" on="0"/>
        <pt x="0" y="-28" on="0"/>
        <pt x="0" y="-6" on="1"/>
        <pt x="0" y="15" on="0"/>
        <pt x="20" y="51" on="0"/>
        <pt x="53" y="77" on="0"/>
        <pt x="94" y="92" on="0"/>
        <pt x="115" y="92" on="1"/>
        <pt x="148" y="92" on="0"/>
        <pt x="184" y="80" on="1"/>
        <pt x="184" y="86" on="0"/>
        <pt x="186" y="97" on="0"/>
        <pt x="186" y="102" on="1"/>
        <pt x="186" y="155" on="0"/>
        <pt x="159" y="264" on="0"/>
        <pt x="118" y="375" on="0"/>
        <pt x="70" y="490" on="0"/>
        <pt x="29" y="608" on="0"/>
        <pt x="2" y="731" on="0"/>
        <pt x="2" y="795" on="1"/>
        <pt x="2" y="894" on="0"/>
        <pt x="61" y="1084" on="0"/>
        <pt x="167" y="1255" on="0"/>
        <pt x="312" y="1399" on="0"/>
        <pt x="485" y="1504" on="0"/>
        <pt x="678" y="1563" on="0"/>
        <pt x="778" y="1563" on="1"/>
        <pt x="872" y="1563" on="0"/>
        <pt x="1015" y="1515" on="0"/>
        <pt x="1111" y="1431" on="0"/>
        <pt x="1159" y="1317" on="0"/>
        <pt x="1159" y="1251" on="1"/>
        <pt x="1159" y="1200" on="0"/>
        <pt x="1129" y="1113" on="0"/>
        <pt x="1077" y="1037" on="0"/>
        <pt x="1006" y="971" on="0"/>
        <pt x="965" y="942" on="1"/>
      </contour>
      <contour>
        <pt x="94" y="-14" on="1"/>
        <pt x="120" y="-14" on="0"/>
        <pt x="155" y="13" on="0"/>
        <pt x="166" y="33" on="1"/>
        <pt x="147" y="42" on="0"/>
        <pt x="111" y="55" on="0"/>
        <pt x="94" y="55" on="1"/>
        <pt x="71" y="55" on="0"/>
        <pt x="49" y="31" on="0"/>
        <pt x="49" y="18" on="1"/>
        <pt x="49" y="4" on="0"/>
        <pt x="71" y="-14" on="0"/>
      </contour>
    </TTGlyph>
    <TTGlyph name="Lacute" xMin="0" yMin="-84" xMax="1159" yMax="1837">
      <component glyphName="L" x="0" y="0" flags="0x204"/>
      <component glyphName="acute" x="481" y="1110" flags="0x4"/>
    </TTGlyph>
    <TTGlyph name="Lcaron" xMin="0" yMin="-84" xMax="1355" yMax="1563">
      <component glyphName="L" x="0" y="0" flags="0x204"/>
      <component glyphName="quoteright" x="1167" y="-69" flags="0x4"/>
    </TTGlyph>
    <TTGlyph name="Lcommaaccent" xMin="0" yMin="-342" xMax="1159" yMax="1563">
      <component glyphName="L" x="0" y="0" flags="0x204"/>
      <component glyphName="commaaccent" x="-44" y="-67" flags="0x4"/>
    </TTGlyph>
    <TTGlyph name="Ldot" xMin="0" yMin="-84" xMax="1159" yMax="1563">
      <component glyphName="L" x="0" y="0" flags="0x204"/>
      <component glyphName="periodcentered" x="428" y="0" flags="0x4"/>
    </TTGlyph>
    <TTGlyph name="Lslash" xMin="-4" yMin="-84" xMax="1159" yMax="1563">
      <contour>
        <pt x="954" y="954" on="1"/>
        <pt x="984" y="974" on="0"/>
        <pt x="1038" y="1030" on="0"/>
        <pt x="1080" y="1099" on="0"/>
        <pt x="1104" y="1178" on="0"/>
        <pt x="1104" y="1221" on="1"/>
        <pt x="1104" y="1286" on="0"/>
        <pt x="1047" y="1391" on="0"/>
        <pt x="949" y="1464" on="0"/>
        <pt x="820" y="1503" on="0"/>
        <pt x="748" y="1503" on="1"/>
        <pt x="658" y="1503" on="0"/>
        <pt x="488" y="1454" on="0"/>
        <pt x="338" y="1366" on="0"/>
        <pt x="213" y="1242" on="0"/>
        <pt x="122" y="1092" on="0"/>
        <pt x="72" y="920" on="0"/>
        <pt x="72" y="827" on="1"/>
        <pt x="72" y="758" on="0"/>
        <pt x="97" y="631" on="0"/>
        <pt x="133" y="509" on="0"/>
        <pt x="174" y="389" on="0"/>
        <pt x="190" y="328" on="1"/>
        <pt x="212" y="340" on="0"/>
        <pt x="253" y="361" on="0"/>
        <pt x="268" y="369" on="1"/>
        <pt x="272" y="371" on="0"/>
        <pt x="295" y="383" on="0"/>
        <pt x="327" y="398" on="0"/>
        <pt x="363" y="415" on="0"/>
        <pt x="396" y="430" on="0"/>
        <pt x="421" y="439" on="0"/>
        <pt x="426" y="440" on="1"/>
        <pt x="429" y="440" on="0"/>
        <pt x="432" y="436" on="0"/>
        <pt x="432" y="434" on="1"/>
        <pt x="432" y="426" on="0"/>
        <pt x="423" y="418" on="0"/>
        <pt x="420" y="416" on="1"/>
        <pt x="367" y="390" on="0"/>
        <pt x="256" y="327" on="0"/>
        <pt x="199" y="295" on="1"/>
        <pt x="208" y="255" on="0"/>
        <pt x="219" y="173" on="0"/>
        <pt x="219" y="131" on="1"/>
        <pt x="219" y="116" on="0"/>
        <pt x="216" y="86" on="0"/>
        <pt x="211" y="72" on="1"/>
        <pt x="245" y="59" on="0"/>
        <pt x="312" y="24" on="0"/>
        <pt x="377" y="-7" on="0"/>
        <pt x="439" y="-29" on="0"/>
        <pt x="469" y="-29" on="1"/>
        <pt x="500" y="-29" on="0"/>
        <pt x="545" y="-12" on="0"/>
        <pt x="577" y="20" on="0"/>
        <pt x="600" y="62" on="0"/>
        <pt x="608" y="88" on="1"/>
        <pt x="629" y="84" on="1"/>
        <pt x="598" y="-8" on="0"/>
        <pt x="506" y="-84" on="0"/>
        <pt x="440" y="-84" on="1"/>
        <pt x="403" y="-84" on="0"/>
        <pt x="336" y="-63" on="0"/>
        <pt x="275" y="-32" on="0"/>
        <pt x="219" y="4" on="0"/>
        <pt x="193" y="18" on="1"/>
        <pt x="174" y="-17" on="0"/>
        <pt x="114" y="-68" on="0"/>
        <pt x="74" y="-68" on="1"/>
        <pt x="39" y="-68" on="0"/>
        <pt x="0" y="-28" on="0"/>
        <pt x="0" y="-6" on="1"/>
        <pt x="0" y="15" on="0"/>
        <pt x="20" y="51" on="0"/>
        <pt x="53" y="77" on="0"/>
        <pt x="94" y="92" on="0"/>
        <pt x="115" y="92" on="1"/>
        <pt x="148" y="92" on="0"/>
        <pt x="184" y="80" on="1"/>
        <pt x="184" y="86" on="0"/>
        <pt x="186" y="97" on="0"/>
        <pt x="186" y="102" on="1"/>
        <pt x="186" y="144" on="0"/>
        <pt x="170" y="226" on="0"/>
        <pt x="156" y="268" on="1"/>
        <pt x="117" y="247" on="0"/>
        <pt x="44" y="205" on="0"/>
        <pt x="10" y="188" on="1"/>
        <pt x="7" y="185" on="0"/>
        <pt x="-2" y="202" on="0"/>
        <pt x="-2" y="211" on="1"/>
        <pt x="-4" y="219" on="0"/>
        <pt x="1" y="231" on="0"/>
        <pt x="4" y="233" on="1"/>
        <pt x="30" y="246" on="0"/>
        <pt x="105" y="283" on="0"/>
        <pt x="143" y="303" on="1"/>
        <pt x="123" y="361" on="0"/>
        <pt x="74" y="479" on="0"/>
        <pt x="31" y="601" on="0"/>
        <pt x="2" y="728" on="0"/>
        <pt x="2" y="795" on="1"/>
        <pt x="2" y="894" on="0"/>
        <pt x="61" y="1084" on="0"/>
        <pt x="167" y="1255" on="0"/>
        <pt x="312" y="1399" on="0"/>
        <pt x="485" y="1504" on="0"/>
        <pt x="678" y="1563" on="0"/>
        <pt x="778" y="1563" on="1"/>
        <pt x="872" y="1563" on="0"/>
        <pt x="1015" y="1515" on="0"/>
        <pt x="1111" y="1431" on="0"/>
        <pt x="1159" y="1317" on="0"/>
        <pt x="1159" y="1251" on="1"/>
        <pt x="1159" y="1200" on="0"/>
        <pt x="1129" y="1113" on="0"/>
        <pt x="1077" y="1037" on="0"/>
        <pt x="1006" y="971" on="0"/>
        <pt x="965" y="942" on="1"/>
      </contour>
      <contour>
        <pt x="94" y="-14" on="1"/>
        <pt x="120" y="-14" on="0"/>
        <pt x="155" y="13" on="0"/>
        <pt x="166" y="33" on="1"/>
        <pt x="147" y="42" on="0"/>
        <pt x="111" y="55" on="0"/>
        <pt x="94" y="55" on="1"/>
        <pt x="71" y="55" on="0"/>
        <pt x="49" y="31" on="0"/>
        <pt x="49" y="18" on="1"/>
        <pt x="49" y="4" on="0"/>
        <pt x="71" y="-14" on="0"/>
      </contour>
    </TTGlyph>
    <TTGlyph name="M" xMin="0" yMin="-121" xMax="1679" yMax="1483">
      <contour>
        <pt x="1679" y="158" on="1"/>
        <pt x="1676" y="147" on="0"/>
        <pt x="1654" y="98" on="0"/>
        <pt x="1621" y="36" on="0"/>
        <pt x="1579" y="-31" on="0"/>
        <pt x="1533" y="-86" on="0"/>
        <pt x="1483" y="-121" on="0"/>
        <pt x="1460" y="-121" on="1"/>
        <pt x="1425" y="-121" on="0"/>
        <pt x="1376" y="-57" on="0"/>
        <pt x="1346" y="39" on="0"/>
        <pt x="1333" y="153" on="0"/>
        <pt x="1333" y="203" on="1"/>
        <pt x="1333" y="358" on="0"/>
        <pt x="1373" y="661" on="0"/>
        <pt x="1438" y="959" on="0"/>
        <pt x="1521" y="1252" on="0"/>
        <pt x="1563" y="1397" on="1"/>
        <pt x="1542" y="1397" on="0"/>
        <pt x="1467" y="1297" on="0"/>
        <pt x="1371" y="1133" on="0"/>
        <pt x="1259" y="921" on="0"/>
        <pt x="1145" y="698" on="0"/>
        <pt x="1033" y="481" on="0"/>
        <pt x="985" y="393" on="1"/>
        <pt x="980" y="384" on="0"/>
        <pt x="964" y="357" on="0"/>
        <pt x="943" y="333" on="0"/>
        <pt x="917" y="315" on="0"/>
        <pt x="903" y="315" on="1"/>
        <pt x="888" y="315" on="0"/>
        <pt x="876" y="335" on="0"/>
        <pt x="874" y="352" on="1"/>
        <pt x="869" y="411" on="0"/>
        <pt x="861" y="560" on="0"/>
        <pt x="852" y="715" on="0"/>
        <pt x="842" y="866" on="0"/>
        <pt x="830" y="991" on="0"/>
        <pt x="814" y="1078" on="0"/>
        <pt x="803" y="1092" on="1"/>
        <pt x="803" y="1084" on="0"/>
        <pt x="804" y="1074" on="1"/>
        <pt x="804" y="1066" on="0"/>
        <pt x="805" y="1042" on="0"/>
        <pt x="805" y="1028" on="1"/>
        <pt x="805" y="978" on="0"/>
        <pt x="785" y="832" on="0"/>
        <pt x="745" y="661" on="0"/>
        <pt x="686" y="476" on="0"/>
        <pt x="608" y="298" on="0"/>
        <pt x="512" y="137" on="0"/>
        <pt x="396" y="16" on="0"/>
        <pt x="263" y="-55" on="0"/>
        <pt x="188" y="-55" on="1"/>
        <pt x="137" y="-55" on="0"/>
        <pt x="69" y="-16" on="0"/>
        <pt x="27" y="39" on="0"/>
        <pt x="5" y="98" on="0"/>
        <pt x="0" y="117" on="1"/>
        <pt x="10" y="121" on="1"/>
        <pt x="22" y="92" on="0"/>
        <pt x="64" y="54" on="0"/>
        <pt x="115" y="32" on="0"/>
        <pt x="172" y="23" on="0"/>
        <pt x="201" y="23" on="1"/>
        <pt x="267" y="23" on="0"/>
        <pt x="387" y="84" on="0"/>
        <pt x="492" y="189" on="0"/>
        <pt x="583" y="330" on="0"/>
        <pt x="658" y="490" on="0"/>
        <pt x="715" y="661" on="0"/>
        <pt x="754" y="827" on="0"/>
        <pt x="773" y="979" on="0"/>
        <pt x="772" y="1040" on="1"/>
        <pt x="772" y="1054" on="0"/>
        <pt x="768" y="1090" on="0"/>
        <pt x="766" y="1106" on="1"/>
        <pt x="767" y="1110" on="0"/>
        <pt x="774" y="1124" on="0"/>
        <pt x="786" y="1138" on="0"/>
        <pt x="803" y="1147" on="0"/>
        <pt x="815" y="1147" on="1"/>
        <pt x="843" y="1147" on="0"/>
        <pt x="880" y="1067" on="0"/>
        <pt x="902" y="937" on="0"/>
        <pt x="914" y="772" on="0"/>
        <pt x="922" y="602" on="0"/>
        <pt x="928" y="442" on="0"/>
        <pt x="934" y="383" on="1"/>
        <pt x="940" y="383" on="0"/>
        <pt x="975" y="445" on="0"/>
        <pt x="1029" y="550" on="0"/>
        <pt x="1099" y="691" on="0"/>
        <pt x="1178" y="849" on="0"/>
        <pt x="1265" y="1017" on="0"/>
        <pt x="1352" y="1175" on="0"/>
        <pt x="1438" y="1316" on="0"/>
        <pt x="1516" y="1421" on="0"/>
        <pt x="1584" y="1483" on="0"/>
        <pt x="1610" y="1483" on="1"/>
        <pt x="1618" y="1478" on="0"/>
        <pt x="1634" y="1465" on="0"/>
        <pt x="1634" y="1456" on="1"/>
        <pt x="1597" y="1321" on="0"/>
        <pt x="1515" y="1018" on="0"/>
        <pt x="1446" y="700" on="0"/>
        <pt x="1401" y="376" on="0"/>
        <pt x="1401" y="219" on="1"/>
        <pt x="1401" y="181" on="0"/>
        <pt x="1413" y="90" on="0"/>
        <pt x="1437" y="12" on="0"/>
        <pt x="1471" y="-41" on="0"/>
        <pt x="1493" y="-41" on="1"/>
        <pt x="1512" y="-41" on="0"/>
        <pt x="1564" y="7" on="0"/>
        <pt x="1616" y="72" on="0"/>
        <pt x="1659" y="141" on="0"/>
        <pt x="1669" y="162" on="1"/>
      </contour>
    </TTGlyph>
    <TTGlyph name="N" xMin="0" yMin="-225" xMax="2083" yMax="1651">
      <contour>
        <pt x="2075" y="1411" on="1"/>
        <pt x="2055" y="1441" on="0"/>
        <pt x="2011" y="1500" on="0"/>
        <pt x="1949" y="1548" on="0"/>
        <pt x="1865" y="1577" on="0"/>
        <pt x="1806" y="1577" on="1"/>
        <pt x="1701" y="1577" on="0"/>
        <pt x="1535" y="1475" on="0"/>
        <pt x="1407" y="1300" on="0"/>
        <pt x="1313" y="1069" on="0"/>
        <pt x="1244" y="810" on="0"/>
        <pt x="1199" y="540" on="0"/>
        <pt x="1168" y="287" on="0"/>
        <pt x="1149" y="68" on="0"/>
        <pt x="1141" y="-10" on="1"/>
        <pt x="1136" y="-26" on="0"/>
        <pt x="1102" y="-51" on="0"/>
        <pt x="1090" y="-51" on="1"/>
        <pt x="1076" y="-51" on="0"/>
        <pt x="1073" y="-25" on="1"/>
        <pt x="1065" y="30" on="0"/>
        <pt x="1045" y="182" on="0"/>
        <pt x="1017" y="354" on="0"/>
        <pt x="981" y="538" on="0"/>
        <pt x="932" y="714" on="0"/>
        <pt x="868" y="871" on="0"/>
        <pt x="827" y="932" on="1"/>
        <pt x="807" y="861" on="0"/>
        <pt x="753" y="687" on="0"/>
        <pt x="688" y="498" on="0"/>
        <pt x="611" y="303" on="0"/>
        <pt x="527" y="121" on="0"/>
        <pt x="435" y="-38" on="0"/>
        <pt x="338" y="-156" on="0"/>
        <pt x="237" y="-225" on="0"/>
        <pt x="186" y="-225" on="1"/>
        <pt x="138" y="-225" on="0"/>
        <pt x="71" y="-189" on="0"/>
        <pt x="27" y="-142" on="0"/>
        <pt x="4" y="-98" on="0"/>
        <pt x="0" y="-90" on="1"/>
        <pt x="8" y="-84" on="1"/>
        <pt x="17" y="-94" on="0"/>
        <pt x="44" y="-119" on="0"/>
        <pt x="86" y="-141" on="0"/>
        <pt x="146" y="-156" on="0"/>
        <pt x="188" y="-156" on="1"/>
        <pt x="243" y="-156" on="0"/>
        <pt x="347" y="-85" on="0"/>
        <pt x="444" y="36" on="0"/>
        <pt x="532" y="197" on="0"/>
        <pt x="610" y="378" on="0"/>
        <pt x="679" y="569" on="0"/>
        <pt x="737" y="750" on="0"/>
        <pt x="782" y="911" on="0"/>
        <pt x="799" y="971" on="1"/>
        <pt x="761" y="1019" on="0"/>
        <pt x="665" y="1073" on="0"/>
        <pt x="608" y="1073" on="1"/>
        <pt x="558" y="1073" on="0"/>
        <pt x="480" y="1041" on="0"/>
        <pt x="427" y="988" on="0"/>
        <pt x="399" y="918" on="0"/>
        <pt x="399" y="881" on="1"/>
        <pt x="399" y="841" on="0"/>
        <pt x="423" y="778" on="0"/>
        <pt x="457" y="731" on="0"/>
        <pt x="495" y="699" on="0"/>
        <pt x="510" y="690" on="1"/>
        <pt x="502" y="680" on="1"/>
        <pt x="492" y="685" on="0"/>
        <pt x="446" y="719" on="0"/>
        <pt x="398" y="774" on="0"/>
        <pt x="362" y="848" on="0"/>
        <pt x="362" y="893" on="1"/>
        <pt x="362" y="954" on="0"/>
        <pt x="405" y="1043" on="0"/>
        <pt x="474" y="1101" on="0"/>
        <pt x="561" y="1130" on="0"/>
        <pt x="606" y="1130" on="1"/>
        <pt x="669" y="1130" on="0"/>
        <pt x="774" y="1082" on="0"/>
        <pt x="817" y="1038" on="1"/>
        <pt x="820" y="1048" on="0"/>
        <pt x="826" y="1069" on="0"/>
        <pt x="829" y="1075" on="1"/>
        <pt x="834" y="1090" on="0"/>
        <pt x="849" y="1105" on="0"/>
        <pt x="863" y="1111" on="0"/>
        <pt x="873" y="1112" on="0"/>
        <pt x="874" y="1112" on="1"/>
        <pt x="871" y="1095" on="0"/>
        <pt x="857" y="1041" on="0"/>
        <pt x="848" y="1006" on="1"/>
        <pt x="893" y="950" on="0"/>
        <pt x="963" y="803" on="0"/>
        <pt x="1017" y="639" on="0"/>
        <pt x="1056" y="466" on="0"/>
        <pt x="1084" y="305" on="0"/>
        <pt x="1105" y="163" on="0"/>
        <pt x="1114" y="111" on="1"/>
        <pt x="1122" y="195" on="0"/>
        <pt x="1148" y="417" on="0"/>
        <pt x="1186" y="666" on="0"/>
        <pt x="1241" y="926" on="0"/>
        <pt x="1317" y="1173" on="0"/>
        <pt x="1417" y="1392" on="0"/>
        <pt x="1545" y="1556" on="0"/>
        <pt x="1704" y="1651" on="0"/>
        <pt x="1802" y="1651" on="1"/>
        <pt x="1849" y="1651" on="0"/>
        <pt x="1925" y="1625" on="0"/>
        <pt x="1984" y="1583" on="0"/>
        <pt x="2027" y="1531" on="0"/>
        <pt x="2058" y="1478" on="0"/>
        <pt x="2078" y="1431" on="0"/>
        <pt x="2083" y="1415" on="1"/>
      </contour>
    </TTGlyph>
    <TTGlyph name="Nacute" xMin="0" yMin="-225" xMax="2083" yMax="1651">
      <component glyphName="N" x="0" y="0" flags="0x204"/>
      <component glyphName="acute" x="858" y="707" flags="0x4"/>
    </TTGlyph>
    <TTGlyph name="Ncaron" xMin="0" yMin="-225" xMax="2083" yMax="1651">
      <component glyphName="N" x="0" y="0" flags="0x204"/>
      <component glyphName="caron" x="797" y="707" flags="0x4"/>
    </TTGlyph>
    <TTGlyph name="Ncommaaccent" xMin="0" yMin="-248" xMax="2083" yMax="1651">
      <component glyphName="N" x="0" y="0" flags="0x204"/>
      <component glyphName="commaaccent" x="485" y="27" flags="0x4"/>
    </TTGlyph>
    <TTGlyph name="Ntilde" xMin="0" yMin="-225" xMax="2083" yMax="1651">
      <component glyphName="N" x="0" y="0" flags="0x204"/>
      <component glyphName="tilde" x="782" y="707" flags="0x4"/>
    </TTGlyph>
    <TTGlyph name="O" xMin="78" yMin="-72" xMax="1128" yMax="1534">
      <contour>
        <pt x="602" y="-4" on="1"/>
        <pt x="685" y="-4" on="0"/>
        <pt x="820" y="54" on="0"/>
        <pt x="925" y="152" on="0"/>
        <pt x="1003" y="281" on="0"/>
        <pt x="1053" y="425" on="0"/>
        <pt x="1077" y="573" on="0"/>
        <pt x="1077" y="641" on="1"/>
        <pt x="1077" y="744" on="0"/>
        <pt x="1049" y="942" on="0"/>
        <pt x="1024" y="1032" on="1"/>
        <pt x="1024" y="1034" on="0"/>
        <pt x="1010" y="1039" on="0"/>
        <pt x="1010" y="1047" on="1"/>
        <pt x="1010" y="1052" on="0"/>
        <pt x="1021" y="1068" on="0"/>
        <pt x="1038" y="1083" on="0"/>
        <pt x="1057" y="1094" on="0"/>
        <pt x="1065" y="1094" on="1"/>
        <pt x="1074" y="1094" on="0"/>
        <pt x="1090" y="1056" on="0"/>
        <pt x="1104" y="994" on="0"/>
        <pt x="1115" y="915" on="0"/>
        <pt x="1124" y="834" on="0"/>
        <pt x="1128" y="758" on="0"/>
        <pt x="1128" y="729" on="1"/>
        <pt x="1128" y="652" on="0"/>
        <pt x="1103" y="473" on="0"/>
        <pt x="1049" y="295" on="0"/>
        <pt x="964" y="130" on="0"/>
        <pt x="842" y="4" on="0"/>
        <pt x="682" y="-72" on="0"/>
        <pt x="580" y="-72" on="1"/>
        <pt x="492" y="-72" on="0"/>
        <pt x="349" y="-12" on="0"/>
        <pt x="237" y="92" on="0"/>
        <pt x="156" y="234" on="0"/>
        <pt x="103" y="399" on="0"/>
        <pt x="78" y="578" on="0"/>
        <pt x="78" y="668" on="1"/>
        <pt x="78" y="766" on="0"/>
        <pt x="114" y="970" on="0"/>
        <pt x="185" y="1163" on="0"/>
        <pt x="292" y="1333" on="0"/>
        <pt x="435" y="1460" on="0"/>
        <pt x="615" y="1534" on="0"/>
        <pt x="723" y="1534" on="1"/>
        <pt x="803" y="1534" on="0"/>
        <pt x="921" y="1479" on="0"/>
        <pt x="999" y="1392" on="0"/>
        <pt x="1038" y="1286" on="0"/>
        <pt x="1038" y="1235" on="1"/>
        <pt x="1038" y="1175" on="0"/>
        <pt x="991" y="1065" on="0"/>
        <pt x="938" y="1014" on="1"/>
        <pt x="926" y="1030" on="1"/>
        <pt x="963" y="1067" on="0"/>
        <pt x="985" y="1154" on="0"/>
        <pt x="985" y="1196" on="1"/>
        <pt x="985" y="1249" on="0"/>
        <pt x="938" y="1347" on="0"/>
        <pt x="856" y="1423" on="0"/>
        <pt x="747" y="1468" on="0"/>
        <pt x="686" y="1468" on="1"/>
        <pt x="585" y="1468" on="0"/>
        <pt x="426" y="1400" on="0"/>
        <pt x="304" y="1284" on="0"/>
        <pt x="217" y="1132" on="0"/>
        <pt x="162" y="963" on="0"/>
        <pt x="137" y="789" on="0"/>
        <pt x="137" y="709" on="1"/>
        <pt x="137" y="639" on="0"/>
        <pt x="159" y="478" on="0"/>
        <pt x="205" y="320" on="0"/>
        <pt x="279" y="174" on="0"/>
        <pt x="382" y="63" on="0"/>
        <pt x="517" y="-4" on="0"/>
      </contour>
    </TTGlyph>
    <TTGlyph name="OE" xMin="78" yMin="-72" xMax="2337" yMax="1534">
      <contour>
        <pt x="2228" y="299" on="1"/>
        <pt x="2217" y="282" on="0"/>
        <pt x="2170" y="215" on="0"/>
        <pt x="2102" y="132" on="0"/>
        <pt x="2013" y="45" on="0"/>
        <pt x="1908" y="-26" on="0"/>
        <pt x="1788" y="-72" on="0"/>
        <pt x="1722" y="-72" on="1"/>
        <pt x="1620" y="-72" on="0"/>
        <pt x="1503" y="43" on="0"/>
        <pt x="1501" y="158" on="1"/>
        <pt x="1423" y="168" on="0"/>
        <pt x="1293" y="229" on="0"/>
        <pt x="1193" y="322" on="0"/>
        <pt x="1125" y="443" on="0"/>
        <pt x="1108" y="514" on="1"/>
        <pt x="1095" y="444" on="0"/>
        <pt x="1052" y="302" on="0"/>
        <pt x="988" y="172" on="0"/>
        <pt x="903" y="59" on="0"/>
        <pt x="794" y="-24" on="0"/>
        <pt x="660" y="-72" on="0"/>
        <pt x="580" y="-72" on="1"/>
        <pt x="492" y="-72" on="0"/>
        <pt x="349" y="-12" on="0"/>
        <pt x="237" y="92" on="0"/>
        <pt x="156" y="234" on="0"/>
        <pt x="103" y="399" on="0"/>
        <pt x="78" y="578" on="0"/>
        <pt x="78" y="668" on="1"/>
        <pt x="78" y="766" on="0"/>
        <pt x="114" y="970" on="0"/>
        <pt x="185" y="1163" on="0"/>
        <pt x="292" y="1333" on="0"/>
        <pt x="435" y="1460" on="0"/>
        <pt x="615" y="1534" on="0"/>
        <pt x="723" y="1534" on="1"/>
        <pt x="803" y="1534" on="0"/>
        <pt x="921" y="1479" on="0"/>
        <pt x="999" y="1392" on="0"/>
        <pt x="1038" y="1286" on="0"/>
        <pt x="1038" y="1235" on="1"/>
        <pt x="1038" y="1175" on="0"/>
        <pt x="991" y="1065" on="0"/>
        <pt x="938" y="1014" on="1"/>
        <pt x="926" y="1030" on="1"/>
        <pt x="963" y="1067" on="0"/>
        <pt x="985" y="1154" on="0"/>
        <pt x="985" y="1196" on="1"/>
        <pt x="985" y="1249" on="0"/>
        <pt x="938" y="1347" on="0"/>
        <pt x="856" y="1423" on="0"/>
        <pt x="747" y="1468" on="0"/>
        <pt x="686" y="1468" on="1"/>
        <pt x="585" y="1468" on="0"/>
        <pt x="426" y="1400" on="0"/>
        <pt x="304" y="1284" on="0"/>
        <pt x="217" y="1132" on="0"/>
        <pt x="162" y="963" on="0"/>
        <pt x="137" y="789" on="0"/>
        <pt x="137" y="709" on="1"/>
        <pt x="137" y="639" on="0"/>
        <pt x="159" y="478" on="0"/>
        <pt x="205" y="320" on="0"/>
        <pt x="279" y="174" on="0"/>
        <pt x="382" y="63" on="0"/>
        <pt x="517" y="-4" on="0"/>
        <pt x="602" y="-4" on="1"/>
        <pt x="685" y="-4" on="0"/>
        <pt x="820" y="54" on="0"/>
        <pt x="925" y="152" on="0"/>
        <pt x="1003" y="281" on="0"/>
        <pt x="1053" y="425" on="0"/>
        <pt x="1077" y="573" on="0"/>
        <pt x="1077" y="641" on="1"/>
        <pt x="1077" y="744" on="0"/>
        <pt x="1049" y="942" on="0"/>
        <pt x="1024" y="1032" on="1"/>
        <pt x="1024" y="1034" on="0"/>
        <pt x="1010" y="1039" on="0"/>
        <pt x="1010" y="1047" on="1"/>
        <pt x="1010" y="1052" on="0"/>
        <pt x="1021" y="1068" on="0"/>
        <pt x="1038" y="1083" on="0"/>
        <pt x="1057" y="1094" on="0"/>
        <pt x="1065" y="1094" on="1"/>
        <pt x="1074" y="1094" on="0"/>
        <pt x="1091" y="1052" on="0"/>
        <pt x="1105" y="984" on="0"/>
        <pt x="1116" y="899" on="0"/>
        <pt x="1120" y="856" on="1"/>
        <pt x="1148" y="945" on="0"/>
        <pt x="1248" y="1111" on="0"/>
        <pt x="1381" y="1256" on="0"/>
        <pt x="1543" y="1376" on="0"/>
        <pt x="1722" y="1462" on="0"/>
        <pt x="1914" y="1509" on="0"/>
        <pt x="2011" y="1509" on="1"/>
        <pt x="2059" y="1509" on="0"/>
        <pt x="2172" y="1486" on="0"/>
        <pt x="2271" y="1431" on="0"/>
        <pt x="2337" y="1339" on="0"/>
        <pt x="2337" y="1270" on="1"/>
        <pt x="2337" y="1217" on="0"/>
        <pt x="2271" y="1087" on="0"/>
        <pt x="2202" y="1028" on="1"/>
        <pt x="2193" y="1036" on="1"/>
        <pt x="2241" y="1086" on="0"/>
        <pt x="2279" y="1188" on="0"/>
        <pt x="2279" y="1247" on="1"/>
        <pt x="2279" y="1302" on="0"/>
        <pt x="2222" y="1377" on="0"/>
        <pt x="2138" y="1423" on="0"/>
        <pt x="2041" y="1442" on="0"/>
        <pt x="2001" y="1442" on="1"/>
        <pt x="1890" y="1442" on="0"/>
        <pt x="1674" y="1387" on="0"/>
        <pt x="1480" y="1287" on="0"/>
        <pt x="1315" y="1147" on="0"/>
        <pt x="1196" y="977" on="0"/>
        <pt x="1128" y="781" on="0"/>
        <pt x="1128" y="676" on="1"/>
        <pt x="1128" y="593" on="0"/>
        <pt x="1185" y="442" on="0"/>
        <pt x="1287" y="320" on="0"/>
        <pt x="1426" y="235" on="0"/>
        <pt x="1507" y="219" on="1"/>
        <pt x="1517" y="263" on="0"/>
        <pt x="1562" y="341" on="0"/>
        <pt x="1624" y="400" on="0"/>
        <pt x="1699" y="434" on="0"/>
        <pt x="1739" y="434" on="1"/>
        <pt x="1782" y="434" on="0"/>
        <pt x="1841" y="387" on="0"/>
        <pt x="1841" y="336" on="1"/>
        <pt x="1841" y="287" on="0"/>
        <pt x="1793" y="217" on="0"/>
        <pt x="1719" y="173" on="0"/>
        <pt x="1628" y="152" on="0"/>
        <pt x="1585" y="152" on="1"/>
        <pt x="1573" y="152" on="0"/>
        <pt x="1549" y="152" on="0"/>
        <pt x="1538" y="154" on="1"/>
        <pt x="1540" y="118" on="0"/>
        <pt x="1574" y="59" on="0"/>
        <pt x="1627" y="18" on="0"/>
        <pt x="1696" y="-4" on="0"/>
        <pt x="1733" y="-4" on="1"/>
        <pt x="1866" y="-4" on="0"/>
        <pt x="2114" y="154" on="0"/>
        <pt x="2216" y="307" on="1"/>
      </contour>
      <contour>
        <pt x="1735" y="381" on="1"/>
        <pt x="1693" y="381" on="0"/>
        <pt x="1627" y="355" on="0"/>
        <pt x="1579" y="310" on="0"/>
        <pt x="1548" y="249" on="0"/>
        <pt x="1542" y="213" on="1"/>
        <pt x="1556" y="211" on="0"/>
        <pt x="1583" y="211" on="0"/>
        <pt x="1597" y="211" on="1"/>
        <pt x="1632" y="211" on="0"/>
        <pt x="1707" y="224" on="0"/>
        <pt x="1770" y="253" on="0"/>
        <pt x="1810" y="296" on="0"/>
        <pt x="1810" y="326" on="1"/>
        <pt x="1810" y="341" on="0"/>
        <pt x="1796" y="361" on="0"/>
        <pt x="1774" y="375" on="0"/>
        <pt x="1748" y="381" on="0"/>
      </contour>
    </TTGlyph>
    <TTGlyph name="Oacute" xMin="78" yMin="-72" xMax="1128" yMax="1808">
      <component glyphName="O" x="0" y="0" flags="0x204"/>
      <component glyphName="acute" x="479" y="1081" flags="0x4"/>
    </TTGlyph>
    <TTGlyph name="Obreve" xMin="78" yMin="-72" xMax="1128" yMax="1795">
      <component glyphName="O" x="0" y="0" flags="0x204"/>
      <component glyphName="breve" x="414" y="1081" flags="0x4"/>
    </TTGlyph>
    <TTGlyph name="Ocircumflex" xMin="78" yMin="-72" xMax="1128" yMax="1798">
      <component glyphName="O" x="0" y="0" flags="0x204"/>
      <component glyphName="circumflex" x="414" y="1081" flags="0x4"/>
    </TTGlyph>
    <TTGlyph name="Odieresis" xMin="78" yMin="-72" xMax="1128" yMax="1722">
      <component glyphName="O" x="0" y="0" flags="0x204"/>
      <component glyphName="dieresis" x="403" y="1081" flags="0x4"/>
    </TTGlyph>
    <TTGlyph name="Ograve" xMin="78" yMin="-72" xMax="1128" yMax="1820">
      <component glyphName="O" x="0" y="0" flags="0x204"/>
      <component glyphName="grave" x="367" y="1081" flags="0x4"/>
    </TTGlyph>
    <TTGlyph name="Ohungarumlaut" xMin="78" yMin="-72" xMax="1128" yMax="1808">
      <component glyphName="O" x="0" y="0" flags="0x204"/>
      <component glyphName="hungarumlaut" x="416" y="1081" flags="0x4"/>
    </TTGlyph>
    <TTGlyph name="Omacron" xMin="78" yMin="-72" xMax="1128" yMax="1706">
      <component glyphName="O" x="0" y="0" flags="0x204"/>
      <component glyphName="macron" x="403" y="1081" flags="0x4"/>
    </TTGlyph>
    <TTGlyph name="Oslash" xMin="78" yMin="-182" xMax="1153" yMax="1640">
      <contour>
        <pt x="1096" y="1634" on="1"/>
        <pt x="1099" y="1637" on="0"/>
        <pt x="1127" y="1640" on="0"/>
        <pt x="1135" y="1638" on="1"/>
        <pt x="1143" y="1638" on="0"/>
        <pt x="1153" y="1630" on="0"/>
        <pt x="1153" y="1624" on="1"/>
        <pt x="1153" y="1622" on="0"/>
        <pt x="1151" y="1620" on="1"/>
        <pt x="1149" y="1618" on="1"/>
        <pt x="1117" y="1559" on="0"/>
        <pt x="1046" y="1432" on="0"/>
        <pt x="1008" y="1364" on="1"/>
        <pt x="1038" y="1299" on="0"/>
        <pt x="1038" y="1235" on="1"/>
        <pt x="1038" y="1175" on="0"/>
        <pt x="991" y="1065" on="0"/>
        <pt x="938" y="1014" on="1"/>
        <pt x="926" y="1030" on="1"/>
        <pt x="963" y="1067" on="0"/>
        <pt x="985" y="1154" on="0"/>
        <pt x="985" y="1196" on="1"/>
        <pt x="985" y="1219" on="0"/>
        <pt x="974" y="1265" on="0"/>
        <pt x="965" y="1288" on="1"/>
        <pt x="887" y="1150" on="0"/>
        <pt x="718" y="853" on="0"/>
        <pt x="549" y="555" on="0"/>
        <pt x="384" y="267" on="0"/>
        <pt x="311" y="139" on="1"/>
        <pt x="365" y="74" on="0"/>
        <pt x="508" y="-4" on="0"/>
        <pt x="602" y="-4" on="1"/>
        <pt x="685" y="-4" on="0"/>
        <pt x="820" y="54" on="0"/>
        <pt x="925" y="152" on="0"/>
        <pt x="1003" y="281" on="0"/>
        <pt x="1053" y="425" on="0"/>
        <pt x="1077" y="573" on="0"/>
        <pt x="1077" y="641" on="1"/>
        <pt x="1077" y="744" on="0"/>
        <pt x="1049" y="942" on="0"/>
        <pt x="1024" y="1032" on="1"/>
        <pt x="1024" y="1034" on="0"/>
        <pt x="1010" y="1039" on="0"/>
        <pt x="1010" y="1047" on="1"/>
        <pt x="1010" y="1052" on="0"/>
        <pt x="1021" y="1068" on="0"/>
        <pt x="1038" y="1083" on="0"/>
        <pt x="1057" y="1094" on="0"/>
        <pt x="1065" y="1094" on="1"/>
        <pt x="1074" y="1094" on="0"/>
        <pt x="1090" y="1056" on="0"/>
        <pt x="1104" y="994" on="0"/>
        <pt x="1115" y="915" on="0"/>
        <pt x="1124" y="834" on="0"/>
        <pt x="1128" y="758" on="0"/>
        <pt x="1128" y="729" on="1"/>
        <pt x="1128" y="652" on="0"/>
        <pt x="1103" y="473" on="0"/>
        <pt x="1049" y="295" on="0"/>
        <pt x="964" y="130" on="0"/>
        <pt x="842" y="4" on="0"/>
        <pt x="682" y="-72" on="0"/>
        <pt x="580" y="-72" on="1"/>
        <pt x="481" y="-72" on="0"/>
        <pt x="329" y="2" on="0"/>
        <pt x="270" y="63" on="1"/>
        <pt x="235" y="0" on="0"/>
        <pt x="171" y="-113" on="0"/>
        <pt x="143" y="-164" on="1"/>
        <pt x="141" y="-175" on="0"/>
        <pt x="129" y="-182" on="0"/>
        <pt x="121" y="-180" on="1"/>
        <pt x="108" y="-178" on="0"/>
        <pt x="88" y="-161" on="0"/>
        <pt x="96" y="-147" on="1"/>
        <pt x="127" y="-93" on="0"/>
        <pt x="197" y="31" on="0"/>
        <pt x="238" y="102" on="1"/>
        <pt x="196" y="156" on="0"/>
        <pt x="136" y="288" on="0"/>
        <pt x="97" y="435" on="0"/>
        <pt x="78" y="590" on="0"/>
        <pt x="78" y="668" on="1"/>
        <pt x="78" y="766" on="0"/>
        <pt x="114" y="970" on="0"/>
        <pt x="185" y="1163" on="0"/>
        <pt x="292" y="1333" on="0"/>
        <pt x="435" y="1460" on="0"/>
        <pt x="615" y="1534" on="0"/>
        <pt x="723" y="1534" on="1"/>
        <pt x="810" y="1534" on="0"/>
        <pt x="935" y="1469" on="0"/>
        <pt x="973" y="1419" on="1"/>
        <pt x="1007" y="1478" on="0"/>
        <pt x="1068" y="1585" on="0"/>
      </contour>
      <contour>
        <pt x="137" y="709" on="1"/>
        <pt x="137" y="647" on="0"/>
        <pt x="153" y="509" on="0"/>
        <pt x="188" y="369" on="0"/>
        <pt x="242" y="236" on="0"/>
        <pt x="281" y="180" on="1"/>
        <pt x="355" y="312" on="0"/>
        <pt x="521" y="608" on="0"/>
        <pt x="690" y="911" on="0"/>
        <pt x="857" y="1211" on="0"/>
        <pt x="932" y="1346" on="1"/>
        <pt x="912" y="1373" on="0"/>
        <pt x="858" y="1417" on="0"/>
        <pt x="795" y="1450" on="0"/>
        <pt x="723" y="1468" on="0"/>
        <pt x="686" y="1468" on="1"/>
        <pt x="585" y="1468" on="0"/>
        <pt x="426" y="1400" on="0"/>
        <pt x="304" y="1284" on="0"/>
        <pt x="217" y="1132" on="0"/>
        <pt x="162" y="963" on="0"/>
        <pt x="137" y="789" on="0"/>
      </contour>
    </TTGlyph>
    <TTGlyph name="Oslashacute" xMin="78" yMin="-182" xMax="1153" yMax="1808">
      <component glyphName="Oslash" x="0" y="0" flags="0x204"/>
      <component glyphName="acute" x="463" y="1081" flags="0x4"/>
    </TTGlyph>
    <TTGlyph name="Otilde" xMin="78" yMin="-72" xMax="1128" yMax="1763">
      <component glyphName="O" x="0" y="0" flags="0x204"/>
      <component glyphName="tilde" x="403" y="1081" flags="0x4"/>
    </TTGlyph>
    <TTGlyph name="P" xMin="74" yMin="-80" xMax="1133" yMax="1520">
      <contour>
        <pt x="334" y="1372" on="1"/>
        <pt x="334" y="1380" on="0"/>
        <pt x="338" y="1392" on="0"/>
        <pt x="346" y="1397" on="1"/>
        <pt x="352" y="1400" on="0"/>
        <pt x="370" y="1411" on="0"/>
        <pt x="379" y="1411" on="1"/>
        <pt x="384" y="1411" on="0"/>
        <pt x="393" y="1406" on="0"/>
        <pt x="393" y="1401" on="1"/>
        <pt x="395" y="1364" on="0"/>
        <pt x="392" y="1191" on="0"/>
        <pt x="387" y="1075" on="1"/>
        <pt x="448" y="1169" on="0"/>
        <pt x="583" y="1332" on="0"/>
        <pt x="721" y="1452" on="0"/>
        <pt x="858" y="1520" on="0"/>
        <pt x="922" y="1520" on="1"/>
        <pt x="970" y="1520" on="0"/>
        <pt x="1047" y="1491" on="0"/>
        <pt x="1103" y="1424" on="0"/>
        <pt x="1133" y="1313" on="0"/>
        <pt x="1133" y="1231" on="1"/>
        <pt x="1133" y="1159" on="0"/>
        <pt x="1095" y="984" on="0"/>
        <pt x="1026" y="805" on="0"/>
        <pt x="930" y="637" on="0"/>
        <pt x="813" y="507" on="0"/>
        <pt x="680" y="428" on="0"/>
        <pt x="608" y="428" on="1"/>
        <pt x="558" y="428" on="0"/>
        <pt x="487" y="463" on="0"/>
        <pt x="436" y="517" on="0"/>
        <pt x="405" y="586" on="0"/>
        <pt x="387" y="652" on="0"/>
        <pt x="380" y="711" on="0"/>
        <pt x="379" y="729" on="1"/>
        <pt x="399" y="733" on="1"/>
        <pt x="425" y="611" on="0"/>
        <pt x="527" y="492" on="0"/>
        <pt x="621" y="492" on="1"/>
        <pt x="696" y="492" on="0"/>
        <pt x="821" y="560" on="0"/>
        <pt x="919" y="673" on="0"/>
        <pt x="993" y="818" on="0"/>
        <pt x="1041" y="971" on="0"/>
        <pt x="1065" y="1121" on="0"/>
        <pt x="1065" y="1182" on="1"/>
        <pt x="1065" y="1229" on="0"/>
        <pt x="1049" y="1322" on="0"/>
        <pt x="1010" y="1396" on="0"/>
        <pt x="947" y="1442" on="0"/>
        <pt x="899" y="1442" on="1"/>
        <pt x="834" y="1442" on="0"/>
        <pt x="699" y="1380" on="0"/>
        <pt x="567" y="1269" on="0"/>
        <pt x="441" y="1117" on="0"/>
        <pt x="385" y="1026" on="1"/>
        <pt x="380" y="915" on="0"/>
        <pt x="364" y="665" on="0"/>
        <pt x="340" y="419" on="0"/>
        <pt x="306" y="194" on="0"/>
        <pt x="261" y="22" on="0"/>
        <pt x="205" y="-80" on="0"/>
        <pt x="170" y="-80" on="1"/>
        <pt x="135" y="-80" on="0"/>
        <pt x="97" y="-19" on="0"/>
        <pt x="78" y="68" on="0"/>
        <pt x="74" y="163" on="0"/>
        <pt x="74" y="197" on="1"/>
        <pt x="74" y="279" on="0"/>
        <pt x="110" y="468" on="0"/>
        <pt x="176" y="668" on="0"/>
        <pt x="267" y="871" on="0"/>
        <pt x="322" y="967" on="1"/>
        <pt x="328" y="1085" on="0"/>
        <pt x="334" y="1297" on="0"/>
      </contour>
      <contour>
        <pt x="174" y="6" on="1"/>
        <pt x="191" y="6" on="0"/>
        <pt x="222" y="81" on="0"/>
        <pt x="250" y="212" on="0"/>
        <pt x="274" y="388" on="0"/>
        <pt x="295" y="589" on="0"/>
        <pt x="311" y="804" on="0"/>
        <pt x="317" y="909" on="1"/>
        <pt x="275" y="825" on="0"/>
        <pt x="206" y="646" on="0"/>
        <pt x="156" y="464" on="0"/>
        <pt x="129" y="283" on="0"/>
        <pt x="129" y="197" on="1"/>
        <pt x="129" y="161" on="0"/>
        <pt x="135" y="92" on="0"/>
        <pt x="147" y="38" on="0"/>
        <pt x="164" y="6" on="0"/>
      </contour>
    </TTGlyph>
    <TTGlyph name="Q" xMin="0" yMin="-100" xMax="1124" yMax="1470">
      <contour>
        <pt x="989" y="143" on="1"/>
        <pt x="986" y="134" on="0"/>
        <pt x="964" y="91" on="0"/>
        <pt x="928" y="37" on="0"/>
        <pt x="879" y="-21" on="0"/>
        <pt x="818" y="-69" on="0"/>
        <pt x="746" y="-100" on="0"/>
        <pt x="705" y="-100" on="1"/>
        <pt x="672" y="-100" on="0"/>
        <pt x="597" y="-77" on="0"/>
        <pt x="520" y="-42" on="0"/>
        <pt x="443" y="-3" on="0"/>
        <pt x="408" y="12" on="1"/>
        <pt x="367" y="-12" on="0"/>
        <pt x="296" y="-39" on="0"/>
        <pt x="270" y="-39" on="1"/>
        <pt x="257" y="-39" on="0"/>
        <pt x="231" y="-34" on="0"/>
        <pt x="209" y="-22" on="0"/>
        <pt x="195" y="-3" on="0"/>
        <pt x="195" y="12" on="1"/>
        <pt x="195" y="28" on="0"/>
        <pt x="214" y="57" on="0"/>
        <pt x="249" y="78" on="0"/>
        <pt x="296" y="90" on="0"/>
        <pt x="324" y="90" on="1"/>
        <pt x="350" y="90" on="0"/>
        <pt x="404" y="77" on="0"/>
        <pt x="432" y="66" on="1"/>
        <pt x="495" y="111" on="0"/>
        <pt x="636" y="248" on="0"/>
        <pt x="774" y="415" on="0"/>
        <pt x="900" y="605" on="0"/>
        <pt x="996" y="802" on="0"/>
        <pt x="1053" y="997" on="0"/>
        <pt x="1053" y="1085" on="1"/>
        <pt x="1053" y="1159" on="0"/>
        <pt x="1007" y="1276" on="0"/>
        <pt x="926" y="1358" on="0"/>
        <pt x="817" y="1401" on="0"/>
        <pt x="754" y="1401" on="1"/>
        <pt x="658" y="1401" on="0"/>
        <pt x="479" y="1359" on="0"/>
        <pt x="321" y="1286" on="0"/>
        <pt x="191" y="1186" on="0"/>
        <pt x="97" y="1071" on="0"/>
        <pt x="45" y="944" on="0"/>
        <pt x="45" y="881" on="1"/>
        <pt x="45" y="833" on="0"/>
        <pt x="65" y="757" on="0"/>
        <pt x="96" y="701" on="0"/>
        <pt x="134" y="663" on="0"/>
        <pt x="152" y="651" on="1"/>
        <pt x="145" y="643" on="1"/>
        <pt x="118" y="657" on="0"/>
        <pt x="66" y="701" on="0"/>
        <pt x="25" y="760" on="0"/>
        <pt x="0" y="834" on="0"/>
        <pt x="0" y="877" on="1"/>
        <pt x="0" y="948" on="0"/>
        <pt x="66" y="1092" on="0"/>
        <pt x="180" y="1224" on="0"/>
        <pt x="332" y="1338" on="0"/>
        <pt x="504" y="1422" on="0"/>
        <pt x="686" y="1470" on="0"/>
        <pt x="774" y="1470" on="1"/>
        <pt x="845" y="1470" on="0"/>
        <pt x="972" y="1431" on="0"/>
        <pt x="1068" y="1345" on="0"/>
        <pt x="1124" y="1207" on="0"/>
        <pt x="1124" y="1108" on="1"/>
        <pt x="1124" y="1022" on="0"/>
        <pt x="1064" y="827" on="0"/>
        <pt x="963" y="627" on="0"/>
        <pt x="830" y="430" on="0"/>
        <pt x="683" y="253" on="0"/>
        <pt x="531" y="104" on="0"/>
        <pt x="463" y="53" on="1"/>
        <pt x="495" y="38" on="0"/>
        <pt x="560" y="6" on="0"/>
        <pt x="625" y="-21" on="0"/>
        <pt x="688" y="-39" on="0"/>
        <pt x="719" y="-39" on="1"/>
        <pt x="786" y="-39" on="0"/>
        <pt x="875" y="4" on="0"/>
        <pt x="934" y="64" on="0"/>
        <pt x="969" y="128" on="0"/>
        <pt x="981" y="150" on="1"/>
      </contour>
      <contour>
        <pt x="272" y="-6" on="1"/>
        <pt x="292" y="-6" on="0"/>
        <pt x="344" y="11" on="0"/>
        <pt x="373" y="27" on="1"/>
        <pt x="333" y="43" on="0"/>
        <pt x="305" y="43" on="1"/>
        <pt x="273" y="43" on="0"/>
        <pt x="236" y="26" on="0"/>
        <pt x="236" y="12" on="1"/>
        <pt x="236" y="1" on="0"/>
        <pt x="260" y="-6" on="0"/>
      </contour>
    </TTGlyph>
    <TTGlyph name="R" xMin="0" yMin="-109" xMax="1270" yMax="1585">
      <contour>
        <pt x="1227" y="37" on="1"/>
        <pt x="1221" y="25" on="0"/>
        <pt x="1179" y="-24" on="0"/>
        <pt x="1118" y="-73" on="0"/>
        <pt x="1039" y="-109" on="0"/>
        <pt x="995" y="-109" on="1"/>
        <pt x="939" y="-109" on="0"/>
        <pt x="838" y="-45" on="0"/>
        <pt x="747" y="49" on="0"/>
        <pt x="666" y="157" on="0"/>
        <pt x="629" y="201" on="1"/>
        <pt x="613" y="198" on="0"/>
        <pt x="581" y="197" on="0"/>
        <pt x="565" y="197" on="1"/>
        <pt x="536" y="197" on="0"/>
        <pt x="488" y="204" on="0"/>
        <pt x="471" y="213" on="1"/>
        <pt x="466" y="156" on="0"/>
        <pt x="457" y="42" on="0"/>
        <pt x="451" y="-16" on="1"/>
        <pt x="451" y="-30" on="0"/>
        <pt x="428" y="-43" on="0"/>
        <pt x="414" y="-43" on="1"/>
        <pt x="403" y="-43" on="0"/>
        <pt x="385" y="-35" on="0"/>
        <pt x="385" y="-29" on="1"/>
        <pt x="385" y="-22" on="0"/>
        <pt x="395" y="-14" on="1"/>
        <pt x="417" y="326" on="0"/>
        <pt x="442" y="1012" on="0"/>
        <pt x="453" y="1364" on="1"/>
        <pt x="364" y="1335" on="0"/>
        <pt x="205" y="1248" on="0"/>
        <pt x="86" y="1135" on="0"/>
        <pt x="16" y="1001" on="0"/>
        <pt x="16" y="926" on="1"/>
        <pt x="16" y="901" on="0"/>
        <pt x="27" y="859" on="0"/>
        <pt x="43" y="826" on="0"/>
        <pt x="60" y="803" on="0"/>
        <pt x="66" y="797" on="1"/>
        <pt x="53" y="788" on="1"/>
        <pt x="48" y="794" on="0"/>
        <pt x="30" y="819" on="0"/>
        <pt x="13" y="857" on="0"/>
        <pt x="0" y="907" on="0"/>
        <pt x="0" y="938" on="1"/>
        <pt x="0" y="1026" on="0"/>
        <pt x="75" y="1179" on="0"/>
        <pt x="201" y="1303" on="0"/>
        <pt x="366" y="1398" on="0"/>
        <pt x="455" y="1430" on="1"/>
        <pt x="457" y="1464" on="0"/>
        <pt x="459" y="1532" on="0"/>
        <pt x="461" y="1567" on="1"/>
        <pt x="461" y="1576" on="0"/>
        <pt x="487" y="1585" on="0"/>
        <pt x="500" y="1585" on="1"/>
        <pt x="511" y="1585" on="0"/>
        <pt x="528" y="1579" on="0"/>
        <pt x="528" y="1573" on="1"/>
        <pt x="528" y="1569" on="0"/>
        <pt x="524" y="1565" on="1"/>
        <pt x="522" y="1536" on="0"/>
        <pt x="520" y="1478" on="0"/>
        <pt x="518" y="1450" on="1"/>
        <pt x="646" y="1485" on="0"/>
        <pt x="760" y="1485" on="1"/>
        <pt x="863" y="1485" on="0"/>
        <pt x="1048" y="1429" on="0"/>
        <pt x="1188" y="1310" on="0"/>
        <pt x="1270" y="1125" on="0"/>
        <pt x="1270" y="995" on="1"/>
        <pt x="1270" y="916" on="0"/>
        <pt x="1228" y="749" on="0"/>
        <pt x="1152" y="589" on="0"/>
        <pt x="1046" y="441" on="0"/>
        <pt x="916" y="320" on="0"/>
        <pt x="768" y="231" on="0"/>
        <pt x="688" y="211" on="1"/>
        <pt x="727" y="172" on="0"/>
        <pt x="802" y="81" on="0"/>
        <pt x="882" y="4" on="0"/>
        <pt x="973" y="-47" on="0"/>
        <pt x="1028" y="-47" on="1"/>
        <pt x="1058" y="-47" on="0"/>
        <pt x="1119" y="-31" on="0"/>
        <pt x="1171" y="-6" on="0"/>
        <pt x="1212" y="26" on="0"/>
        <pt x="1221" y="41" on="1"/>
      </contour>
      <contour>
        <pt x="516" y="1380" on="1"/>
        <pt x="507" y="1114" on="0"/>
        <pt x="496" y="582" on="0"/>
        <pt x="477" y="305" on="1"/>
        <pt x="482" y="307" on="0"/>
        <pt x="494" y="309" on="0"/>
        <pt x="502" y="309" on="1"/>
        <pt x="548" y="309" on="0"/>
        <pt x="626" y="270" on="0"/>
        <pt x="662" y="238" on="1"/>
        <pt x="741" y="253" on="0"/>
        <pt x="882" y="325" on="0"/>
        <pt x="1002" y="430" on="0"/>
        <pt x="1098" y="560" on="0"/>
        <pt x="1166" y="706" on="0"/>
        <pt x="1202" y="861" on="0"/>
        <pt x="1202" y="938" on="1"/>
        <pt x="1202" y="1039" on="0"/>
        <pt x="1152" y="1212" on="0"/>
        <pt x="1042" y="1338" on="0"/>
        <pt x="866" y="1409" on="0"/>
        <pt x="739" y="1409" on="1"/>
        <pt x="629" y="1409" on="0"/>
      </contour>
      <contour>
        <pt x="565" y="229" on="1"/>
        <pt x="575" y="229" on="0"/>
        <pt x="593" y="229" on="0"/>
        <pt x="602" y="231" on="1"/>
        <pt x="579" y="254" on="0"/>
        <pt x="537" y="285" on="0"/>
        <pt x="518" y="285" on="1"/>
        <pt x="500" y="285" on="0"/>
        <pt x="479" y="271" on="0"/>
        <pt x="479" y="260" on="1"/>
        <pt x="479" y="246" on="0"/>
        <pt x="530" y="229" on="0"/>
      </contour>
    </TTGlyph>
    <TTGlyph name="Racute" xMin="0" yMin="-109" xMax="1270" yMax="1763">
      <component glyphName="R" x="0" y="0" flags="0x204"/>
      <component glyphName="acute" x="549" y="1036" flags="0x4"/>
    </TTGlyph>
    <TTGlyph name="Rcaron" xMin="0" yMin="-109" xMax="1270" yMax="1751">
      <component glyphName="R" x="0" y="0" flags="0x204"/>
      <component glyphName="caron" x="487" y="1036" flags="0x4"/>
    </TTGlyph>
    <TTGlyph name="Rcommaaccent" xMin="0" yMin="-275" xMax="1270" yMax="1585">
      <component glyphName="R" x="0" y="0" flags="0x204"/>
      <component glyphName="commaaccent" x="344" y="0" flags="0x4"/>
    </TTGlyph>
    <TTGlyph name="S" xMin="41" yMin="-74" xMax="1233" yMax="1436">
      <contour>
        <pt x="528" y="-74" on="1"/>
        <pt x="510" y="-74" on="0"/>
        <pt x="479" y="-63" on="0"/>
        <pt x="458" y="-47" on="0"/>
        <pt x="446" y="-28" on="0"/>
        <pt x="446" y="-20" on="1"/>
        <pt x="446" y="-13" on="0"/>
        <pt x="455" y="7" on="0"/>
        <pt x="468" y="25" on="0"/>
        <pt x="481" y="37" on="0"/>
        <pt x="485" y="37" on="1"/>
        <pt x="490" y="37" on="0"/>
        <pt x="492" y="30" on="0"/>
        <pt x="493" y="21" on="0"/>
        <pt x="495" y="11" on="0"/>
        <pt x="500" y="8" on="1"/>
        <pt x="511" y="2" on="0"/>
        <pt x="542" y="-6" on="0"/>
        <pt x="578" y="-6" on="1"/>
        <pt x="624" y="-6" on="0"/>
        <pt x="705" y="23" on="0"/>
        <pt x="766" y="72" on="0"/>
        <pt x="801" y="138" on="0"/>
        <pt x="801" y="176" on="1"/>
        <pt x="801" y="228" on="0"/>
        <pt x="736" y="290" on="0"/>
        <pt x="629" y="329" on="0"/>
        <pt x="492" y="353" on="0"/>
        <pt x="350" y="382" on="0"/>
        <pt x="213" y="427" on="0"/>
        <pt x="106" y="505" on="0"/>
        <pt x="41" y="627" on="0"/>
        <pt x="41" y="719" on="1"/>
        <pt x="41" y="822" on="0"/>
        <pt x="125" y="1009" on="0"/>
        <pt x="267" y="1169" on="0"/>
        <pt x="451" y="1297" on="0"/>
        <pt x="651" y="1387" on="0"/>
        <pt x="854" y="1436" on="0"/>
        <pt x="942" y="1436" on="1"/>
        <pt x="1084" y="1436" on="0"/>
        <pt x="1233" y="1335" on="0"/>
        <pt x="1233" y="1235" on="1"/>
        <pt x="1233" y="1190" on="0"/>
        <pt x="1191" y="1108" on="0"/>
        <pt x="1139" y="1043" on="0"/>
        <pt x="1092" y="1000" on="0"/>
        <pt x="1087" y="995" on="1"/>
        <pt x="1081" y="1004" on="1"/>
        <pt x="1082" y="1005" on="0"/>
        <pt x="1116" y="1041" on="0"/>
        <pt x="1154" y="1097" on="0"/>
        <pt x="1186" y="1165" on="0"/>
        <pt x="1186" y="1200" on="1"/>
        <pt x="1186" y="1281" on="0"/>
        <pt x="1052" y="1360" on="0"/>
        <pt x="924" y="1360" on="1"/>
        <pt x="792" y="1360" on="0"/>
        <pt x="564" y="1298" on="0"/>
        <pt x="375" y="1195" on="0"/>
        <pt x="228" y="1061" on="0"/>
        <pt x="127" y="919" on="0"/>
        <pt x="74" y="779" on="0"/>
        <pt x="74" y="721" on="1"/>
        <pt x="74" y="643" on="0"/>
        <pt x="140" y="544" on="0"/>
        <pt x="248" y="481" on="0"/>
        <pt x="385" y="447" on="0"/>
        <pt x="529" y="421" on="0"/>
        <pt x="666" y="394" on="0"/>
        <pt x="774" y="347" on="0"/>
        <pt x="840" y="270" on="0"/>
        <pt x="840" y="207" on="1"/>
        <pt x="840" y="149" on="0"/>
        <pt x="803" y="63" on="0"/>
        <pt x="745" y="1" on="0"/>
        <pt x="674" y="-40" on="0"/>
        <pt x="604" y="-64" on="0"/>
        <pt x="545" y="-74" on="0"/>
      </contour>
    </TTGlyph>
    <TTGlyph name="Sacute" xMin="41" yMin="-74" xMax="1233" yMax="1710">
      <component glyphName="S" x="0" y="0" flags="0x204"/>
      <component glyphName="acute" x="629" y="983" flags="0x4"/>
    </TTGlyph>
    <TTGlyph name="Scaron" xMin="41" yMin="-74" xMax="1233" yMax="1698">
      <component glyphName="S" x="0" y="0" flags="0x204"/>
      <component glyphName="caron" x="567" y="983" flags="0x4"/>
    </TTGlyph>
    <TTGlyph name="Scedilla" xMin="41" yMin="-319" xMax="1233" yMax="1436">
      <contour>
        <pt x="528" y="-74" on="1"/>
        <pt x="510" y="-74" on="0"/>
        <pt x="479" y="-63" on="0"/>
        <pt x="458" y="-47" on="0"/>
        <pt x="446" y="-28" on="0"/>
        <pt x="446" y="-20" on="1"/>
        <pt x="446" y="-13" on="0"/>
        <pt x="455" y="7" on="0"/>
        <pt x="468" y="25" on="0"/>
        <pt x="481" y="37" on="0"/>
        <pt x="485" y="37" on="1"/>
        <pt x="490" y="37" on="0"/>
        <pt x="492" y="30" on="0"/>
        <pt x="493" y="21" on="0"/>
        <pt x="495" y="11" on="0"/>
        <pt x="500" y="8" on="1"/>
        <pt x="511" y="2" on="0"/>
        <pt x="542" y="-6" on="0"/>
        <pt x="578" y="-6" on="1"/>
        <pt x="624" y="-6" on="0"/>
        <pt x="705" y="23" on="0"/>
        <pt x="766" y="72" on="0"/>
        <pt x="801" y="138" on="0"/>
        <pt x="801" y="176" on="1"/>
        <pt x="801" y="228" on="0"/>
        <pt x="736" y="290" on="0"/>
        <pt x="629" y="329" on="0"/>
        <pt x="492" y="353" on="0"/>
        <pt x="350" y="382" on="0"/>
        <pt x="213" y="427" on="0"/>
        <pt x="106" y="505" on="0"/>
        <pt x="41" y="627" on="0"/>
        <pt x="41" y="719" on="1"/>
        <pt x="41" y="822" on="0"/>
        <pt x="125" y="1009" on="0"/>
        <pt x="267" y="1169" on="0"/>
        <pt x="451" y="1297" on="0"/>
        <pt x="651" y="1387" on="0"/>
        <pt x="854" y="1436" on="0"/>
        <pt x="942" y="1436" on="1"/>
        <pt x="1084" y="1436" on="0"/>
        <pt x="1233" y="1335" on="0"/>
        <pt x="1233" y="1235" on="1"/>
        <pt x="1233" y="1190" on="0"/>
        <pt x="1191" y="1108" on="0"/>
        <pt x="1139" y="1043" on="0"/>
        <pt x="1092" y="1000" on="0"/>
        <pt x="1087" y="995" on="1"/>
        <pt x="1081" y="1004" on="1"/>
        <pt x="1082" y="1005" on="0"/>
        <pt x="1116" y="1041" on="0"/>
        <pt x="1154" y="1097" on="0"/>
        <pt x="1186" y="1165" on="0"/>
        <pt x="1186" y="1200" on="1"/>
        <pt x="1186" y="1281" on="0"/>
        <pt x="1052" y="1360" on="0"/>
        <pt x="924" y="1360" on="1"/>
        <pt x="792" y="1360" on="0"/>
        <pt x="564" y="1298" on="0"/>
        <pt x="375" y="1195" on="0"/>
        <pt x="228" y="1061" on="0"/>
        <pt x="127" y="919" on="0"/>
        <pt x="74" y="779" on="0"/>
        <pt x="74" y="721" on="1"/>
        <pt x="74" y="643" on="0"/>
        <pt x="140" y="544" on="0"/>
        <pt x="248" y="481" on="0"/>
        <pt x="385" y="447" on="0"/>
        <pt x="529" y="421" on="0"/>
        <pt x="666" y="394" on="0"/>
        <pt x="774" y="347" on="0"/>
        <pt x="840" y="270" on="0"/>
        <pt x="840" y="207" on="1"/>
        <pt x="840" y="135" on="0"/>
        <pt x="785" y="37" on="0"/>
        <pt x="705" y="-27" on="0"/>
        <pt x="614" y="-61" on="0"/>
        <pt x="578" y="-68" on="1"/>
        <pt x="571" y="-89" on="0"/>
        <pt x="563" y="-126" on="0"/>
        <pt x="563" y="-143" on="1"/>
        <pt x="569" y="-140" on="0"/>
        <pt x="591" y="-133" on="0"/>
        <pt x="608" y="-133" on="1"/>
        <pt x="642" y="-133" on="0"/>
        <pt x="680" y="-175" on="0"/>
        <pt x="680" y="-209" on="1"/>
        <pt x="680" y="-224" on="0"/>
        <pt x="669" y="-263" on="0"/>
        <pt x="642" y="-296" on="0"/>
        <pt x="595" y="-319" on="0"/>
        <pt x="559" y="-319" on="1"/>
        <pt x="551" y="-319" on="0"/>
        <pt x="527" y="-317" on="0"/>
        <pt x="501" y="-311" on="0"/>
        <pt x="475" y="-301" on="0"/>
        <pt x="465" y="-293" on="1"/>
        <pt x="460" y="-289" on="0"/>
        <pt x="462" y="-267" on="0"/>
        <pt x="471" y="-248" on="0"/>
        <pt x="481" y="-240" on="0"/>
        <pt x="483" y="-250" on="1"/>
        <pt x="500" y="-261" on="0"/>
        <pt x="540" y="-268" on="0"/>
        <pt x="571" y="-268" on="1"/>
        <pt x="583" y="-268" on="0"/>
        <pt x="610" y="-265" on="0"/>
        <pt x="631" y="-254" on="0"/>
        <pt x="645" y="-235" on="0"/>
        <pt x="645" y="-219" on="1"/>
        <pt x="645" y="-174" on="0"/>
        <pt x="592" y="-174" on="1"/>
        <pt x="569" y="-174" on="0"/>
        <pt x="545" y="-184" on="0"/>
        <pt x="537" y="-184" on="1"/>
        <pt x="528" y="-184" on="0"/>
        <pt x="528" y="-176" on="1"/>
        <pt x="528" y="-170" on="0"/>
        <pt x="533" y="-146" on="0"/>
        <pt x="541" y="-117" on="0"/>
        <pt x="550" y="-86" on="0"/>
        <pt x="555" y="-72" on="1"/>
        <pt x="547" y="-72" on="0"/>
        <pt x="533" y="-74" on="0"/>
      </contour>
    </TTGlyph>
    <TTGlyph name="Scircumflex" xMin="41" yMin="-74" xMax="1233" yMax="1700">
      <component glyphName="S" x="0" y="0" flags="0x204"/>
      <component glyphName="circumflex" x="563" y="983" flags="0x4"/>
    </TTGlyph>
    <TTGlyph name="T" xMin="0" yMin="-92" xMax="1704" yMax="1491">
      <contour>
        <pt x="1632" y="1348" on="1"/>
        <pt x="1641" y="1342" on="0"/>
        <pt x="1665" y="1323" on="0"/>
        <pt x="1688" y="1295" on="0"/>
        <pt x="1704" y="1259" on="0"/>
        <pt x="1704" y="1237" on="1"/>
        <pt x="1704" y="1211" on="0"/>
        <pt x="1686" y="1163" on="0"/>
        <pt x="1647" y="1127" on="0"/>
        <pt x="1586" y="1106" on="0"/>
        <pt x="1544" y="1106" on="1"/>
        <pt x="1492" y="1106" on="0"/>
        <pt x="1389" y="1126" on="0"/>
        <pt x="1284" y="1159" on="0"/>
        <pt x="1177" y="1201" on="0"/>
        <pt x="1122" y="1223" on="1"/>
        <pt x="1119" y="886" on="0"/>
        <pt x="1082" y="264" on="0"/>
        <pt x="1042" y="-31" on="1"/>
        <pt x="1030" y="-65" on="0"/>
        <pt x="1007" y="-92" on="0"/>
        <pt x="997" y="-92" on="1"/>
        <pt x="989" y="-92" on="0"/>
        <pt x="981" y="-79" on="0"/>
        <pt x="981" y="-70" on="1"/>
        <pt x="981" y="-63" on="1"/>
        <pt x="999" y="82" on="0"/>
        <pt x="1018" y="361" on="0"/>
        <pt x="1029" y="638" on="0"/>
        <pt x="1034" y="921" on="0"/>
        <pt x="1038" y="1071" on="1"/>
        <pt x="1040" y="1121" on="0"/>
        <pt x="1042" y="1208" on="0"/>
        <pt x="1042" y="1253" on="1"/>
        <pt x="962" y="1281" on="0"/>
        <pt x="787" y="1321" on="0"/>
        <pt x="690" y="1321" on="1"/>
        <pt x="549" y="1321" on="0"/>
        <pt x="313" y="1268" on="0"/>
        <pt x="143" y="1150" on="0"/>
        <pt x="49" y="961" on="0"/>
        <pt x="49" y="825" on="1"/>
        <pt x="49" y="775" on="0"/>
        <pt x="79" y="671" on="0"/>
        <pt x="148" y="586" on="0"/>
        <pt x="259" y="532" on="0"/>
        <pt x="340" y="532" on="1"/>
        <pt x="410" y="532" on="0"/>
        <pt x="508" y="573" on="0"/>
        <pt x="576" y="631" on="0"/>
        <pt x="619" y="694" on="0"/>
        <pt x="633" y="717" on="1"/>
        <pt x="647" y="709" on="1"/>
        <pt x="640" y="695" on="0"/>
        <pt x="615" y="650" on="0"/>
        <pt x="576" y="598" on="0"/>
        <pt x="522" y="544" on="0"/>
        <pt x="451" y="500" on="0"/>
        <pt x="363" y="473" on="0"/>
        <pt x="309" y="473" on="1"/>
        <pt x="240" y="473" on="0"/>
        <pt x="126" y="522" on="0"/>
        <pt x="45" y="611" on="0"/>
        <pt x="0" y="737" on="0"/>
        <pt x="0" y="815" on="1"/>
        <pt x="0" y="910" on="0"/>
        <pt x="55" y="1070" on="0"/>
        <pt x="152" y="1198" on="0"/>
        <pt x="284" y="1295" on="0"/>
        <pt x="437" y="1360" on="0"/>
        <pt x="604" y="1393" on="0"/>
        <pt x="688" y="1393" on="1"/>
        <pt x="788" y="1393" on="0"/>
        <pt x="964" y="1355" on="0"/>
        <pt x="1044" y="1327" on="1"/>
        <pt x="1044" y="1436" on="1"/>
        <pt x="1044" y="1450" on="0"/>
        <pt x="1056" y="1471" on="0"/>
        <pt x="1075" y="1484" on="0"/>
        <pt x="1097" y="1491" on="0"/>
        <pt x="1106" y="1491" on="1"/>
        <pt x="1114" y="1491" on="0"/>
        <pt x="1124" y="1485" on="0"/>
        <pt x="1124" y="1479" on="1"/>
        <pt x="1124" y="1298" on="1"/>
        <pt x="1182" y="1276" on="0"/>
        <pt x="1293" y="1232" on="0"/>
        <pt x="1403" y="1196" on="0"/>
        <pt x="1513" y="1174" on="0"/>
        <pt x="1571" y="1174" on="1"/>
        <pt x="1590" y="1174" on="0"/>
        <pt x="1629" y="1184" on="0"/>
        <pt x="1660" y="1203" on="0"/>
        <pt x="1679" y="1233" on="0"/>
        <pt x="1679" y="1253" on="1"/>
        <pt x="1679" y="1285" on="0"/>
        <pt x="1645" y="1323" on="0"/>
        <pt x="1626" y="1337" on="1"/>
      </contour>
    </TTGlyph>
    <TTGlyph name="Tbar" xMin="0" yMin="-92" xMax="1704" yMax="1491">
      <contour>
        <pt x="1632" y="1348" on="1"/>
        <pt x="1641" y="1342" on="0"/>
        <pt x="1665" y="1323" on="0"/>
        <pt x="1688" y="1295" on="0"/>
        <pt x="1704" y="1259" on="0"/>
        <pt x="1704" y="1237" on="1"/>
        <pt x="1704" y="1211" on="0"/>
        <pt x="1686" y="1163" on="0"/>
        <pt x="1647" y="1127" on="0"/>
        <pt x="1586" y="1106" on="0"/>
        <pt x="1544" y="1106" on="1"/>
        <pt x="1492" y="1106" on="0"/>
        <pt x="1389" y="1126" on="0"/>
        <pt x="1284" y="1159" on="0"/>
        <pt x="1177" y="1201" on="0"/>
        <pt x="1122" y="1223" on="1"/>
        <pt x="1120" y="1113" on="0"/>
        <pt x="1115" y="904" on="0"/>
        <pt x="1112" y="801" on="1"/>
        <pt x="1152" y="801" on="0"/>
        <pt x="1208" y="803" on="0"/>
        <pt x="1210" y="803" on="1"/>
        <pt x="1230" y="803" on="0"/>
        <pt x="1278" y="802" on="0"/>
        <pt x="1319" y="800" on="0"/>
        <pt x="1346" y="797" on="0"/>
        <pt x="1346" y="795" on="1"/>
        <pt x="1346" y="785" on="0"/>
        <pt x="1329" y="766" on="0"/>
        <pt x="1323" y="766" on="1"/>
        <pt x="1280" y="766" on="1"/>
        <pt x="1242" y="766" on="0"/>
        <pt x="1156" y="764" on="0"/>
        <pt x="1110" y="764" on="1"/>
        <pt x="1101" y="555" on="0"/>
        <pt x="1068" y="161" on="0"/>
        <pt x="1042" y="-31" on="1"/>
        <pt x="1030" y="-65" on="0"/>
        <pt x="1007" y="-92" on="0"/>
        <pt x="997" y="-92" on="1"/>
        <pt x="989" y="-92" on="0"/>
        <pt x="981" y="-79" on="0"/>
        <pt x="981" y="-70" on="1"/>
        <pt x="981" y="-63" on="1"/>
        <pt x="994" y="43" on="0"/>
        <pt x="1011" y="249" on="0"/>
        <pt x="1022" y="453" on="0"/>
        <pt x="1028" y="657" on="0"/>
        <pt x="1030" y="762" on="1"/>
        <pt x="961" y="760" on="0"/>
        <pt x="830" y="756" on="0"/>
        <pt x="782" y="756" on="1"/>
        <pt x="780" y="757" on="0"/>
        <pt x="779" y="758" on="1"/>
        <pt x="776" y="759" on="0"/>
        <pt x="776" y="764" on="1"/>
        <pt x="776" y="776" on="0"/>
        <pt x="790" y="799" on="0"/>
        <pt x="795" y="799" on="1"/>
        <pt x="1032" y="799" on="1"/>
        <pt x="1034" y="865" on="0"/>
        <pt x="1036" y="1000" on="0"/>
        <pt x="1038" y="1071" on="1"/>
        <pt x="1040" y="1121" on="0"/>
        <pt x="1042" y="1208" on="0"/>
        <pt x="1042" y="1253" on="1"/>
        <pt x="962" y="1281" on="0"/>
        <pt x="787" y="1321" on="0"/>
        <pt x="690" y="1321" on="1"/>
        <pt x="549" y="1321" on="0"/>
        <pt x="313" y="1268" on="0"/>
        <pt x="143" y="1150" on="0"/>
        <pt x="49" y="961" on="0"/>
        <pt x="49" y="825" on="1"/>
        <pt x="49" y="775" on="0"/>
        <pt x="79" y="671" on="0"/>
        <pt x="148" y="586" on="0"/>
        <pt x="259" y="532" on="0"/>
        <pt x="340" y="532" on="1"/>
        <pt x="410" y="532" on="0"/>
        <pt x="508" y="573" on="0"/>
        <pt x="576" y="631" on="0"/>
        <pt x="619" y="694" on="0"/>
        <pt x="633" y="717" on="1"/>
        <pt x="647" y="709" on="1"/>
        <pt x="640" y="695" on="0"/>
        <pt x="615" y="650" on="0"/>
        <pt x="576" y="598" on="0"/>
        <pt x="522" y="544" on="0"/>
        <pt x="451" y="500" on="0"/>
        <pt x="363" y="473" on="0"/>
        <pt x="309" y="473" on="1"/>
        <pt x="240" y="473" on="0"/>
        <pt x="126" y="522" on="0"/>
        <pt x="45" y="611" on="0"/>
        <pt x="0" y="737" on="0"/>
        <pt x="0" y="815" on="1"/>
        <pt x="0" y="910" on="0"/>
        <pt x="55" y="1070" on="0"/>
        <pt x="152" y="1198" on="0"/>
        <pt x="284" y="1295" on="0"/>
        <pt x="437" y="1360" on="0"/>
        <pt x="604" y="1393" on="0"/>
        <pt x="688" y="1393" on="1"/>
        <pt x="788" y="1393" on="0"/>
        <pt x="964" y="1355" on="0"/>
        <pt x="1044" y="1327" on="1"/>
        <pt x="1044" y="1436" on="1"/>
        <pt x="1044" y="1450" on="0"/>
        <pt x="1056" y="1471" on="0"/>
        <pt x="1075" y="1484" on="0"/>
        <pt x="1097" y="1491" on="0"/>
        <pt x="1106" y="1491" on="1"/>
        <pt x="1114" y="1491" on="0"/>
        <pt x="1124" y="1485" on="0"/>
        <pt x="1124" y="1479" on="1"/>
        <pt x="1124" y="1298" on="1"/>
        <pt x="1182" y="1276" on="0"/>
        <pt x="1293" y="1232" on="0"/>
        <pt x="1403" y="1196" on="0"/>
        <pt x="1513" y="1174" on="0"/>
        <pt x="1571" y="1174" on="1"/>
        <pt x="1590" y="1174" on="0"/>
        <pt x="1629" y="1184" on="0"/>
        <pt x="1660" y="1203" on="0"/>
        <pt x="1679" y="1233" on="0"/>
        <pt x="1679" y="1253" on="1"/>
        <pt x="1679" y="1285" on="0"/>
        <pt x="1645" y="1323" on="0"/>
        <pt x="1626" y="1337" on="1"/>
      </contour>
    </TTGlyph>
    <TTGlyph name="Tcaron" xMin="0" yMin="-92" xMax="1704" yMax="1753">
      <component glyphName="T" x="0" y="0" flags="0x204"/>
      <component glyphName="caron" x="793" y="1038" flags="0x4"/>
    </TTGlyph>
    <TTGlyph name="Tcommaaccent" xMin="0" yMin="-415" xMax="1704" yMax="1491">
      <component glyphName="T" x="0" y="0" flags="0x204"/>
      <component glyphName="commaaccent" x="682" y="-140" flags="0x4"/>
    </TTGlyph>
    <TTGlyph name="Thorn" xMin="74" yMin="-80" xMax="1133" yMax="1411">
      <contour>
        <pt x="334" y="1372" on="1"/>
        <pt x="334" y="1380" on="0"/>
        <pt x="338" y="1392" on="0"/>
        <pt x="346" y="1397" on="1"/>
        <pt x="352" y="1400" on="0"/>
        <pt x="370" y="1411" on="0"/>
        <pt x="379" y="1411" on="1"/>
        <pt x="384" y="1411" on="0"/>
        <pt x="393" y="1406" on="0"/>
        <pt x="393" y="1401" on="1"/>
        <pt x="394" y="1374" on="0"/>
        <pt x="393" y="1264" on="0"/>
        <pt x="389" y="1116" on="0"/>
        <pt x="381" y="937" on="0"/>
        <pt x="375" y="840" on="1"/>
        <pt x="437" y="920" on="0"/>
        <pt x="575" y="1057" on="0"/>
        <pt x="716" y="1157" on="0"/>
        <pt x="857" y="1214" on="0"/>
        <pt x="922" y="1214" on="1"/>
        <pt x="970" y="1214" on="0"/>
        <pt x="1047" y="1190" on="0"/>
        <pt x="1103" y="1135" on="0"/>
        <pt x="1133" y="1042" on="0"/>
        <pt x="1133" y="973" on="1"/>
        <pt x="1133" y="913" on="0"/>
        <pt x="1095" y="767" on="0"/>
        <pt x="1026" y="618" on="0"/>
        <pt x="930" y="478" on="0"/>
        <pt x="813" y="369" on="0"/>
        <pt x="680" y="303" on="0"/>
        <pt x="608" y="303" on="1"/>
        <pt x="558" y="303" on="0"/>
        <pt x="487" y="338" on="0"/>
        <pt x="436" y="392" on="0"/>
        <pt x="405" y="461" on="0"/>
        <pt x="387" y="527" on="0"/>
        <pt x="380" y="586" on="0"/>
        <pt x="379" y="604" on="1"/>
        <pt x="399" y="608" on="1"/>
        <pt x="425" y="486" on="0"/>
        <pt x="527" y="367" on="0"/>
        <pt x="621" y="367" on="1"/>
        <pt x="696" y="367" on="0"/>
        <pt x="821" y="422" on="0"/>
        <pt x="919" y="514" on="0"/>
        <pt x="993" y="631" on="0"/>
        <pt x="1041" y="756" on="0"/>
        <pt x="1065" y="877" on="0"/>
        <pt x="1065" y="926" on="1"/>
        <pt x="1065" y="964" on="0"/>
        <pt x="1049" y="1040" on="0"/>
        <pt x="1010" y="1100" on="0"/>
        <pt x="947" y="1137" on="0"/>
        <pt x="899" y="1137" on="1"/>
        <pt x="831" y="1137" on="0"/>
        <pt x="692" y="1085" on="0"/>
        <pt x="557" y="994" on="0"/>
        <pt x="429" y="868" on="0"/>
        <pt x="373" y="795" on="1"/>
        <pt x="366" y="692" on="0"/>
        <pt x="347" y="482" on="0"/>
        <pt x="322" y="288" on="0"/>
        <pt x="289" y="118" on="0"/>
        <pt x="248" y="-8" on="0"/>
        <pt x="199" y="-80" on="0"/>
        <pt x="170" y="-80" on="1"/>
        <pt x="135" y="-80" on="0"/>
        <pt x="97" y="-30" on="0"/>
        <pt x="78" y="40" on="0"/>
        <pt x="74" y="116" on="0"/>
        <pt x="74" y="143" on="1"/>
        <pt x="74" y="207" on="0"/>
        <pt x="108" y="355" on="0"/>
        <pt x="170" y="511" on="0"/>
        <pt x="256" y="669" on="0"/>
        <pt x="307" y="745" on="1"/>
        <pt x="313" y="834" on="0"/>
        <pt x="323" y="1011" on="0"/>
        <pt x="330" y="1174" on="0"/>
        <pt x="334" y="1317" on="0"/>
      </contour>
      <contour>
        <pt x="174" y="6" on="1"/>
        <pt x="195" y="6" on="0"/>
        <pt x="232" y="121" on="0"/>
        <pt x="265" y="313" on="0"/>
        <pt x="293" y="560" on="0"/>
        <pt x="303" y="692" on="1"/>
        <pt x="264" y="628" on="0"/>
        <pt x="200" y="494" on="0"/>
        <pt x="154" y="357" on="0"/>
        <pt x="129" y="221" on="0"/>
        <pt x="129" y="156" on="1"/>
        <pt x="129" y="127" on="0"/>
        <pt x="135" y="73" on="0"/>
        <pt x="147" y="31" on="0"/>
        <pt x="164" y="6" on="0"/>
      </contour>
    </TTGlyph>
    <TTGlyph name="U" xMin="0" yMin="-90" xMax="1479" yMax="1434">
      <contour>
        <pt x="1286" y="285" on="1"/>
        <pt x="1272" y="263" on="0"/>
        <pt x="1223" y="191" on="0"/>
        <pt x="1188" y="147" on="1"/>
        <pt x="1194" y="109" on="0"/>
        <pt x="1209" y="40" on="0"/>
        <pt x="1219" y="12" on="1"/>
        <pt x="1223" y="12" on="1"/>
        <pt x="1227" y="12" on="0"/>
        <pt x="1227" y="8" on="1"/>
        <pt x="1227" y="3" on="0"/>
        <pt x="1216" y="-14" on="0"/>
        <pt x="1199" y="-30" on="0"/>
        <pt x="1178" y="-43" on="0"/>
        <pt x="1169" y="-43" on="1"/>
        <pt x="1157" y="-43" on="0"/>
        <pt x="1133" y="22" on="0"/>
        <pt x="1120" y="78" on="1"/>
        <pt x="1085" y="45" on="0"/>
        <pt x="1004" y="-16" on="0"/>
        <pt x="910" y="-62" on="0"/>
        <pt x="805" y="-90" on="0"/>
        <pt x="748" y="-90" on="1"/>
        <pt x="694" y="-90" on="0"/>
        <pt x="583" y="-55" on="0"/>
        <pt x="493" y="26" on="0"/>
        <pt x="436" y="158" on="0"/>
        <pt x="436" y="256" on="1"/>
        <pt x="436" y="320" on="0"/>
        <pt x="463" y="463" on="0"/>
        <pt x="503" y="615" on="0"/>
        <pt x="549" y="773" on="0"/>
        <pt x="589" y="931" on="0"/>
        <pt x="616" y="1086" on="0"/>
        <pt x="616" y="1159" on="1"/>
        <pt x="616" y="1205" on="0"/>
        <pt x="594" y="1282" on="0"/>
        <pt x="548" y="1337" on="0"/>
        <pt x="478" y="1368" on="0"/>
        <pt x="430" y="1368" on="1"/>
        <pt x="387" y="1368" on="0"/>
        <pt x="295" y="1341" on="0"/>
        <pt x="207" y="1293" on="0"/>
        <pt x="127" y="1229" on="0"/>
        <pt x="68" y="1155" on="0"/>
        <pt x="33" y="1074" on="0"/>
        <pt x="33" y="1034" on="1"/>
        <pt x="33" y="1016" on="0"/>
        <pt x="53" y="979" on="0"/>
        <pt x="78" y="979" on="1"/>
        <pt x="96" y="979" on="0"/>
        <pt x="130" y="997" on="0"/>
        <pt x="141" y="1014" on="1"/>
        <pt x="152" y="1008" on="1"/>
        <pt x="146" y="996" on="0"/>
        <pt x="131" y="969" on="0"/>
        <pt x="111" y="946" on="0"/>
        <pt x="84" y="932" on="0"/>
        <pt x="66" y="932" on="1"/>
        <pt x="46" y="932" on="0"/>
        <pt x="21" y="947" on="0"/>
        <pt x="6" y="971" on="0"/>
        <pt x="0" y="1000" on="0"/>
        <pt x="0" y="1014" on="1"/>
        <pt x="0" y="1061" on="0"/>
        <pt x="43" y="1160" on="0"/>
        <pt x="114" y="1253" on="0"/>
        <pt x="207" y="1336" on="0"/>
        <pt x="308" y="1398" on="0"/>
        <pt x="410" y="1434" on="0"/>
        <pt x="455" y="1434" on="1"/>
        <pt x="498" y="1434" on="0"/>
        <pt x="582" y="1405" on="0"/>
        <pt x="646" y="1345" on="0"/>
        <pt x="686" y="1252" on="0"/>
        <pt x="686" y="1188" on="1"/>
        <pt x="686" y="1116" on="0"/>
        <pt x="660" y="964" on="0"/>
        <pt x="622" y="807" on="0"/>
        <pt x="576" y="647" on="0"/>
        <pt x="538" y="486" on="0"/>
        <pt x="512" y="328" on="0"/>
        <pt x="512" y="252" on="1"/>
        <pt x="512" y="195" on="0"/>
        <pt x="545" y="94" on="0"/>
        <pt x="611" y="17" on="0"/>
        <pt x="709" y="-27" on="0"/>
        <pt x="774" y="-27" on="1"/>
        <pt x="831" y="-27" on="0"/>
        <pt x="930" y="-6" on="0"/>
        <pt x="1014" y="30" on="0"/>
        <pt x="1086" y="77" on="0"/>
        <pt x="1116" y="104" on="1"/>
        <pt x="1108" y="150" on="0"/>
        <pt x="1093" y="259" on="0"/>
        <pt x="1083" y="375" on="0"/>
        <pt x="1077" y="493" on="0"/>
        <pt x="1077" y="549" on="1"/>
        <pt x="1077" y="784" on="0"/>
        <pt x="1126" y="1103" on="0"/>
        <pt x="1206" y="1298" on="0"/>
        <pt x="1310" y="1382" on="0"/>
        <pt x="1364" y="1382" on="1"/>
        <pt x="1389" y="1382" on="0"/>
        <pt x="1425" y="1361" on="0"/>
        <pt x="1452" y="1329" on="0"/>
        <pt x="1471" y="1292" on="0"/>
        <pt x="1479" y="1276" on="1"/>
        <pt x="1466" y="1268" on="1"/>
        <pt x="1446" y="1288" on="0"/>
        <pt x="1400" y="1317" on="0"/>
        <pt x="1362" y="1317" on="1"/>
        <pt x="1281" y="1317" on="0"/>
        <pt x="1194" y="1200" on="0"/>
        <pt x="1154" y="993" on="0"/>
        <pt x="1147" y="708" on="0"/>
        <pt x="1147" y="541" on="1"/>
        <pt x="1147" y="457" on="0"/>
        <pt x="1166" y="264" on="0"/>
        <pt x="1182" y="174" on="1"/>
        <pt x="1211" y="209" on="0"/>
        <pt x="1255" y="273" on="0"/>
        <pt x="1272" y="295" on="1"/>
      </contour>
    </TTGlyph>
    <TTGlyph name="Uacute" xMin="0" yMin="-90" xMax="1479" yMax="1675">
      <component glyphName="U" x="0" y="0" flags="0x204"/>
      <component glyphName="acute" x="739" y="948" flags="0x4"/>
    </TTGlyph>
    <TTGlyph name="Ubreve" xMin="0" yMin="-90" xMax="1479" yMax="1662">
      <component glyphName="U" x="0" y="0" flags="0x204"/>
      <component glyphName="breve" x="674" y="948" flags="0x4"/>
    </TTGlyph>
    <TTGlyph name="Ucircumflex" xMin="0" yMin="-90" xMax="1479" yMax="1665">
      <component glyphName="U" x="0" y="0" flags="0x204"/>
      <component glyphName="circumflex" x="674" y="948" flags="0x4"/>
    </TTGlyph>
    <TTGlyph name="Udieresis" xMin="0" yMin="-90" xMax="1479" yMax="1589">
      <component glyphName="U" x="0" y="0" flags="0x204"/>
      <component glyphName="dieresis" x="664" y="948" flags="0x4"/>
    </TTGlyph>
    <TTGlyph name="Ugrave" xMin="0" yMin="-90" xMax="1479" yMax="1687">
      <component glyphName="U" x="0" y="0" flags="0x204"/>
      <component glyphName="grave" x="627" y="948" flags="0x4"/>
    </TTGlyph>
    <TTGlyph name="Uhungarumlaut" xMin="0" yMin="-90" xMax="1479" yMax="1675">
      <component glyphName="U" x="0" y="0" flags="0x204"/>
      <component glyphName="hungarumlaut" x="676" y="948" flags="0x4"/>
    </TTGlyph>
    <TTGlyph name="Umacron" xMin="0" yMin="-90" xMax="1479" yMax="1573">
      <component glyphName="U" x="0" y="0" flags="0x204"/>
      <component glyphName="macron" x="664" y="948" flags="0x4"/>
    </TTGlyph>
    <TTGlyph name="Uogonek" xMin="0" yMin="-250" xMax="1479" yMax="1434">
      <contour>
        <pt x="1286" y="285" on="1"/>
        <pt x="1272" y="263" on="0"/>
        <pt x="1223" y="191" on="0"/>
        <pt x="1188" y="147" on="1"/>
        <pt x="1194" y="109" on="0"/>
        <pt x="1209" y="40" on="0"/>
        <pt x="1219" y="12" on="1"/>
        <pt x="1223" y="12" on="1"/>
        <pt x="1227" y="12" on="0"/>
        <pt x="1227" y="8" on="1"/>
        <pt x="1227" y="-1" on="0"/>
        <pt x="1201" y="-26" on="0"/>
        <pt x="1190" y="-37" on="1"/>
        <pt x="1164" y="-63" on="0"/>
        <pt x="1128" y="-130" on="0"/>
        <pt x="1128" y="-156" on="1"/>
        <pt x="1128" y="-173" on="0"/>
        <pt x="1158" y="-203" on="0"/>
        <pt x="1184" y="-203" on="1"/>
        <pt x="1216" y="-203" on="0"/>
        <pt x="1281" y="-181" on="0"/>
        <pt x="1309" y="-164" on="1"/>
        <pt x="1310" y="-159" on="0"/>
        <pt x="1321" y="-161" on="0"/>
        <pt x="1329" y="-170" on="0"/>
        <pt x="1330" y="-184" on="0"/>
        <pt x="1323" y="-190" on="1"/>
        <pt x="1285" y="-221" on="0"/>
        <pt x="1208" y="-250" on="0"/>
        <pt x="1174" y="-250" on="1"/>
        <pt x="1159" y="-250" on="0"/>
        <pt x="1126" y="-244" on="0"/>
        <pt x="1100" y="-226" on="0"/>
        <pt x="1083" y="-196" on="0"/>
        <pt x="1083" y="-172" on="1"/>
        <pt x="1083" y="-138" on="0"/>
        <pt x="1126" y="-65" on="0"/>
        <pt x="1157" y="-33" on="1"/>
        <pt x="1148" y="-20" on="0"/>
        <pt x="1130" y="36" on="0"/>
        <pt x="1120" y="78" on="1"/>
        <pt x="1085" y="45" on="0"/>
        <pt x="1004" y="-16" on="0"/>
        <pt x="910" y="-62" on="0"/>
        <pt x="805" y="-90" on="0"/>
        <pt x="748" y="-90" on="1"/>
        <pt x="694" y="-90" on="0"/>
        <pt x="583" y="-55" on="0"/>
        <pt x="493" y="26" on="0"/>
        <pt x="436" y="158" on="0"/>
        <pt x="436" y="256" on="1"/>
        <pt x="436" y="320" on="0"/>
        <pt x="463" y="463" on="0"/>
        <pt x="503" y="615" on="0"/>
        <pt x="549" y="773" on="0"/>
        <pt x="589" y="931" on="0"/>
        <pt x="616" y="1086" on="0"/>
        <pt x="616" y="1159" on="1"/>
        <pt x="616" y="1205" on="0"/>
        <pt x="594" y="1282" on="0"/>
        <pt x="548" y="1337" on="0"/>
        <pt x="478" y="1368" on="0"/>
        <pt x="430" y="1368" on="1"/>
        <pt x="387" y="1368" on="0"/>
        <pt x="295" y="1341" on="0"/>
        <pt x="207" y="1293" on="0"/>
        <pt x="127" y="1229" on="0"/>
        <pt x="68" y="1155" on="0"/>
        <pt x="33" y="1074" on="0"/>
        <pt x="33" y="1034" on="1"/>
        <pt x="33" y="1016" on="0"/>
        <pt x="53" y="979" on="0"/>
        <pt x="78" y="979" on="1"/>
        <pt x="96" y="979" on="0"/>
        <pt x="130" y="997" on="0"/>
        <pt x="141" y="1014" on="1"/>
        <pt x="152" y="1008" on="1"/>
        <pt x="146" y="996" on="0"/>
        <pt x="131" y="969" on="0"/>
        <pt x="111" y="946" on="0"/>
        <pt x="84" y="932" on="0"/>
        <pt x="66" y="932" on="1"/>
        <pt x="46" y="932" on="0"/>
        <pt x="21" y="947" on="0"/>
        <pt x="6" y="971" on="0"/>
        <pt x="0" y="1000" on="0"/>
        <pt x="0" y="1014" on="1"/>
        <pt x="0" y="1061" on="0"/>
        <pt x="43" y="1160" on="0"/>
        <pt x="114" y="1253" on="0"/>
        <pt x="207" y="1336" on="0"/>
        <pt x="308" y="1398" on="0"/>
        <pt x="410" y="1434" on="0"/>
        <pt x="455" y="1434" on="1"/>
        <pt x="498" y="1434" on="0"/>
        <pt x="582" y="1405" on="0"/>
        <pt x="646" y="1345" on="0"/>
        <pt x="686" y="1252" on="0"/>
        <pt x="686" y="1188" on="1"/>
        <pt x="686" y="1116" on="0"/>
        <pt x="660" y="964" on="0"/>
        <pt x="622" y="807" on="0"/>
        <pt x="576" y="647" on="0"/>
        <pt x="538" y="486" on="0"/>
        <pt x="512" y="328" on="0"/>
        <pt x="512" y="252" on="1"/>
        <pt x="512" y="195" on="0"/>
        <pt x="545" y="94" on="0"/>
        <pt x="611" y="17" on="0"/>
        <pt x="709" y="-27" on="0"/>
        <pt x="774" y="-27" on="1"/>
        <pt x="831" y="-27" on="0"/>
        <pt x="930" y="-6" on="0"/>
        <pt x="1014" y="30" on="0"/>
        <pt x="1086" y="77" on="0"/>
        <pt x="1116" y="104" on="1"/>
        <pt x="1108" y="150" on="0"/>
        <pt x="1093" y="259" on="0"/>
        <pt x="1083" y="375" on="0"/>
        <pt x="1077" y="493" on="0"/>
        <pt x="1077" y="549" on="1"/>
        <pt x="1077" y="784" on="0"/>
        <pt x="1126" y="1103" on="0"/>
        <pt x="1206" y="1298" on="0"/>
        <pt x="1310" y="1382" on="0"/>
        <pt x="1364" y="1382" on="1"/>
        <pt x="1389" y="1382" on="0"/>
        <pt x="1425" y="1361" on="0"/>
        <pt x="1452" y="1329" on="0"/>
        <pt x="1471" y="1292" on="0"/>
        <pt x="1479" y="1276" on="1"/>
        <pt x="1466" y="1268" on="1"/>
        <pt x="1446" y="1288" on="0"/>
        <pt x="1400" y="1317" on="0"/>
        <pt x="1362" y="1317" on="1"/>
        <pt x="1281" y="1317" on="0"/>
        <pt x="1194" y="1200" on="0"/>
        <pt x="1154" y="993" on="0"/>
        <pt x="1147" y="708" on="0"/>
        <pt x="1147" y="541" on="1"/>
        <pt x="1147" y="457" on="0"/>
        <pt x="1166" y="264" on="0"/>
        <pt x="1182" y="174" on="1"/>
        <pt x="1211" y="209" on="0"/>
        <pt x="1255" y="273" on="0"/>
        <pt x="1272" y="295" on="1"/>
      </contour>
    </TTGlyph>
    <TTGlyph name="Uring" xMin="0" yMin="-90" xMax="1479" yMax="1767">
      <component glyphName="U" x="0" y="0" flags="0x204"/>
      <component glyphName="ring" x="678" y="948" flags="0x4"/>
    </TTGlyph>
    <TTGlyph name="Utilde" xMin="0" yMin="-90" xMax="1479" yMax="1630">
      <component glyphName="U" x="0" y="0" flags="0x204"/>
      <component glyphName="tilde" x="664" y="948" flags="0x4"/>
    </TTGlyph>
    <TTGlyph name="V" xMin="0" yMin="-121" xMax="1405" yMax="1585">
      <contour>
        <pt x="1348" y="1325" on="1"/>
        <pt x="1354" y="1344" on="0"/>
        <pt x="1366" y="1397" on="0"/>
        <pt x="1366" y="1430" on="1"/>
        <pt x="1366" y="1472" on="0"/>
        <pt x="1317" y="1522" on="0"/>
        <pt x="1266" y="1522" on="1"/>
        <pt x="1181" y="1522" on="0"/>
        <pt x="1037" y="1435" on="0"/>
        <pt x="915" y="1284" on="0"/>
        <pt x="815" y="1078" on="0"/>
        <pt x="733" y="841" on="0"/>
        <pt x="669" y="584" on="0"/>
        <pt x="620" y="328" on="0"/>
        <pt x="584" y="84" on="0"/>
        <pt x="571" y="-20" on="1"/>
        <pt x="570" y="-27" on="0"/>
        <pt x="569" y="-48" on="0"/>
        <pt x="562" y="-71" on="0"/>
        <pt x="547" y="-93" on="0"/>
        <pt x="532" y="-100" on="1"/>
        <pt x="495" y="-121" on="0"/>
        <pt x="492" y="-96" on="1"/>
        <pt x="485" y="-30" on="0"/>
        <pt x="468" y="137" on="0"/>
        <pt x="443" y="320" on="0"/>
        <pt x="412" y="509" on="0"/>
        <pt x="372" y="686" on="0"/>
        <pt x="322" y="842" on="0"/>
        <pt x="261" y="959" on="0"/>
        <pt x="188" y="1026" on="0"/>
        <pt x="145" y="1026" on="1"/>
        <pt x="96" y="1026" on="0"/>
        <pt x="31" y="971" on="0"/>
        <pt x="31" y="920" on="1"/>
        <pt x="31" y="889" on="0"/>
        <pt x="53" y="845" on="0"/>
        <pt x="76" y="825" on="1"/>
        <pt x="72" y="821" on="1"/>
        <pt x="35" y="838" on="0"/>
        <pt x="0" y="902" on="0"/>
        <pt x="0" y="936" on="1"/>
        <pt x="0" y="966" on="0"/>
        <pt x="23" y="1019" on="0"/>
        <pt x="65" y="1058" on="0"/>
        <pt x="122" y="1081" on="0"/>
        <pt x="156" y="1081" on="1"/>
        <pt x="209" y="1081" on="0"/>
        <pt x="295" y="1010" on="0"/>
        <pt x="365" y="891" on="0"/>
        <pt x="420" y="733" on="0"/>
        <pt x="462" y="560" on="0"/>
        <pt x="493" y="381" on="0"/>
        <pt x="516" y="218" on="0"/>
        <pt x="533" y="82" on="0"/>
        <pt x="539" y="39" on="1"/>
        <pt x="555" y="143" on="0"/>
        <pt x="596" y="386" on="0"/>
        <pt x="650" y="642" on="0"/>
        <pt x="718" y="900" on="0"/>
        <pt x="803" y="1138" on="0"/>
        <pt x="907" y="1345" on="0"/>
        <pt x="1032" y="1498" on="0"/>
        <pt x="1181" y="1585" on="0"/>
        <pt x="1268" y="1585" on="1"/>
        <pt x="1294" y="1585" on="0"/>
        <pt x="1343" y="1569" on="0"/>
        <pt x="1382" y="1537" on="0"/>
        <pt x="1405" y="1488" on="0"/>
        <pt x="1405" y="1456" on="1"/>
        <pt x="1405" y="1434" on="0"/>
        <pt x="1392" y="1390" on="0"/>
        <pt x="1375" y="1353" on="0"/>
        <pt x="1358" y="1326" on="0"/>
        <pt x="1354" y="1321" on="1"/>
      </contour>
    </TTGlyph>
</ttFont>
